SplineFontDB: 3.2
FontName: Caudex-Bold
FullName: Caudex Bold
FamilyName: Caudex
Weight: Bold
Copyright: Copyright (c) The Caudex Project Authors https://github.com/nidud/caudex
Version: 2.0
ItalicAngle: 0
UnderlinePosition: -100
UnderlineWidth: 30
Ascent: 1638
Descent: 410
InvalidEm: 0
sfntRevision: 0x00020000
LayerCount: 2
Layer: 0 1 "Back" 1
Layer: 1 1 "Fore" 0
XUID: [1021 646 -1554209282 20416]
StyleMap: 0x0020
FSType: 0
OS2Version: 0
OS2_WeightWidthSlopeOnly: 0
OS2_UseTypoMetrics: 0
CreationTime: 1305227018
ModificationTime: 1711536049
PfmFamily: 17
TTFWeight: 700
TTFWidth: 5
LineGap: 0
VLineGap: 0
Panose: 2 4 7 2 5 5 5 3 3 4
OS2TypoAscent: 2034
OS2TypoAOffset: 0
OS2TypoDescent: -606
OS2TypoDOffset: 0
OS2TypoLinegap: 0
OS2WinAscent: 2034
OS2WinAOffset: 0
OS2WinDescent: 606
OS2WinDOffset: 0
HheadAscent: 2034
HheadAOffset: 0
HheadDescent: -606
HheadDOffset: 0
OS2SubXSize: 1285
OS2SubYSize: 1230
OS2SubXOff: 0
OS2SubYOff: 0
OS2SupXSize: 655
OS2SupYSize: 860
OS2SupXOff: 0
OS2SupYOff: 550
OS2StrikeYSize: 100
OS2StrikeYPos: 530
OS2CapHeight: 1405
OS2XHeight: 931
OS2FamilyClass: 260
OS2Vendor: 'PfEd'
OS2CodePages: e000009f.dfd70000
OS2UnicodeRanges: e40002ff.5000f8fb.00008008.00000000
MacStyle: 1
Lookup: 1 0 0 "'smcp' Lowercase to Small Capitals in Latin lookup 1" { "'smcp' Lowercase to Small Capitals in Latin lookup 1 subtable"  } ['smcp' ('latn' <'ROM ' 'TRK ' 'dflt' > ) ]
Lookup: 1 0 0 "'ordn' Ordinals in Latin lookup 2" { "'ordn' Ordinals in Latin lookup 2 subtable" ("superior") } ['ordn' ('latn' <'ROM ' 'TRK ' 'dflt' > ) 'sups' ('cyrl' <'dflt' > 'grek' <'dflt' > 'latn' <'ROM ' 'TRK ' 'dflt' > ) ]

StartChar: .notdef
Encoding: 65536 -1 0
Width: 772
GlyphClass: 1
Flags: W
LayerCount: 2
Fore
SplineSet
0 1404 m 1,0,-1
 772 1404 l 1,1,-1
 772 0 l 1,2,-1
 0 0 l 1,3,-1
 0 1404 l 1,0,-1
272 244 m 2,5,-1
 272 175 l 2,6,7
 272 102 272 102 364 102 c 256,8,9
 456 102 456 102 456 175 c 2,10,-1
 456 244 l 2,11,12
 456 317 456 317 364 317 c 256,13,4
 272 317 272 317 272 244 c 2,5,-1
399 504 m 2,14,-1
 402 653 l 2,15,16
 403 713 403 713 420 744 c 0,17,18
 436 773 436 773 487 805 c 0,19,20
 508 819 508 819 524 829 c 0,21,22
 668 917 668 917 668 1059 c 0,23,24
 668 1172 668 1172 593 1237 c 0,25,26
 517 1302 517 1302 383 1302 c 0,27,28
 253 1302 253 1302 179 1235 c 0,29,30
 104 1169 104 1169 104 1054 c 0,31,32
 104 1028 104 1028 118 1016 c 0,33,34
 132 1005 132 1005 162 1005 c 0,35,36
 188 1005 188 1005 206 1016 c 0,37,38
 221 1026 221 1026 223 1046 c 0,39,40
 232 1162 232 1162 264 1204 c 0,41,42
 295 1248 295 1248 363 1248 c 0,43,44
 440 1248 440 1248 480 1201 c 0,45,46
 518 1154 518 1154 518 1059 c 0,47,48
 518 971 518 971 478 908 c 0,49,50
 436 844 436 844 331 771 c 1,51,-1
 331 505 l 2,52,53
 331 464 331 464 341 436 c 0,54,55
 349 411 349 411 364 411 c 0,56,57
 381 411 381 411 390 433 c 256,58,59
 399 455 399 455 399 504 c 2,14,-1
EndSplineSet
Validated: 1
EndChar

StartChar: exclam
Encoding: 33 33 4
Width: 550
GlyphClass: 2
Flags: W
LayerCount: 2
Fore
SplineSet
257 250 m 128,-1,1
 327 250 327 250 360 217 c 0,2,3
 387 190 387 190 387 143 c 2,4,-1
 387 61 l 2,5,6
 387 15 387 15 360 -12 c 0,7,8
 327 -45 327 -45 257 -45 c 128,-1,9
 187 -45 187 -45 154 -12 c 0,10,11
 127 15 127 15 127 61 c 2,12,-1
 127 143 l 2,13,14
 127 190 127 190 154 217 c 0,15,0
 187 250 187 250 257 250 c 128,-1,1
131 1332 m 2,16,-1
 131 1341 l 2,17,18
 131 1379 131 1379 153 1400 c 0,19,20
 178 1425 178 1425 227 1425 c 2,21,-1
 293 1425 l 2,22,23
 343 1425 343 1425 367 1401 c 0,24,25
 388 1380 388 1380 388 1345 c 2,26,-1
 388 1343 l 1,27,-1
 388 1332 l 2,28,29
 388 1331 388 1331 317 385 c 1,30,31
 317 365 317 365 305 353 c 128,-1,32
 293 341 293 341 272 341 c 0,33,34
 271 341 271 341 270 341 c 2,35,-1
 249 341 l 2,36,37
 228 341 228 341 216 353 c 128,-1,38
 204 365 204 365 204 385 c 1,39,40
 131 1331 131 1331 131 1332 c 2,16,-1
EndSplineSet
Validated: 1
EndChar

StartChar: quotedbl
Encoding: 34 34 5
Width: 799
GlyphClass: 2
Flags: W
LayerCount: 2
Fore
SplineSet
172 1463 m 2
 219 1463 l 2
 262 1463 262 1463 281 1445 c 0
 293 1433 293 1433 293 1414 c 2
 293 1409 l 2
 293 1408 293 1408 242 968 c 0
 242 956 242 956 232 946 c 0
 222 936 222 936 203 937 c 2
 188 937 l 2
 170 937 170 937 160 946 c 0
 150 955 150 955 150 968 c 0
 98 1408 98 1408 98 1409 c 2
 98 1413 l 2
 98 1432 98 1432 111 1445 c 0
 129 1463 129 1463 172 1463 c 2
546 1463 m 2
 593 1463 l 2
 636 1463 636 1463 655 1445 c 0
 667 1433 667 1433 667 1414 c 2
 667 1409 l 2
 667 1408 667 1408 616 968 c 0
 616 956 616 956 606 946 c 0
 596 936 596 936 577 937 c 2
 562 937 l 2
 544 937 544 937 534 946 c 0
 524 955 524 955 524 968 c 0
 472 1408 472 1408 472 1409 c 2
 472 1413 l 2
 472 1432 472 1432 485 1445 c 0
 503 1463 503 1463 546 1463 c 2
EndSplineSet
EndChar

StartChar: numbersign
Encoding: 35 35 6
Width: 1100
GlyphClass: 2
Flags: W
LayerCount: 2
Fore
SplineSet
643 742 m 1
 497 742 l 1
 456 507 l 1
 602 507 l 1
 643 742 l 1
338 -20 m 2
 253 -20 l 2
 242 -20 242 -20 235 -13 c 0
 226 -4 226 -4 225 11 c 0,0,0
 225 16 225 16 226 22 c 2
 285 362 l 1
 30 362 l 2
 14 362 14 362 5 370 c 0
 -3 378 -3 378 -3 390 c 0,0,0
 -3 393 -3 393 -3 395 c 0
 12 480 12 480 12 481 c 0
 14 491 14 491 21 497 c 0
 31 507 31 507 48 507 c 2
 310 507 l 1
 351 742 l 1
 96 742 l 2
 80 742 80 742 71 750 c 0
 63 758 63 758 63 770 c 0,0,0
 63 773 63 773 63 775 c 0
 78 860 78 860 78 861 c 0
 80 871 80 871 87 877 c 0
 97 887 97 887 114 887 c 2
 376 887 l 1
 436 1233 l 2
 439 1249 439 1249 448 1258 c 0
 457 1267 457 1267 469 1267 c 2
 554 1267 l 2
 566 1267 566 1267 573 1260 c 0
 582 1251 582 1251 582 1237 c 0,0,0
 582 1232 582 1232 581 1227 c 0
 534 956 534 956 522 887 c 1
 668 887 l 1
 728 1233 l 2
 731 1249 731 1249 740 1258 c 0
 749 1267 749 1267 762 1267 c 2
 846 1267 l 2
 858 1267 858 1267 866 1259 c 0
 874 1251 874 1251 875 1237 c 0,0,0
 875 1232 875 1232 874 1227 c 0
 827 956 827 956 815 887 c 1
 1069 887 l 2
 1086 887 1086 887 1094 879 c 0
 1102 871 1102 871 1102 860 c 0,0,0
 1102 857 1102 857 1102 853 c 2
 1087 769 l 2
 1086 759 1086 759 1078 752 c 0
 1068 742 1068 742 1051 742 c 2
 790 742 l 1
 749 507 l 1
 1003 507 l 2
 1020 507 1020 507 1028 499 c 0
 1036 491 1036 491 1036 480 c 0,0,0
 1036 477 1036 477 1036 473 c 2
 1021 389 l 2
 1020 379 1020 379 1012 372 c 0
 1002 362 1002 362 985 362 c 2
 724 362 l 1
 664 16 l 2
 661 -1 661 -1 652 -11 c 0
 643 -20 643 -20 630 -20 c 2
 546 -20 l 2
 534 -20 534 -20 527 -13 c 0
 517 -3 517 -3 517 12 c 0,0,0
 517 17 517 17 518 22 c 0
 547 192 547 192 577 362 c 1
 431 362 l 1
 371 16 l 2
 368 -2 368 -2 359 -11 c 0
 350 -20 350 -20 338 -20 c 2
EndSplineSet
Validated: 1
EndChar

StartChar: dollar
Encoding: 36 36 7
Width: 1100
GlyphClass: 2
Flags: W
LayerCount: 2
Fore
SplineSet
47 257 m 2
 44 266 44 266 44 278 c 0
 44 290 44 290 55 306 c 0
 68 327 68 327 92 327 c 0
 104 327 104 327 115 316 c 0
 127 304 127 304 135 286 c 0
 196 153 196 153 278 114 c 0
 361 74 361 74 477 73 c 1
 477 635 l 1
 468 636 468 636 458 637 c 0
 346 649 346 649 249 696 c 0
 148 744 148 744 102 830 c 0
 56 916 56 916 56 1018 c 0
 56 1215 56 1215 194 1342 c 0
 309 1448 309 1448 477 1466 c 1
 477 1561 l 2
 477 1569 477 1569 481 1575 c 0
 486 1581 486 1581 491 1581 c 2
 587 1581 l 2
 592 1581 592 1581 596 1575 c 0
 600 1569 600 1569 600 1561 c 2
 600 1468 l 1
 813 1454 813 1454 965 1355 c 0
 974 1349 974 1349 974 1338 c 0
 974 1337 974 1337 950 1126 c 0
 948 1110 948 1110 938 1100 c 0
 928 1090 928 1090 911 1090 c 2
 907 1090 l 2
 882 1090 882 1090 864 1130 c 0
 824 1216 824 1216 746 1276 c 0
 677 1329 677 1329 600 1338 c 1
 600 838 l 1
 634 833 634 833 675 826 c 0
 740 816 740 816 821 792 c 0
 908 764 908 764 953 714 c 0
 998 664 998 664 1024 603 c 0
 1050 542 1050 542 1051 459 c 0
 1051 230 1051 230 869 87 c 0
 776 14 776 14 675 -19 c 0
 634 -32 634 -32 600 -41 c 1
 600 -156 l 2
 600 -164 600 -164 596 -170 c 0
 592 -176 592 -176 587 -176 c 2
 491 -176 l 2
 486 -176 486 -176 481 -170 c 0
 477 -164 477 -164 477 -156 c 2
 477 -58 l 1
 443 -60 443 -60 427 -59 c 0
 285 -59 285 -59 155 -19 c 0
 145 -16 145 -16 142 -7 c 2
 47 257 l 2
477 1331 m 1
 446 1325 446 1325 422 1313 c 0
 364 1286 364 1286 340 1260 c 0
 316 1234 316 1234 299 1198 c 0
 282 1164 282 1164 274 1128 c 0
 267 1096 267 1096 267 1069 c 0,0,0
 267 1066 267 1066 267 1062 c 0
 267 1031 267 1031 278 1001 c 1
 278 1000 l 1
 297 940 297 940 338 910 c 0
 379 880 379 880 412 872 c 0
 443 864 443 864 477 858 c 1
 477 1331 l 1
600 83 m 1
 637 93 637 93 682 115 c 0
 752 150 752 150 794 219 c 0
 836 288 836 288 837 388 c 2
 837 399 l 2
 834 502 834 502 759 556 c 0
 724 582 724 582 646 604 c 0
 624 610 624 610 600 615 c 1
 600 83 l 1
EndSplineSet
EndChar

StartChar: ampersand
Encoding: 38 38 9
Width: 1292
GlyphClass: 2
Flags: W
LayerCount: 2
Fore
SplineSet
292 316 m 0,0,1
 292 221 292 221 344 154 c 0,2,3
 399 82 399 82 484 82 c 0,4,5
 559 82 559 82 617 122 c 0,6,7
 672 160 672 160 716 214 c 1,8,-1
 434 587 l 1,9,10
 300 482 300 482 293 336 c 0,11,12
 293 335 293 335 292.5 330.5 c 128,-1,13
 292 326 292 326 292 316 c 0,0,1
688 1066 m 2,14,15
 688 1129 688 1129 665 1174 c 0,16,17
 643 1216 643 1216 568 1216 c 0,18,19
 509 1216 509 1216 476 1178 c 0,20,21
 441 1135 441 1135 437 1061 c 0,22,23
 437 1061 437 1061 436.5 1055.5 c 128,-1,24
 436 1050 436 1050 436 1041 c 0,25,26
 436 914 436 914 532 785 c 1,27,28
 607 833 607 833 643 892 c 0,29,30
 681 955 681 955 688 1052 c 1,31,-1
 688 1066 l 2,14,15
1250 690 m 2,32,-1
 1250 688 l 2,33,34
 1250 678 1250 678 1247 672 c 0,35,36
 1238 655 1238 655 1204 638 c 0,37,38
 1198 635 1198 635 1176 625 c 128,-1,39
 1154 615 1154 615 1138 605 c 0,40,41
 1067 559 1067 559 1018 485 c 128,-1,42
 969 411 969 411 901 304 c 1,43,44
 1011 168 1011 168 1016 161.5 c 128,-1,45
 1021 155 1021 155 1033 143 c 0,46,47
 1079 97 1079 97 1160 59 c 0,48,49
 1193 45 1193 45 1203 27 c 0,50,51
 1204 25 1204 25 1206 20 c 0,52,53
 1210 8 1210 8 1205 -2 c 1,54,55
 1203 -10 1203 -10 1195 -15 c 128,-1,56
 1187 -20 1187 -20 1172 -20 c 2,57,-1
 928 -20 l 2,58,59
 882 -20 882 -20 833 55 c 0,60,61
 807 94 807 94 782 127 c 1,62,63
 705 39 705 39 619 -5 c 0,64,65
 523 -52 523 -52 403 -52 c 0,66,67
 259 -52 259 -52 172 35 c 0,68,69
 105 104 105 104 93 238 c 0,70,71
 92 245 92 245 92.5 252 c 128,-1,72
 93 259 93 259 93 265 c 0,73,74
 99 391 99 391 171 490 c 0,75,76
 233 580 233 580 375 677 c 1,77,78
 321 752 321 752 290 827 c 0,79,80
 266 882 266 882 258 980 c 0,81,82
 257 985 257 985 257.5 993 c 128,-1,83
 258 1001 258 1001 258 1010 c 0,84,85
 263 1150 263 1150 352 1237 c 0,86,87
 438 1322 438 1322 569 1322 c 2,88,-1
 575 1322 l 2,89,90
 711 1322 711 1322 787 1247 c 0,91,92
 852 1182 852 1182 852 1079 c 2,93,-1
 852 1062 l 2,94,95
 852 1061 852 1061 852 1061 c 0,96,97
 845 950 845 950 780 863 c 0,98,99
 717 780 717 780 595 701 c 1,100,-1
 831 392 l 1,101,-1
 928 573 l 2,102,103
 934 585 934 585 936 599 c 0,104,105
 936 599 936 599 936.5 602 c 128,-1,106
 937 605 937 605 937 610 c 128,-1,107
 937 615 937 615 934.5 622 c 128,-1,108
 932 629 932 629 926 637 c 0,109,110
 913 653 913 653 913 671 c 2,111,-1
 913 674 l 2,112,113
 913 679 913 679 917 690 c 128,-1,114
 921 701 921 701 929 709 c 0,115,116
 940 720 940 720 956 720 c 2,117,-1
 1214 720 l 2,118,119
 1233 720 1233 720 1244 707 c 0,120,121
 1250 701 1250 701 1250 690 c 2,32,-1
EndSplineSet
Validated: 1
EndChar

StartChar: quotesingle
Encoding: 39 39 10
Width: 426
GlyphClass: 2
Flags: W
LayerCount: 2
Fore
SplineSet
172 1463 m 2,0,-1
 219 1463 l 2,1,2
 262 1463 262 1463 281 1445 c 0,3,4
 293 1433 293 1433 293 1414 c 2,5,-1
 293 1409 l 2,6,7
 293 1408 293 1408 242 968 c 0,8,9
 242 956 242 956 232.5 946.5 c 128,-1,10
 223 937 223 937 203 937 c 2,11,-1
 188 937 l 2,12,13
 169 937 169 937 159.5 946 c 128,-1,14
 150 955 150 955 150 968 c 0,15,16
 98 1408 98 1408 98 1409 c 2,17,-1
 98 1413 l 2,18,19
 98 1432 98 1432 111 1445 c 0,20,21
 129 1463 129 1463 172 1463 c 2,0,-1
EndSplineSet
Validated: 1
EndChar

StartChar: parenleft
Encoding: 40 40 11
Width: 628
GlyphClass: 2
Flags: W
LayerCount: 2
Fore
SplineSet
156 79 m 0,0,1
 59 329 59 329 59 567.5 c 128,-1,2
 59 806 59 806 156 1056 c 0,3,4
 255 1310 255 1310 570 1484 c 0,5,6
 589 1495 589 1495 605 1488 c 0,7,8
 616 1483 616 1483 618 1466 c 0,9,10
 619 1458 619 1458 619 1442 c 2,11,-1
 619 1412 l 2,12,13
 619 1403 619 1403 612 1397 c 0,14,15
 384 1199 384 1199 319.5 1023.5 c 128,-1,16
 255 848 255 848 255 567.5 c 128,-1,17
 255 287 255 287 320 111 c 0,18,19
 384 -63 384 -63 612 -261 c 0,20,21
 619 -267 619 -267 619 -276 c 2,22,-1
 619 -306 l 2,23,24
 619 -329 619 -329 617 -337 c 0,25,26
 613 -348 613 -348 605 -352 c 0,27,28
 595 -355 595 -355 593.5 -355 c 128,-1,29
 592 -355 592 -355 592 -355 c 0,30,31
 582 -355 582 -355 570 -348 c 0,32,33
 255 -174 255 -174 156 79 c 0,0,1
EndSplineSet
Validated: 1
Substitution2: "'smcp' Lowercase to Small Capitals in Latin lookup 3 subtable" uni208D
Substitution2: "'ordn' Ordinals in Latin lookup 2 subtable" uni207D
EndChar

StartChar: parenright
Encoding: 41 41 12
Width: 628
GlyphClass: 2
Flags: W
LayerCount: 2
Fore
SplineSet
522 1057 m 0,0,1
 619 807 619 807 619 568.5 c 128,-1,2
 619 330 619 330 522 80 c 0,3,4
 423 -174 423 -174 108 -348 c 0,5,6
 89 -359 89 -359 73 -352 c 0,7,8
 62 -347 62 -347 60 -330 c 0,9,10
 59 -322 59 -322 59 -306 c 2,11,-1
 59 -276 l 2,12,13
 59 -267 59 -267 66 -261 c 0,14,15
 294 -63 294 -63 358.5 112.5 c 128,-1,16
 423 288 423 288 423 568.5 c 128,-1,17
 423 849 423 849 358 1025 c 0,18,19
 294 1199 294 1199 66 1397 c 0,20,21
 59 1403 59 1403 59 1412 c 2,22,-1
 59 1442 l 2,23,24
 59 1465 59 1465 61 1473 c 0,25,26
 65 1484 65 1484 73 1488 c 0,27,28
 83 1491 83 1491 84.5 1491 c 128,-1,29
 86 1491 86 1491 86 1491 c 0,30,31
 96 1491 96 1491 108 1484 c 0,32,33
 423 1310 423 1310 522 1057 c 0,0,1
EndSplineSet
Substitution2: "'smcp' Lowercase to Small Capitals in Latin lookup 3 subtable" uni208E
Substitution2: "'ordn' Ordinals in Latin lookup 2 subtable" uni207E
EndChar

StartChar: asterisk
Encoding: 42 42 13
Width: 1100
GlyphClass: 2
Flags: W
LayerCount: 2
Fore
SplineSet
880 466 m 0,0,1
 880 454 880 454 873 442 c 0,2,3
 863 427 863 427 844 397 c 0,4,5
 831 377 831 377 809 377 c 0,6,7
 792 377 792 377 771 390 c 2,8,-1
 623 486 l 1,9,-1
 604 498 l 1,10,-1
 604 300 l 2,11,12
 604 269 604 269 589 254 c 0,13,14
 577 242 577 242 558 242 c 2,15,-1
 506 242 l 2,16,17
 487 242 487 242 475 254 c 0,18,19
 460 269 460 269 460 300 c 2,20,-1
 460 498 l 1,21,-1
 293 390 l 2,22,23
 273 377 273 377 256 377 c 0,24,25
 234 377 234 377 220 397 c 2,26,-1
 191 442 l 2,27,28
 183 454 183 454 184 466 c 0,29,30
 184 492 184 492 214 512 c 2,31,-1
 399 632 l 1,32,-1
 214 751 l 2,33,34
 183 771 183 771 184 797 c 0,35,36
 184 809 184 809 191 821 c 0,37,38
 201 836 201 836 220 866 c 0,39,40
 233 886 233 886 255 886 c 0,41,42
 272 886 272 886 293 873 c 2,43,-1
 441 777 l 1,44,-1
 460 765 l 1,45,-1
 460 964 l 2,46,47
 460 993 460 993 475 1008 c 0,48,49
 487 1020 487 1020 506 1020 c 2,50,-1
 558 1020 l 2,51,52
 577 1020 577 1020 589 1008 c 0,53,54
 604 993 604 993 604 964 c 2,55,-1
 604 765 l 1,56,-1
 771 873 l 2,57,58
 791 886 791 886 808 886 c 0,59,60
 830 886 830 886 844 866 c 2,61,-1
 873 821 l 2,62,63
 881 809 881 809 880 797 c 0,64,65
 880 771 880 771 850 751 c 2,66,-1
 692 649 l 1,67,-1
 665 632 l 1,68,-1
 850 512 l 2,69,70
 880 492 880 492 880 466 c 0,0,1
EndSplineSet
Validated: 1
EndChar

StartChar: plus
Encoding: 43 43 14
Width: 1100
GlyphClass: 2
Flags: W
LayerCount: 2
Fore
SplineSet
604 559 m 1,0,-1
 604 300 l 2,1,2
 604 269 604 269 589 254 c 0,3,4
 577 242 577 242 558 242 c 2,5,-1
 506 242 l 2,6,7
 487 242 487 242 475 254 c 0,8,9
 460 269 460 269 460 300 c 2,10,-1
 460 559 l 1,11,-1
 200 559 l 2,12,13
 170 559 170 559 155 574 c 0,14,15
 143 586 143 586 143 605 c 2,16,-1
 143 658 l 2,17,18
 143 677 143 677 155 689 c 0,19,20
 170 704 170 704 200 704 c 2,21,-1
 460 704 l 1,22,-1
 460 964 l 2,23,24
 460 993 460 993 475 1008 c 0,25,26
 487 1020 487 1020 506 1020 c 2,27,-1
 558 1020 l 2,28,29
 577 1020 577 1020 589 1008 c 0,30,31
 604 993 604 993 604 964 c 2,32,-1
 604 704 l 1,33,-1
 864 704 l 2,34,35
 894 704 894 704 909 689 c 0,36,37
 921 677 921 677 921 658 c 2,38,-1
 921 605 l 2,39,40
 921 586 921 586 909 574 c 0,41,42
 894 559 894 559 864 559 c 2,43,-1
 604 559 l 1,0,-1
EndSplineSet
Validated: 1
Substitution2: "'smcp' Lowercase to Small Capitals in Latin lookup 3 subtable" uni208A
Substitution2: "'ordn' Ordinals in Latin lookup 2 subtable" uni207A
EndChar

StartChar: comma
Encoding: 44 44 15
Width: 480
GlyphClass: 2
Flags: W
LayerCount: 2
Fore
SplineSet
127 61 m 2,0,-1
 127 143 l 2,1,2
 127 190 127 190 154 217 c 0,3,4
 187 250 187 250 257 250 c 128,-1,5
 327 250 327 250 360 217 c 0,6,7
 387 190 387 190 387 143 c 2,8,-1
 387 61 l 2,9,10
 387 60 387 60 387 58 c 0,11,12
 362 -138 362 -138 200 -242 c 0,13,14
 166 -269 166 -269 134 -269 c 0,15,16
 112 -269 112 -269 93 -257 c 0,17,18
 91 -255 91 -255 89 -253 c 0,19,20
 78 -240 78 -240 77 -225 c 0,21,22
 77 -208 77 -208 91 -193 c 0,23,24
 109 -173 109 -173 136 -158 c 0,25,26
 209 -113 209 -113 232 -44 c 1,27,28
 181 -39 181 -39 154 -12 c 128,-1,29
 127 15 127 15 127 61 c 2,0,-1
EndSplineSet
Validated: 1
EndChar

StartChar: hyphen
Encoding: 45 45 16
Width: 1100
GlyphClass: 2
Flags: W
LayerCount: 2
Fore
SplineSet
200 569 m 2,0,-1
 864 569 l 2,1,2
 894 569 894 569 909 554 c 0,3,4
 921 542 921 542 921 523 c 2,5,-1
 921 470 l 2,6,7
 921 451 921 451 909 439 c 0,8,9
 894 424 894 424 864 424 c 2,10,-1
 200 424 l 2,11,12
 170 424 170 424 155 439 c 0,13,14
 143 451 143 451 143 470 c 2,15,-1
 143 523 l 2,16,17
 143 542 143 542 155 554 c 0,18,19
 170 569 170 569 200 569 c 2,0,-1
EndSplineSet
Validated: 1
Substitution2: "'ordn' Ordinals in Latin lookup 2 subtable" uni207B
EndChar

StartChar: period
Encoding: 46 46 17
Width: 480
GlyphClass: 2
Flags: W
LayerCount: 2
Fore
SplineSet
257 250 m 128,-1,1
 327 250 327 250 360 217 c 0,2,3
 387 190 387 190 387 143 c 2,4,-1
 387 61 l 2,5,6
 387 15 387 15 360 -12 c 0,7,8
 327 -45 327 -45 257 -45 c 128,-1,9
 187 -45 187 -45 154 -12 c 0,10,11
 127 15 127 15 127 61 c 2,12,-1
 127 143 l 2,13,14
 127 190 127 190 154 217 c 0,15,0
 187 250 187 250 257 250 c 128,-1,1
EndSplineSet
Validated: 1
EndChar

StartChar: slash
Encoding: 47 47 18
Width: 1100
GlyphClass: 2
Flags: W
LayerCount: 2
Fore
SplineSet
1042 1494 m 2,0,1
 1050 1494 1050 1494 1056 1488 c 128,-1,2
 1062 1482 1062 1482 1062 1476 c 128,-1,3
 1062 1470 1062 1470 1060 1464 c 2,4,-1
 218 -80 l 2,5,6
 217 -83 217 -83 214 -84 c 0,7,8
 208 -90 208 -90 200 -90 c 2,9,-1
 58 -90 l 2,10,11
 50 -90 50 -90 44 -84 c 128,-1,12
 38 -78 38 -78 38 -72 c 128,-1,13
 38 -66 38 -66 40 -60 c 2,14,-1
 884 1484 l 2,15,16
 890 1494 890 1494 902 1494 c 2,17,-1
 1042 1494 l 2,0,1
EndSplineSet
Validated: 1
Substitution2: "Single Substitution lookup 21 subtable" fraction
EndChar

StartChar: zero
Encoding: 48 48 19
Width: 1100
GlyphClass: 2
Flags: W
LayerCount: 2
Fore
SplineSet
79 989 m 2,0,1
 79 1185 79 1185 203 1325.5 c 128,-1,2
 327 1466 327 1466 551 1466 c 0,3,4
 778 1466 778 1466 899.5 1324.5 c 128,-1,5
 1021 1183 1021 1183 1021 989 c 2,6,-1
 1021 498 l 2,7,8
 1021 216 1021 216 885 79 c 0,9,10
 761 -45 761 -45 526 -45 c 0,11,12
 324 -45 324 -45 213 67 c 0,13,14
 79 201 79 201 79 491 c 2,15,-1
 79 989 l 2,0,1
550 1354 m 0,16,17
 444 1354 444 1354 393 1303 c 0,18,19
 360 1270 360 1270 349 1216 c 0,20,21
 316 1064 316 1064 316 966 c 2,22,-1
 316 454 l 2,23,24
 316 352 316 352 351 203 c 0,25,26
 365 143 365 143 398 110 c 0,27,28
 442 66 442 66 522 66 c 0,29,30
 664 66 664 66 722 175 c 0,31,32
 784 291 784 291 784 454 c 2,33,-1
 784 966 l 2,34,35
 784 1131 784 1131 728 1245 c 0,36,37
 711 1279 711 1279 688 1302 c 0,38,39
 637 1354 637 1354 550 1354 c 0,16,17
EndSplineSet
Validated: 1
Substitution2: "'ordn' Ordinals in Latin lookup 6 subtable" uni2070
Substitution2: "'smcp' Lowercase to Small Capitals in Latin lookup 5 subtable" uni2080
EndChar

StartChar: one
Encoding: 49 49 20
Width: 1100
GlyphClass: 2
Flags: W
LayerCount: 2
Fore
SplineSet
812 16 m 0,0,1
 812 1 812 1 802 -9.5 c 128,-1,2
 792 -20 792 -20 772 -20 c 2,3,-1
 432 -20 l 2,4,5
 414 -20 414 -20 403 -9 c 128,-1,6
 392 2 392 2 392 21 c 2,7,-1
 392 23 l 2,8,9
 392 24 392 24 392 24 c 0,10,11
 392 41 392 41 406.5 55.5 c 128,-1,12
 421 70 421 70 455 82 c 0,13,14
 468 86 468 86 475 94 c 0,15,16
 492 111 492 111 492 146 c 2,17,-1
 492 1232 l 1,18,-1
 308 1232 l 2,19,20
 300 1232 300 1232 294 1238 c 128,-1,21
 288 1244 288 1244 288 1252 c 2,22,-1
 288 1299 l 2,23,24
 288 1307 288 1307 294 1313 c 0,25,26
 297 1316 297 1316 300 1317 c 2,27,-1
 684 1481 l 2,28,29
 688 1483 688 1483 694 1483 c 128,-1,30
 700 1483 700 1483 706 1477 c 128,-1,31
 712 1471 712 1471 712 1463 c 2,32,-1
 712 146 l 2,33,34
 712 110 712 110 728 94 c 0,35,36
 736 86 736 86 749 82 c 0,37,38
 781 71 781 71 795 56.5 c 128,-1,39
 809 42 809 42 812 26 c 0,40,41
 812 24 812 24 812 23 c 2,42,-1
 812 22 l 2,43,44
 812 19 812 19 812 16 c 0,0,1
EndSplineSet
Validated: 1
Substitution2: "'ordn' Ordinals in Latin lookup 6 subtable" uni00B9
Substitution2: "'smcp' Lowercase to Small Capitals in Latin lookup 5 subtable" uni2081
EndChar

StartChar: two
Encoding: 50 50 21
Width: 1100
GlyphClass: 2
Flags: W
LayerCount: 2
Fore
SplineSet
132 -0 m 2,0,-1
 132 78 l 2,1,2
 132 172 132 172 187 242 c 0,3,4
 239 308 239 308 351 429 c 0,5,6
 351 429 351 429 361 438 c 0,7,8
 418 493 418 493 482 564.5 c 128,-1,9
 546 636 546 636 618 721 c 128,-1,10
 690 806 690 806 722.5 890.5 c 128,-1,11
 755 975 755 975 755 1031.5 c 128,-1,12
 755 1088 755 1088 732 1132 c 0,13,14
 683 1224 683 1224 590 1260 c 0,15,16
 536 1281 536 1281 483 1281 c 128,-1,17
 430 1281 430 1281 382 1270 c 0,18,19
 271 1242 271 1242 199 1136 c 0,20,21
 176 1102 176 1102 166 1073 c 0,22,23
 164 1069 164 1069 161 1066 c 0,24,25
 155 1060 155 1060 147 1060 c 2,26,-1
 143 1060 l 2,27,28
 135 1060 135 1060 129 1066 c 128,-1,29
 123 1072 123 1072 123 1080 c 2,30,-1
 123 1210 l 2,31,32
 123 1213 123 1213 124 1217 c 0,33,34
 134 1246 134 1246 145 1266 c 0,35,36
 145 1267 145 1267 146 1268 c 0,37,38
 190 1339 190 1339 267 1394 c 128,-1,39
 344 1449 344 1449 454 1466 c 0,40,41
 498 1472 498 1472 540 1472 c 0,42,43
 678 1472 678 1472 803 1402 c 0,44,45
 970 1307 970 1307 973 1090 c 1,46,-1
 973 1086 l 2,47,48
 973 943 973 943 897.5 818 c 128,-1,49
 822 693 822 693 720.5 580.5 c 128,-1,50
 619 468 619 468 515 350 c 0,51,52
 428 252 428 252 375 170 c 1,53,-1
 709 170 l 2,54,55
 835 170 835 170 948 211 c 0,56,57
 952 212 952 212 956 212 c 0,58,59
 963 212 963 212 969 206 c 128,-1,60
 975 200 975 200 975 192 c 2,61,-1
 977 42 l 2,62,63
 977 31 977 31 967 25 c 0,64,65
 906 -13 906 -13 837.5 -16.5 c 128,-1,66
 769 -20 769 -20 711 -20 c 2,67,-1
 152 -20 l 2,68,69
 144 -20 144 -20 138 -14 c 128,-1,70
 132 -8 132 -8 132 -0 c 2,0,-1
EndSplineSet
Validated: 1
Substitution2: "'ordn' Ordinals in Latin lookup 6 subtable" uni00B2
Substitution2: "'smcp' Lowercase to Small Capitals in Latin lookup 5 subtable" uni2082
EndChar

StartChar: three
Encoding: 51 51 22
Width: 1100
GlyphClass: 2
Flags: W
LayerCount: 2
Fore
SplineSet
393 -51 m 0,0,1
 258 -51 258 -51 159 26 c 0,2,3
 152 32 152 32 151 41 c 0,4,5
 146 208 146 208 146 209 c 0,6,7
 146 217 146 217 152 223 c 0,8,9
 158 229 158 229 166 229 c 2,10,-1
 172 229 l 2,11,12
 183 229 183 229 189 219 c 0,13,14
 247 122 247 122 380 92 c 0,15,16
 429 81 429 81 489 81 c 128,-1,17
 549 81 549 81 614 115 c 0,18,19
 710 165 710 165 744 260 c 0,20,21
 763 312 763 312 763 359 c 0,22,23
 763 513 763 513 624 617 c 0,24,25
 528 689 528 689 364 692 c 0,26,27
 356 692 356 692 350.5 697.5 c 128,-1,28
 345 703 345 703 344 711 c 0,29,30
 342 740 342 740 342 740 c 0,31,32
 342 748 342 748 346.5 753 c 128,-1,33
 351 758 351 758 356 759 c 0,34,35
 424 781 424 781 512 820 c 0,36,37
 595 857 595 857 635 924.5 c 128,-1,38
 675 992 675 992 675 1053 c 0,39,40
 675 1070 675 1070 672 1089 c 0,41,42
 658 1169 658 1169 596 1231 c 0,43,44
 538 1289 538 1289 447 1289 c 0,45,46
 439 1289 439 1289 435.5 1288.5 c 128,-1,47
 432 1288 432 1288 431 1288 c 0,48,49
 327 1282 327 1282 260 1201 c 0,50,51
 230 1164 230 1164 218 1123 c 0,52,53
 217 1118 217 1118 212 1113 c 128,-1,54
 207 1108 207 1108 199 1108 c 2,55,-1
 195 1108 l 2,56,57
 187 1108 187 1108 181 1114 c 128,-1,58
 175 1120 175 1120 175 1128 c 2,59,-1
 175 1283 l 2,60,61
 175 1291 175 1291 180 1296 c 0,62,63
 267 1391 267 1391 361 1428.5 c 128,-1,64
 455 1466 455 1466 542 1466 c 0,65,66
 706 1464 706 1464 796 1373 c 0,67,68
 838 1331 838 1331 864 1270 c 0,69,70
 864 1270 864 1270 865 1269 c 0,71,72
 887 1212 887 1212 887 1157 c 0,73,74
 887 1020 887 1020 748 889 c 0,75,76
 729 871 729 871 705 851 c 1,77,78
 832 781 832 781 890 681 c 0,79,80
 954 570 954 570 954 458 c 0,81,82
 954 439 954 439 953 426 c 0,83,84
 934 201 934 201 722 49 c 0,85,86
 610 -31 610 -31 444 -48 c 0,87,88
 418 -51 418 -51 393 -51 c 0,0,1
EndSplineSet
Validated: 1
Substitution2: "'ordn' Ordinals in Latin lookup 6 subtable" uni00B3
Substitution2: "'smcp' Lowercase to Small Capitals in Latin lookup 5 subtable" uni2083
EndChar

StartChar: four
Encoding: 52 52 23
Width: 1100
GlyphClass: 2
Flags: W
LayerCount: 2
Fore
SplineSet
630 576 m 1,0,-1
 630 1179 l 1,1,-1
 233 576 l 1,2,-1
 630 576 l 1,0,-1
850 395 m 1,3,-1
 850 146 l 2,4,5
 850 119 850 119 864.5 104.5 c 128,-1,6
 879 90 879 90 907 83 c 0,7,8
 961 69 961 69 979 50 c 0,9,10
 992 37 992 37 992 19.5 c 128,-1,11
 992 2 992 2 981 -9 c 128,-1,12
 970 -20 970 -20 952 -20 c 2,13,-1
 528 -20 l 2,14,15
 509 -20 509 -20 497.5 -8.5 c 128,-1,16
 486 3 486 3 486 21 c 0,17,18
 486 38 486 38 499 50 c 0,19,20
 518 69 518 69 574 83 c 0,21,22
 601 90 601 90 615.5 104.5 c 128,-1,23
 630 119 630 119 630 146 c 2,24,-1
 630 395 l 1,25,-1
 68 395 l 2,26,27
 60 395 60 395 54 401 c 128,-1,28
 48 407 48 407 48 415 c 2,29,-1
 48 529 l 2,30,31
 48 535 48 535 51 540 c 2,32,-1
 633 1416 l 2,33,34
 639 1425 639 1425 650 1425 c 2,35,-1
 830 1425 l 2,36,37
 838 1425 838 1425 844 1419 c 128,-1,38
 850 1413 850 1413 850 1405 c 2,39,-1
 850 576 l 1,40,-1
 1032 576 l 2,41,42
 1040 576 1040 576 1046 570 c 128,-1,43
 1052 564 1052 564 1052 556 c 2,44,-1
 1052 415 l 2,45,46
 1052 407 1052 407 1046 401 c 128,-1,47
 1040 395 1040 395 1032 395 c 2,48,-1
 850 395 l 1,3,-1
EndSplineSet
Validated: 1
Substitution2: "'ordn' Ordinals in Latin lookup 6 subtable" uni2074
Substitution2: "'smcp' Lowercase to Small Capitals in Latin lookup 5 subtable" uni2084
EndChar

StartChar: five
Encoding: 53 53 24
Width: 1100
GlyphClass: 2
Flags: W
LayerCount: 2
Fore
SplineSet
255 1175 m 1,0,-1
 255 779 l 1,1,2
 256 779 256 779 297.5 803.5 c 128,-1,3
 339 828 339 828 388 847 c 0,4,5
 483 885 483 885 593 885 c 0,6,7
 609 885 609 885 626 884 c 0,8,9
 783 872 783 872 897 734 c 1,10,11
 1004 595 1004 595 1004 425 c 2,12,-1
 1004 419 l 2,13,14
 1001 243 1001 243 856 98 c 0,15,16
 715 -43 715 -43 501 -43 c 2,17,-1
 492 -43 l 2,18,19
 362 -40 362 -40 290 -20 c 128,-1,20
 218 0 218 0 145 32 c 0,21,22
 89 54 89 54 86 101 c 0,23,24
 84 124 84 124 84 144 c 0,25,26
 84 212 84 212 110 238 c 0,27,28
 137 263 137 263 158 263 c 0,29,30
 174 263 174 263 184 253 c 0,31,32
 224 205 224 205 291 149 c 0,33,34
 349 99 349 99 455 99 c 2,35,-1
 463 99 l 2,36,37
 553 99 553 99 628 154.5 c 128,-1,38
 703 210 703 210 740 297 c 0,39,40
 765 357 765 357 765 425 c 0,41,42
 765 471 765 471 754 522 c 0,43,44
 726 642 726 642 624 699 c 0,45,46
 550 739 550 739 488 739 c 0,47,48
 460 739 460 739 435 732 c 0,49,50
 347 705 347 705 290 655 c 0,51,52
 256 626 256 626 227 621 c 0,53,54
 209 616 209 616 190 616 c 0,55,56
 181 616 181 616 175 617 c 0,57,58
 161 617 161 617 136 619 c 128,-1,59
 111 621 111 621 111 668 c 2,60,-1
 111 1320 l 2,61,62
 111 1362 111 1362 121 1373.5 c 128,-1,63
 131 1385 131 1385 181 1385 c 2,64,-1
 661 1385 l 2,65,66
 716 1385 716 1385 782 1381.5 c 128,-1,67
 848 1378 848 1378 918 1335 c 1,68,-1
 918 1125 l 1,69,70
 782 1175 782 1175 661 1175 c 2,71,-1
 255 1175 l 1,0,-1
EndSplineSet
Validated: 1
Substitution2: "'ordn' Ordinals in Latin lookup 6 subtable" uni2075
Substitution2: "'smcp' Lowercase to Small Capitals in Latin lookup 5 subtable" uni2085
EndChar

StartChar: six
Encoding: 54 54 25
Width: 1100
GlyphClass: 2
Flags: W
LayerCount: 2
Fore
SplineSet
1050 481 m 2,0,1
 1050 260 1050 260 903 108 c 0,2,3
 755 -46 755 -46 554 -46 c 2,4,-1
 539 -46 l 2,5,6
 539 -46 539 -46 538 -46 c 0,7,8
 322 -40 322 -40 185.5 108 c 128,-1,9
 49 256 49 256 49 466 c 2,10,-1
 49 475 l 1,11,12
 52 802 52 802 193 1033 c 0,13,14
 334 1264 334 1264 586 1437 c 0,15,16
 614 1456 614 1456 629 1463.5 c 128,-1,17
 644 1471 644 1471 681 1471 c 2,18,-1
 750 1470 l 2,19,20
 783 1470 783 1470 796 1465 c 0,21,22
 802 1463 802 1463 807.5 1457.5 c 128,-1,23
 813 1452 813 1452 813 1442 c 0,24,25
 813 1424 813 1424 787 1411 c 0,26,27
 621 1296 621 1296 514 1184 c 0,28,29
 425 1091 425 1091 349 959 c 1,30,31
 430 991 430 991 526 991 c 0,32,33
 559 991 559 991 594 987 c 0,34,35
 766 968 766 968 878 865 c 0,36,37
 1048 709 1048 709 1050 484 c 1,38,-1
 1050 481 l 2,0,1
340 757 m 0,39,40
 256 631 256 631 256 459 c 128,-1,41
 256 287 256 287 339 173 c 0,42,43
 420 63 420 63 526 63 c 2,44,-1
 538 63 l 1,45,46
 652 69 652 69 733 192 c 0,47,48
 818 318 818 318 818 490.5 c 128,-1,49
 818 663 818 663 735 777 c 0,50,51
 654 887 654 887 548 887 c 2,52,-1
 537 887 l 1,53,54
 422 880 422 880 340 757 c 0,39,40
EndSplineSet
Validated: 1
Substitution2: "'ordn' Ordinals in Latin lookup 6 subtable" uni2076
Substitution2: "'smcp' Lowercase to Small Capitals in Latin lookup 5 subtable" uni2086
EndChar

StartChar: seven
Encoding: 55 55 26
Width: 1100
GlyphClass: 2
Flags: W
LayerCount: 2
Fore
SplineSet
158 -20 m 2,0,1
 150 -20 150 -20 144.5 -14.5 c 128,-1,2
 139 -9 139 -9 138 -3 c 0,3,4
 136 13 136 13 136 25 c 0,5,6
 136 75 136 75 160 131 c 0,7,8
 187 195 187 195 210 241 c 0,9,10
 284 386 284 386 507 766 c 2,11,-1
 715 1122 l 1,12,-1
 767 1210 l 1,13,-1
 404 1210 l 2,14,15
 278 1210 278 1210 173 1170 c 0,16,17
 169 1168 169 1168 165 1169 c 0,18,19
 158 1169 158 1169 152 1175 c 0,20,21
 146 1181 146 1181 146 1189 c 2,22,-1
 146 1363 l 2,23,24
 146 1374 146 1374 155 1380 c 0,25,26
 209 1415 209 1415 282 1420 c 0,27,28
 347 1425 347 1425 404 1425 c 2,29,-1
 898 1425 l 2,30,31
 930 1425 930 1425 943 1421 c 0,32,33
 960 1415 960 1415 963 1392 c 0,34,35
 964 1383 964 1383 964 1373 c 128,-1,36
 964 1363 964 1363 964 1358 c 0,37,38
 963 1287 963 1287 932 1221 c 0,39,40
 806 967 806 967 670 690 c 128,-1,41
 534 413 534 413 468 278.5 c 128,-1,42
 402 144 402 144 402 144 c 0,43,44
 365 72 365 72 347 -4 c 0,45,46
 346 -10 346 -10 341 -15 c 128,-1,47
 336 -20 336 -20 328 -20 c 2,48,-1
 158 -20 l 2,0,1
EndSplineSet
Validated: 1
Substitution2: "'ordn' Ordinals in Latin lookup 6 subtable" uni2077
Substitution2: "'smcp' Lowercase to Small Capitals in Latin lookup 5 subtable" uni2087
EndChar

StartChar: eight
Encoding: 56 56 27
Width: 1100
GlyphClass: 2
Flags: W
LayerCount: 2
Fore
SplineSet
564 846 m 0,0,1
 567 846 567 846 570 845 c 0,2,3
 704 846 704 846 747 917 c 0,4,5
 794 994 794 994 794 1103.5 c 128,-1,6
 794 1213 794 1213 738 1290 c 0,7,8
 684 1363 684 1363 563 1363 c 128,-1,9
 442 1363 442 1363 390 1289 c 0,10,11
 336 1212 336 1212 335 1104 c 0,12,13
 335 1100 335 1100 335 1095 c 0,14,15
 336 993 336 993 381 918 c 0,16,17
 425 846 425 846 564 846 c 0,0,1
243 1380 m 0,18,19
 373 1468 373 1468 589 1468 c 128,-1,20
 805 1468 805 1468 914 1363 c 0,21,22
 1018 1261 1018 1261 1018 1100 c 2,23,-1
 1018 1088 l 2,24,25
 1018 1088 1018 1088 1018 1087 c 0,26,27
 1015 955 1015 955 935 875 c 0,28,29
 883 823 883 823 800 795 c 1,30,31
 901 755 901 755 971 678 c 0,32,33
 1070 572 1070 572 1070 374 c 2,34,-1
 1070 372 l 2,35,36
 1070 172 1070 172 922 67 c 0,37,38
 775 -40 775 -40 540 -40 c 2,39,-1
 538 -40 l 2,40,41
 304 -40 304 -40 168 73 c 0,42,43
 30 187 30 187 30 402 c 0,44,45
 31 571 31 571 128 676 c 0,46,47
 203 757 203 757 313 797 c 1,48,49
 240 825 240 825 193 872 c 0,50,51
 108 957 108 957 108 1102 c 0,52,53
 109 1289 109 1289 243 1380 c 0,18,19
558.5 736 m 128,-1,55
 441 736 441 736 359 659 c 0,56,57
 276 582 276 582 276 406 c 2,58,-1
 276 402 l 1,59,60
 278 219 278 219 352 145 c 0,61,62
 423 74 423 74 559 74 c 0,63,64
 696 74 696 74 768 146.5 c 128,-1,65
 840 219 840 219 840 405 c 0,66,67
 839 591 839 591 757.5 663.5 c 128,-1,54
 676 736 676 736 558.5 736 c 128,-1,55
335 1095 m 1,68,-1
 335 1095 l 1,69,70
 335 1095 335 1095 335 1095 c 1,68,-1
276 402 m 1,71,-1
 276 402 l 1,72,73
 276 402 276 402 276 402 c 1,71,-1
EndSplineSet
Validated: 1
Substitution2: "'ordn' Ordinals in Latin lookup 6 subtable" uni2078
Substitution2: "'smcp' Lowercase to Small Capitals in Latin lookup 5 subtable" uni2088
EndChar

StartChar: nine
Encoding: 57 57 28
Width: 1100
GlyphClass: 2
Flags: W
LayerCount: 2
Fore
SplineSet
49 944 m 2,0,1
 49 1165 49 1165 196 1317 c 0,2,3
 344 1471 344 1471 545 1471 c 2,4,-1
 560 1471 l 2,5,6
 560 1471 560 1471 561 1471 c 0,7,8
 777 1465 777 1465 913.5 1317 c 128,-1,9
 1050 1169 1050 1169 1050 959 c 2,10,-1
 1050 950 l 1,11,12
 1047 623 1047 623 906 392 c 128,-1,13
 765 161 765 161 513 -12 c 0,14,15
 485 -31 485 -31 470 -38.5 c 128,-1,16
 455 -46 455 -46 418 -46 c 2,17,-1
 349 -45 l 2,18,19
 316 -45 316 -45 303 -40 c 0,20,21
 297 -38 297 -38 291.5 -32.5 c 128,-1,22
 286 -27 286 -27 286 -17 c 0,23,24
 286 1 286 1 312 14 c 0,25,26
 478 129 478 129 585 241 c 0,27,28
 674 334 674 334 750 466 c 1,29,30
 669 434 669 434 573 434 c 0,31,32
 540 434 540 434 505 438 c 0,33,34
 333 457 333 457 221 560 c 0,35,36
 51 716 51 716 49 941 c 1,37,-1
 49 944 l 2,0,1
759 668 m 0,38,39
 843 794 843 794 843 966 c 128,-1,40
 843 1138 843 1138 760 1252 c 0,41,42
 679 1362 679 1362 573 1362 c 2,43,-1
 561 1362 l 1,44,45
 447 1356 447 1356 366 1233 c 0,46,47
 281 1107 281 1107 281 934.5 c 128,-1,48
 281 762 281 762 364 648 c 0,49,50
 445 538 445 538 551 538 c 2,51,-1
 562 538 l 1,52,53
 677 545 677 545 759 668 c 0,38,39
EndSplineSet
Substitution2: "'ordn' Ordinals in Latin lookup 6 subtable" uni2079
Substitution2: "'smcp' Lowercase to Small Capitals in Latin lookup 5 subtable" uni2089
EndChar

StartChar: colon
Encoding: 58 58 29
Width: 480
GlyphClass: 2
Flags: W
LayerCount: 2
Fore
SplineSet
257 250 m 128,-1,1
 327 250 327 250 360 217 c 0,2,3
 387 190 387 190 387 143 c 2,4,-1
 387 61 l 2,5,6
 387 15 387 15 360 -12 c 0,7,8
 327 -45 327 -45 257 -45 c 128,-1,9
 187 -45 187 -45 154 -12 c 0,10,11
 127 15 127 15 127 61 c 2,12,-1
 127 143 l 2,13,14
 127 190 127 190 154 217 c 0,15,0
 187 250 187 250 257 250 c 128,-1,1
257 968 m 128,-1,17
 327 968 327 968 360 935 c 0,18,19
 387 908 387 908 387 861 c 2,20,-1
 387 779 l 2,21,22
 387 733 387 733 360 706 c 0,23,24
 327 673 327 673 257 673 c 128,-1,25
 187 673 187 673 154 706 c 0,26,27
 127 733 127 733 127 779 c 2,28,-1
 127 861 l 2,29,30
 127 908 127 908 154 935 c 0,31,16
 187 968 187 968 257 968 c 128,-1,17
EndSplineSet
EndChar

StartChar: semicolon
Encoding: 59 59 30
Width: 480
GlyphClass: 2
Flags: W
LayerCount: 2
Fore
SplineSet
232 968 m 128,-1,1
 302 968 302 968 335 935 c 0,2,3
 362 908 362 908 362 861 c 2,4,-1
 362 779 l 2,5,6
 362 733 362 733 335 706 c 0,7,8
 302 673 302 673 232 673 c 128,-1,9
 162 673 162 673 129 706 c 0,10,11
 102 733 102 733 102 779 c 2,12,-1
 102 861 l 2,13,14
 102 908 102 908 129 935 c 0,15,0
 162 968 162 968 232 968 c 128,-1,1
127 61 m 2,16,-1
 127 143 l 2,17,18
 127 190 127 190 154 217 c 0,19,20
 187 250 187 250 257 250 c 128,-1,21
 327 250 327 250 360 217 c 0,22,23
 387 190 387 190 387 143 c 2,24,-1
 387 61 l 2,25,26
 387 60 387 60 387 58 c 0,27,28
 362 -138 362 -138 200 -242 c 0,29,30
 166 -269 166 -269 134 -269 c 0,31,32
 112 -269 112 -269 93 -257 c 0,33,34
 91 -255 91 -255 89 -253 c 0,35,36
 78 -240 78 -240 77 -225 c 0,37,38
 77 -208 77 -208 91 -193 c 0,39,40
 109 -173 109 -173 136 -158 c 0,41,42
 209 -113 209 -113 232 -44 c 1,43,44
 181 -39 181 -39 154 -12 c 128,-1,45
 127 15 127 15 127 61 c 2,16,-1
EndSplineSet
EndChar

StartChar: less
Encoding: 60 60 31
Width: 1100
GlyphClass: 2
Flags: W
LayerCount: 2
Fore
SplineSet
180 679 m 2,0,-1
 798 1283 l 2,1,2
 824 1307 824 1307 848 1307 c 0,3,4
 868 1307 868 1307 884 1291 c 0,5,6
 900 1275 900 1275 916.5 1258 c 128,-1,7
 933 1241 933 1241 934 1240 c 0,8,9
 946 1224 946 1224 946 1202.5 c 128,-1,10
 946 1181 946 1181 923 1156 c 0,11,12
 923 1156 923 1156 385 631 c 1,13,14
 923 107 923 107 923 106 c 0,15,16
 943 83 943 83 946 58 c 0,17,18
 946 56 946 56 946 54 c 0,19,20
 946 37 946 37 933 22 c 0,21,22
 933 22 933 22 884 -27 c 0,23,24
 868 -43 868 -43 848 -43 c 0,25,26
 824 -43 824 -43 798 -19 c 2,27,-1
 170 593 l 2,28,29
 154 609 154 609 154 631 c 128,-1,30
 154 653 154 653 180 679 c 2,0,-1
EndSplineSet
Validated: 1
EndChar

StartChar: equal
Encoding: 61 61 32
Width: 1100
GlyphClass: 2
Flags: W
LayerCount: 2
Fore
SplineSet
200 553 m 2,0,-1
 864 553 l 2,1,2
 894 553 894 553 909 538 c 0,3,4
 921 526 921 526 921 507 c 2,5,-1
 921 454 l 2,6,7
 921 435 921 435 909 423 c 0,8,9
 894 408 894 408 864 408 c 2,10,-1
 200 408 l 2,11,12
 170 408 170 408 155 423 c 0,13,14
 143 435 143 435 143 454 c 2,15,-1
 143 507 l 2,16,17
 143 526 143 526 155 538 c 0,18,19
 170 553 170 553 200 553 c 2,0,-1
200 853 m 2,20,-1
 864 853 l 2,21,22
 894 853 894 853 909 838 c 0,23,24
 921 826 921 826 921 807 c 2,25,-1
 921 754 l 2,26,27
 921 735 921 735 909 723 c 0,28,29
 894 708 894 708 864 708 c 2,30,-1
 200 708 l 2,31,32
 170 708 170 708 155 723 c 0,33,34
 143 735 143 735 143 754 c 2,35,-1
 143 807 l 2,36,37
 143 826 143 826 155 838 c 0,38,39
 170 853 170 853 200 853 c 2,20,-1
EndSplineSet
Substitution2: "'smcp' Lowercase to Small Capitals in Latin lookup 3 subtable" uni208C
Substitution2: "'ordn' Ordinals in Latin lookup 2 subtable" uni207C
EndChar

StartChar: greater
Encoding: 62 62 33
Width: 1100
GlyphClass: 2
Flags: W
LayerCount: 2
Fore
SplineSet
920 585 m 2
 302 -19 l 2
 276 -43 276 -43 252 -43 c 0
 232 -43 232 -43 216 -27 c 0
 200 -11 200 -11 184 6 c 0
 168 23 168 23 166 24 c 0
 154 40 154 40 154 62 c 0
 154 84 154 84 177 108 c 0
 715 633 l 1
 177 1157 177 1157 177 1158 c 0
 157 1181 157 1181 154 1206 c 0
 154 1208 154 1208 154 1210 c 0
 154 1227 154 1227 167 1242 c 0
 216 1291 l 0
 232 1307 232 1307 252 1307 c 0
 276 1307 276 1307 302 1283 c 2
 930 671 l 2
 946 655 946 655 946 633 c 0
 946 611 946 611 920 585 c 2
EndSplineSet
EndChar

StartChar: question
Encoding: 63 63 34
Width: 784
GlyphClass: 2
Flags: W
LayerCount: 2
Fore
SplineSet
412 381 m 0,0,1
 398 367 398 367 380 367 c 0,2,3
 347 367 347 367 333 410 c 0,4,5
 321 442 321 442 321 497 c 2,6,-1
 321 804 l 2,7,8
 321 814 321 814 329 820 c 0,9,10
 450 906 450 906 494 975 c 128,-1,11
 538 1044 538 1044 538 1138 c 0,12,13
 538 1240 538 1240 498 1290 c 0,14,15
 459 1337 459 1337 378 1337 c 0,16,17
 309 1337 309 1337 278 1295 c 0,18,19
 244 1248 244 1248 235 1122 c 0,20,21
 232 1089 232 1089 206 1073 c 0,22,23
 183 1056 183 1056 143 1056 c 128,-1,24
 103 1056 103 1056 81 1073 c 0,25,26
 79 1074 79 1074 77 1077 c 0,27,28
 58 1096 58 1096 58 1132 c 0,29,30
 58 1274 58 1274 152 1358 c 0,31,32
 245 1440 245 1440 403.5 1440 c 128,-1,33
 562 1440 562 1440 657 1360 c 0,34,35
 751 1279 751 1279 751 1139 c 0,36,37
 751 964 751 964 574 854 c 0,38,39
 556 843 556 843 532 828 c 0,40,41
 500 807 500 807 484 791.5 c 128,-1,42
 468 776 468 776 462 764 c 0,43,44
 462 763 462 763 461 763 c 0,45,46
 445 736 445 736 443 667 c 0,47,48
 441 581 441 581 439 496 c 0,49,50
 439 440 439 440 428 407 c 0,51,52
 428 406 428 406 427 405 c 0,53,54
 421 390 421 390 412 381 c 0,0,1
376 250 m 128,-1,56
 446 250 446 250 479 217 c 0,57,58
 506 190 506 190 506 143 c 2,59,-1
 506 61 l 2,60,61
 506 15 506 15 479 -12 c 0,62,63
 446 -45 446 -45 376 -45 c 128,-1,64
 306 -45 306 -45 273 -12 c 0,65,66
 246 15 246 15 246 61 c 2,67,-1
 246 143 l 2,68,69
 246 190 246 190 273 217 c 0,70,55
 306 250 306 250 376 250 c 128,-1,56
EndSplineSet
Validated: 1
EndChar

StartChar: at
Encoding: 64 64 35
Width: 2119
GlyphClass: 2
Flags: W
LayerCount: 2
Fore
SplineSet
1860 168 m 0,0,1
 1808 100 1808 100 1739 42 c 128,-1,2
 1670 -16 1670 -16 1589 -49 c 0,3,4
 1495 -89 1495 -89 1403 -89 c 0,5,6
 1334 -89 1334 -89 1267 -66 c 0,7,8
 1157 -28 1157 -28 1157 87 c 1,9,-1
 1157 61 l 1,10,-1
 883 -32 l 2,11,12
 846 -45 846 -45 819 -45 c 2,13,-1
 777 -45 l 1,14,15
 621 -37 621 -37 538 81 c 0,16,17
 474 171 474 171 474 300 c 0,18,19
 474 414 474 414 520 529 c 128,-1,20
 566 644 566 644 633 722 c 0,21,22
 672 769 672 769 750 819 c 0,23,24
 776 835 776 835 810 848 c 0,25,26
 897 878 897 878 984.5 908 c 128,-1,27
 1072 938 1072 938 1161 968 c 0,28,29
 1183 976 1183 976 1204 976 c 2,30,-1
 1210 976 l 2,31,32
 1278 973 1278 973 1365 942 c 0,33,34
 1375 939 1375 939 1379 937 c 0,35,36
 1396 929 1396 929 1425 918 c 0,37,38
 1432 916 1432 916 1437 916 c 0,39,40
 1444 916 1444 916 1451 920 c 0,41,42
 1475 937 1475 937 1484 946 c 0,43,44
 1497 962 1497 962 1519 962 c 0,45,46
 1529 962 1529 962 1539 958 c 0,47,48
 1571 944 1571 944 1571 922 c 2,49,-1
 1571 918 l 1,50,-1
 1404 196 l 2,51,52
 1395 157 1395 157 1395 128 c 0,53,54
 1395 55 1395 55 1450 41 c 0,55,56
 1464 37 1464 37 1479 37 c 0,57,58
 1511 37 1511 37 1550 53 c 0,59,60
 1614 77 1614 77 1665 125 c 0,61,62
 1752 204 1752 204 1810 356 c 0,63,64
 1869 511 1869 511 1869 699 c 0,65,66
 1869 1034 1869 1034 1667 1190 c 0,67,68
 1460 1350 1460 1350 1166 1350 c 0,69,70
 946 1350 946 1350 732 1240 c 0,71,72
 517 1131 517 1131 383 904 c 0,73,74
 247 677 247 677 247 387 c 0,75,76
 247 162 247 162 337 -22 c 0,77,78
 426 -202 426 -202 598 -304 c 0,79,80
 766 -404 766 -404 1005 -404 c 0,81,82
 1207 -404 1207 -404 1387 -333 c 0,83,84
 1551 -268 1551 -268 1677 -163 c 0,85,86
 1688 -152 1688 -152 1705 -152 c 0,87,88
 1723 -152 1723 -152 1736 -165 c 0,89,90
 1750 -179 1750 -179 1750 -196 c 0,91,92
 1750 -209 1750 -209 1743 -222 c 0,93,94
 1731 -249 1731 -249 1714 -265 c 0,95,96
 1563 -405 1563 -405 1370.5 -466 c 128,-1,97
 1178 -527 1178 -527 960 -527 c 0,98,99
 548 -527 548 -527 285 -267 c 0,100,101
 23 -9 23 -9 23 388 c 0,102,103
 23 839 23 839 350 1151 c 0,104,105
 679 1462 679 1462 1157 1462 c 0,106,107
 1541 1462 1541 1462 1793 1254 c 0,108,109
 2044 1044 2044 1044 2044 702 c 0,110,111
 2044 408 2044 408 1860 168 c 0,0,1
1165 159 m 1,112,-1
 1304 765 l 1,113,114
 1280 793 1280 793 1225.5 822.5 c 128,-1,115
 1171 852 1171 852 1126 854 c 2,116,-1
 1123 854 l 2,117,118
 1108 854 1108 854 1092 848 c 0,119,120
 1052 835 1052 835 1013 821.5 c 128,-1,121
 974 808 974 808 935 795 c 0,122,123
 914 787 914 787 898 773 c 0,124,125
 825 710 825 710 782.5 619 c 128,-1,126
 740 528 740 528 727 439 c 0,127,128
 719 393 719 393 719 352 c 0,129,130
 719 271 719 271 749 214 c 0,131,132
 792 130 792 130 874 105 c 0,133,134
 907 95 907 95 941 95 c 0,135,136
 952 95 952 95 964 96 c 0,137,138
 983 98 983 98 1013 108 c 0,139,140
 1035 115 1035 115 1088 133 c 128,-1,141
 1141 151 1141 151 1165 159 c 1,112,-1
EndSplineSet
Validated: 1
EndChar

StartChar: A
Encoding: 65 65 36
Width: 1593
GlyphClass: 2
Flags: W
LayerCount: 2
Fore
SplineSet
1566 13 m 0,0,1
 1566 5 1566 5 1562.5 -1.5 c 128,-1,2
 1559 -8 1559 -8 1556 -11 c 0,3,4
 1547 -20 1547 -20 1532 -20 c 2,5,-1
 1194 -20 l 2,6,7
 1179 -20 1179 -20 1164 -10 c 0,8,9
 1149 0 1149 0 1145.5 10 c 128,-1,10
 1142 20 1142 20 1142 29 c 0,11,12
 1142 45 1142 45 1159 60 c 0,13,14
 1170 70 1170 70 1178 76.5 c 128,-1,15
 1186 83 1186 83 1190 86 c 0,16,17
 1198 94 1198 94 1198 114 c 0,18,19
 1198 125 1198 125 1192 139 c 0,20,21
 1121 304 1121 304 1049 469 c 1,22,-1
 492 469 l 1,23,24
 385 212 385 212 370.5 177.5 c 128,-1,25
 356 143 356 143 350 127 c 2,26,-1
 346 114 l 1,27,28
 345 103 345 103 345 96 c 0,29,30
 345 79 345 79 354 68 c 128,-1,31
 363 57 363 57 366 45 c 128,-1,32
 369 33 369 33 369 27 c 128,-1,33
 369 21 369 21 366 13 c 0,34,35
 361 -1 361 -1 353 -9 c 0,36,37
 342 -20 342 -20 325 -20 c 2,38,-1
 67 -20 l 2,39,40
 50 -20 50 -20 40.5 -10.5 c 128,-1,41
 31 -1 31 -1 31 13 c 0,42,43
 31 50 31 50 78 70 c 0,44,45
 107 83 107 83 145 100 c 1,46,47
 177 123 177 123 191 154 c 2,48,-1
 758 1435 l 2,49,50
 760 1438 760 1438 762 1441 c 0,51,52
 768 1447 768 1447 776 1447 c 2,53,-1
 838 1447 l 2,54,55
 846 1447 846 1447 852 1441 c 0,56,57
 855 1438 855 1438 856 1435 c 2,58,-1
 980 1146 l 1,59,-1
 1284 442 l 2,60,61
 1409 154 1409 154 1409 154 c 0,62,63
 1422 123 1422 123 1450 103 c 0,64,65
 1482 81 1482 81 1504 72 c 0,66,67
 1540 56 1540 56 1553 42.5 c 128,-1,68
 1566 29 1566 29 1566 13 c 0,0,1
542 590 m 1,69,-1
 997 590 l 1,70,-1
 766 1128 l 1,71,-1
 657 866 l 1,72,-1
 542 590 l 1,69,-1
EndSplineSet
Validated: 1
Substitution2: "'sups' Superscript in Latin lookup 7 subtable" uni1D00
EndChar

StartChar: B
Encoding: 66 66 37
Width: 1240
GlyphClass: 2
Flags: W
LayerCount: 2
Fore
SplineSet
704 1425 m 2,0,1
 805 1425 805 1425 915 1389 c 0,2,3
 1029 1352 1029 1352 1089 1245 c 0,4,5
 1138 1160 1138 1160 1138 1041 c 0,6,7
 1136 927 1136 927 1072 838 c 0,8,9
 1036 786 1036 786 972 748 c 1,10,11
 1089 698 1089 698 1148 596 c 0,12,13
 1201 502 1201 502 1201 372 c 0,14,15
 1199 246 1199 246 1129 149 c 0,16,17
 1068 63 1068 63 960 21.5 c 128,-1,18
 852 -20 852 -20 761 -20 c 2,19,-1
 134 -20 l 2,20,21
 115 -20 115 -20 104 -9 c 128,-1,22
 93 2 93 2 93 21 c 0,23,24
 93 60 93 60 156 83 c 0,25,26
 168 87 168 87 177 95 c 0,27,28
 193 111 193 111 193 146 c 2,29,-1
 193 1258 l 2,30,31
 193 1291 193 1291 177 1308 c 0,32,33
 169 1316 169 1316 156 1320 c 0,34,35
 93 1343 93 1343 93 1383 c 0,36,37
 93 1403 93 1403 104 1414 c 128,-1,38
 115 1425 115 1425 134 1425 c 2,39,-1
 704 1425 l 2,0,1
413 1305 m 1,40,-1
 413 794 l 1,41,-1
 668 794 l 1,42,43
 779 806 779 806 845 870 c 0,44,45
 914 937 914 937 914 1050 c 0,46,47
 914 1159 914 1159 841 1230 c 0,48,49
 762 1305 762 1305 629 1305 c 2,50,-1
 413 1305 l 1,40,-1
881 183 m 0,51,52
 958 258 958 258 958 380 c 0,53,54
 958 503 958 503 877 583 c 0,55,56
 789 667 789 667 640 667 c 2,57,-1
 413 667 l 1,58,-1
 413 93 l 1,59,-1
 619 93 l 2,60,61
 689 93 689 93 760 113.5 c 128,-1,62
 831 134 831 134 881 183 c 0,51,52
EndSplineSet
Validated: 1
Substitution2: "'sups' Superscript in Latin lookup 7 subtable" uni0299
EndChar

StartChar: C
Encoding: 67 67 38
Width: 1405
GlyphClass: 2
Flags: W
LayerCount: 2
Fore
SplineSet
848 -57 m 0,0,1
 534 -57 534 -57 291 144 c 0,2,3
 47 346 47 346 47 701 c 0,4,5
 47 1047 47 1047 283.5 1256 c 128,-1,6
 520 1465 520 1465 848 1465 c 0,7,8
 965 1465 965 1465 1097.5 1439 c 128,-1,9
 1230 1413 1230 1413 1350 1336 c 0,10,11
 1359 1330 1359 1330 1359 1319 c 0,12,13
 1359 1318 1359 1318 1347 1212 c 128,-1,14
 1335 1106 1335 1106 1335 1105 c 0,15,16
 1332 1091 1332 1091 1322 1081 c 128,-1,17
 1312 1071 1312 1071 1295 1071 c 2,18,-1
 1292 1071 l 2,19,20
 1279 1071 1279 1071 1268 1081.5 c 128,-1,21
 1257 1092 1257 1092 1248 1110 c 0,22,23
 1248 1110 1248 1110 1248 1111 c 0,24,25
 1193 1230 1193 1230 1083 1285 c 0,26,27
 979 1336 979 1336 862 1336 c 2,28,-1
 841 1336 l 1,29,30
 581 1324 581 1324 435 1128 c 0,31,32
 302 950 302 950 302 735 c 0,33,34
 302 711 302 711 303 698.5 c 128,-1,35
 304 686 304 686 304 686 c 0,36,37
 318 462 318 462 462 278 c 0,38,39
 604 96 604 96 849 85 c 0,40,41
 873 84 873 84 894 84 c 0,42,43
 1018 84 1018 84 1096 121 c 0,44,45
 1186 164 1186 164 1248 296 c 0,46,47
 1266 336 1266 336 1298 336 c 0,48,49
 1317 336 1317 336 1329.5 323.5 c 128,-1,50
 1342 311 1342 311 1342 292 c 0,51,52
 1342 280 1342 280 1337 267 c 2,53,-1
 1250 24 l 2,54,55
 1247 16 1247 16 1239 13 c 0,56,57
 1141 -28 1141 -28 1039.5 -42.5 c 128,-1,58
 938 -57 938 -57 848 -57 c 0,0,1
1337 267 m 1,59,60
 1337 267 1337 267 1337 267 c 1,61,-1
 1337 267 l 1,59,60
EndSplineSet
Validated: 1
Substitution2: "'sups' Superscript in Latin lookup 7 subtable" uni1D04
EndChar

StartChar: D
Encoding: 68 68 39
Width: 1585
GlyphClass: 2
Flags: W
LayerCount: 2
Fore
SplineSet
1525 792 m 0,0,1
 1527 758 1527 758 1527 727 c 0,2,3
 1527 558 1527 558 1464 422 c 0,4,5
 1388 260 1388 260 1252 155 c 0,6,7
 1021 -23 1021 -23 689 -27 c 1,8,-1
 609 -27 l 2,9,10
 551 -27 551 -27 500 -26 c 2,11,-1
 383 -26 l 2,12,13
 299 -26 299 -26 256 -23 c 2,14,-1
 233 -23 l 2,15,16
 194 -23 194 -23 130 -29 c 1,17,18
 83 -29 83 -29 83 13 c 0,19,20
 83 51 83 51 133 69 c 128,-1,21
 183 87 183 87 183 139 c 2,22,-1
 183 1262 l 2,23,24
 183 1313 183 1313 133 1330.5 c 128,-1,25
 83 1348 83 1348 83 1387 c 0,26,27
 83 1428 83 1428 129 1428 c 0,28,29
 171 1427 171 1427 214 1427 c 0,30,31
 256 1427 256 1427 299 1428 c 0,32,33
 385 1431 385 1431 468 1433 c 2,34,-1
 527 1433 l 2,35,36
 681 1433 681 1433 837 1425 c 0,37,38
 1025 1414 1025 1414 1177 1349 c 0,39,40
 1321 1285 1321 1285 1415.5 1154 c 128,-1,41
 1510 1023 1510 1023 1525 792 c 0,0,1
424 1297 m 1,42,-1
 424 116 l 1,43,44
 526 97 526 97 637 97 c 0,45,46
 680 97 680 97 721 100 c 0,47,48
 868 111 868 111 981 171 c 0,49,50
 1115 241 1115 241 1193 388 c 0,51,52
 1265 524 1265 524 1265 736 c 2,53,-1
 1265 769 l 1,54,55
 1261 927 1261 927 1209.5 1033 c 128,-1,56
 1158 1139 1158 1139 1074 1201 c 0,57,58
 951 1293 951 1293 775 1309 c 0,59,60
 714 1314 714 1314 651 1314 c 0,61,62
 530 1314 530 1314 424 1297 c 1,42,-1
EndSplineSet
Validated: 1
Substitution2: "'sups' Superscript in Latin lookup 7 subtable" uni1D05
EndChar

StartChar: E
Encoding: 69 69 40
Width: 1251
GlyphClass: 2
Flags: W
LayerCount: 2
Fore
SplineSet
456 657 m 1,0,-1
 456 114 l 1,1,-1
 863 114 l 2,2,3
 947 114 947 114 1006 179 c 0,4,5
 1070 250 1070 250 1103 290 c 0,6,7
 1118 308 1118 308 1128 313.5 c 128,-1,8
 1138 319 1138 319 1146 319 c 0,9,10
 1165 319 1165 319 1176 308 c 128,-1,11
 1187 297 1187 297 1187 280 c 128,-1,12
 1187 263 1187 263 1184 252 c 2,13,-1
 1111 -5 l 2,14,15
 1110 -10 1110 -10 1105 -15 c 128,-1,16
 1100 -20 1100 -20 1092 -20 c 2,17,-1
 173 -20 l 2,18,19
 156 -20 156 -20 145.5 -9.5 c 128,-1,20
 135 1 135 1 135 21 c 0,21,22
 135 60 135 60 198 82 c 0,23,24
 210 86 210 86 219 95 c 0,25,26
 235 111 235 111 235 146 c 2,27,-1
 235 1257 l 2,28,29
 235 1292 235 1292 219 1308 c 0,30,31
 211 1316 211 1316 198 1321 c 0,32,33
 135 1343 135 1343 135 1383 c 0,34,35
 135 1403 135 1403 146 1414 c 128,-1,36
 157 1425 157 1425 176 1425 c 2,37,-1
 1104 1425 l 2,38,39
 1112 1425 1112 1425 1118 1419 c 128,-1,40
 1124 1413 1124 1413 1124 1405 c 2,41,-1
 1124 1147 l 2,42,43
 1124 1128 1124 1128 1113 1117 c 128,-1,44
 1102 1106 1102 1106 1083 1106 c 0,45,46
 1070 1106 1070 1106 1058 1118.5 c 128,-1,47
 1046 1131 1046 1131 1030 1155 c 0,48,49
 977 1228 977 1228 944 1261 c 0,50,51
 914 1291 914 1291 863 1291 c 2,52,-1
 456 1291 l 1,53,-1
 456 788 l 1,54,-1
 665 788 l 2,55,56
 700 788 700 788 717 805 c 0,57,58
 725 813 725 813 730 827 c 0,59,60
 755 891 755 891 795 891 c 0,61,62
 813 891 813 891 824 880 c 128,-1,63
 835 869 835 869 835 850 c 2,64,-1
 835 596 l 2,65,66
 835 577 835 577 824 566 c 128,-1,67
 813 555 813 555 794 555 c 0,68,69
 756 555 756 555 728 618 c 0,70,71
 722 630 722 630 714 638 c 0,72,73
 695 657 695 657 659 657 c 2,74,-1
 456 657 l 1,0,-1
EndSplineSet
Validated: 1
Substitution2: "'sups' Superscript in Latin lookup 7 subtable" uni1D07
EndChar

StartChar: F
Encoding: 70 70 41
Width: 1139
GlyphClass: 2
Flags: W
LayerCount: 2
Fore
SplineSet
174 -20 m 2,0,1
 130 -20 130 -20 130 21 c 0,2,3
 130 43 130 43 161 62 c 0,4,5
 175 72 175 72 193.5 83.5 c 128,-1,6
 212 95 212 95 222 112 c 0,7,8
 230 128 230 128 230 146 c 2,9,-1
 230 1257 l 2,10,11
 230 1309 230 1309 180 1326.5 c 128,-1,12
 130 1344 130 1344 130 1383 c 0,13,14
 130 1424 130 1424 176 1424 c 2,15,-1
 1129 1424 l 1,16,-1
 1129 1147 l 2,17,18
 1129 1106 1129 1106 1083 1106 c 0,19,20
 1058 1106 1058 1106 1024 1156 c 0,21,22
 975 1224 975 1224 943 1257.5 c 128,-1,23
 911 1291 911 1291 863 1291 c 2,24,-1
 461 1291 l 1,25,-1
 461 788 l 1,26,-1
 665 788 l 2,27,28
 694 788 694 788 718 816 c 0,29,30
 735 836 735 836 748.5 863.5 c 128,-1,31
 762 891 762 891 795 891 c 0,32,33
 840 891 840 891 840 850 c 2,34,-1
 840 596 l 2,35,36
 840 555 840 555 795 555 c 0,37,38
 760 555 760 555 745 586 c 128,-1,39
 730 617 730 617 711 638 c 0,40,41
 691 658 691 658 665 658 c 2,42,-1
 461 658 l 1,43,-1
 461 146 l 2,44,45
 461 122 461 122 471 106 c 0,46,47
 481 92 481 92 496.5 82 c 128,-1,48
 512 72 512 72 527 63 c 0,49,50
 560 43 560 43 560 21 c 0,51,52
 560 13 560 13 558 5 c 0,53,54
 543 -20 543 -20 515 -20 c 2,55,-1
 174 -20 l 2,0,1
EndSplineSet
Validated: 1
Substitution2: "'sups' Superscript in Latin lookup 7 subtable" uniA730
EndChar

StartChar: G
Encoding: 71 71 42
Width: 1563
GlyphClass: 2
Flags: W
LayerCount: 2
Fore
SplineSet
848 -57 m 0,0,1
 534 -57 534 -57 291 144 c 0,2,3
 47 346 47 346 47 701 c 0,4,5
 47 1047 47 1047 283.5 1256 c 128,-1,6
 520 1465 520 1465 848 1465 c 0,7,8
 965 1465 965 1465 1097.5 1439 c 128,-1,9
 1230 1413 1230 1413 1350 1336 c 0,10,11
 1359 1330 1359 1330 1359 1319 c 0,12,13
 1359 1318 1359 1318 1347 1212 c 128,-1,14
 1335 1106 1335 1106 1335 1105 c 0,15,16
 1332 1091 1332 1091 1322 1081 c 128,-1,17
 1312 1071 1312 1071 1295 1071 c 2,18,-1
 1292 1071 l 2,19,20
 1279 1071 1279 1071 1268 1082 c 0,21,22
 1256 1094 1256 1094 1248 1111 c 0,23,24
 1186 1244 1186 1244 1096 1286 c 0,25,26
 1004 1330 1004 1330 848 1330 c 0,27,28
 633 1330 633 1330 464 1180 c 0,29,30
 297 1031 297 1031 297 701 c 0,31,32
 297 490 297 490 455 292 c 0,33,34
 612 96 612 96 849 85 c 0,35,36
 873 84 873 84 894 84 c 0,37,38
 1004 84 1004 84 1079 113 c 0,39,40
 1164 146 1164 146 1222 245 c 1,41,-1
 1222 427 l 1,42,43
 1220 447 1220 447 1200 458 c 0,44,45
 1174 472 1174 472 1123 493 c 0,46,47
 1089 507 1089 507 1074 522 c 128,-1,48
 1059 537 1059 537 1059 555 c 128,-1,49
 1059 573 1059 573 1070 584 c 128,-1,50
 1081 595 1081 595 1100 595 c 2,51,-1
 1501 595 l 2,52,53
 1520 595 1520 595 1531 584 c 128,-1,54
 1542 573 1542 573 1542 553 c 0,55,56
 1542 514 1542 514 1479 491 c 0,57,58
 1467 487 1467 487 1458 479 c 0,59,60
 1442 463 1442 463 1442 428 c 2,61,-1
 1442 39 l 2,62,63
 1442 31 1442 31 1436.5 25 c 128,-1,64
 1431 19 1431 19 1423 19 c 0,65,66
 1271 12 1271 12 1130 -23 c 0,67,68
 1057 -42 1057 -42 985.5 -49.5 c 128,-1,69
 914 -57 914 -57 848 -57 c 0,0,1
EndSplineSet
Validated: 1
Substitution2: "'sups' Superscript in Latin lookup 7 subtable" uni0262
EndChar

StartChar: H
Encoding: 72 72 43
Width: 1638
GlyphClass: 2
Flags: W
LayerCount: 2
Fore
SplineSet
1482 1256 m 2,0,-1
 1482 147 l 2,1,2
 1482 111 1482 111 1499 94 c 0,3,4
 1507 86 1507 86 1519 82 c 0,5,6
 1582 60 1582 60 1582 21 c 0,7,8
 1582 2 1582 2 1571 -9 c 128,-1,9
 1560 -20 1560 -20 1541 -20 c 2,10,-1
 1202 -20 l 2,11,12
 1184 -20 1184 -20 1173 -9 c 128,-1,13
 1162 2 1162 2 1162 21 c 0,14,15
 1162 60 1162 60 1225 82 c 0,16,17
 1237 86 1237 86 1246 95 c 0,18,19
 1262 111 1262 111 1262 146 c 2,20,-1
 1262 680 l 1,21,-1
 455 680 l 1,22,-1
 455 147 l 2,23,24
 455 111 455 111 472 94 c 0,25,26
 480 86 480 86 492 82 c 0,27,28
 555 60 555 60 555 21 c 0,29,30
 555 2 555 2 544 -9 c 128,-1,31
 533 -20 533 -20 514 -20 c 2,32,-1
 175 -20 l 2,33,34
 157 -20 157 -20 146 -9 c 128,-1,35
 135 2 135 2 135 21 c 0,36,37
 135 60 135 60 198 82 c 0,38,39
 210 86 210 86 219 95 c 0,40,41
 235 111 235 111 235 146 c 2,42,-1
 235 1256 l 2,43,44
 235 1291 235 1291 219 1307 c 0,45,46
 211 1315 211 1315 198 1320 c 0,47,48
 135 1342 135 1342 135 1382 c 0,49,50
 135 1402 135 1402 146 1413 c 128,-1,51
 157 1424 157 1424 176 1424 c 2,52,-1
 514 1424 l 2,53,54
 533 1424 533 1424 544 1413 c 128,-1,55
 555 1402 555 1402 555 1382 c 0,56,57
 555 1342 555 1342 492 1320 c 0,58,59
 480 1316 480 1316 471 1307 c 0,60,61
 455 1291 455 1291 455 1256 c 2,62,-1
 455 807 l 1,63,-1
 1262 807 l 1,64,-1
 1262 1256 l 2,65,66
 1262 1291 1262 1291 1246 1307 c 0,67,68
 1238 1315 1238 1315 1225 1320 c 0,69,70
 1162 1342 1162 1342 1162 1382 c 0,71,72
 1162 1402 1162 1402 1173 1413 c 128,-1,73
 1184 1424 1184 1424 1203 1424 c 2,74,-1
 1541 1424 l 2,75,76
 1560 1424 1560 1424 1571 1413 c 128,-1,77
 1582 1402 1582 1402 1582 1382 c 0,78,79
 1582 1342 1582 1342 1519 1320 c 0,80,81
 1507 1316 1507 1316 1498 1307 c 0,82,83
 1482 1291 1482 1291 1482 1256 c 2,0,-1
EndSplineSet
Substitution2: "'sups' Superscript in Latin lookup 7 subtable" uni029C
EndChar

StartChar: I
Encoding: 73 73 44
Width: 690
GlyphClass: 2
Flags: W
LayerCount: 2
Fore
SplineSet
455 1256 m 2,0,-1
 455 147 l 2,1,2
 455 111 455 111 472 94 c 0,3,4
 480 86 480 86 492 82 c 0,5,6
 555 60 555 60 555 21 c 0,7,8
 555 2 555 2 544 -9 c 128,-1,9
 533 -20 533 -20 514 -20 c 2,10,-1
 175 -20 l 2,11,12
 157 -20 157 -20 146 -9 c 128,-1,13
 135 2 135 2 135 21 c 0,14,15
 135 60 135 60 198 82 c 0,16,17
 210 86 210 86 219 95 c 0,18,19
 235 111 235 111 235 146 c 2,20,-1
 235 1256 l 2,21,22
 235 1291 235 1291 219 1307 c 0,23,24
 211 1315 211 1315 198 1320 c 0,25,26
 135 1342 135 1342 135 1382 c 0,27,28
 135 1402 135 1402 146 1413 c 128,-1,29
 157 1424 157 1424 176 1424 c 2,30,-1
 514 1424 l 2,31,32
 533 1424 533 1424 544 1413 c 128,-1,33
 555 1402 555 1402 555 1382 c 0,34,35
 555 1342 555 1342 492 1320 c 0,36,37
 480 1316 480 1316 471 1307 c 0,38,39
 455 1291 455 1291 455 1256 c 2,0,-1
EndSplineSet
Validated: 1
Substitution2: "'sups' Superscript in Latin lookup 7 subtable" uni026A
EndChar

StartChar: J
Encoding: 74 74 45
Width: 682
GlyphClass: 2
Flags: W
LayerCount: 2
Fore
SplineSet
450 180 m 2,0,1
 450 -20 450 -20 422 -119 c 0,2,3
 393 -223 393 -223 322 -295 c 0,4,5
 230 -387 230 -387 115 -418 c 0,6,7
 112 -419 112 -419 109 -419 c 0,8,9
 101 -419 101 -419 95.5 -413 c 128,-1,10
 90 -407 90 -407 90 -399 c 2,11,-1
 90 -349 l 2,12,13
 90 -338 90 -338 100 -332 c 0,14,15
 137 -309 137 -309 168 -275 c 0,16,17
 199 -240 199 -240 217 -183 c 0,18,19
 229 -144 229 -144 229 -74 c 2,20,-1
 229 1258 l 2,21,22
 229 1292 229 1292 213 1309 c 0,23,24
 205 1317 205 1317 192 1321 c 0,25,26
 129 1344 129 1344 129 1384 c 0,27,28
 129 1403 129 1403 140 1414 c 128,-1,29
 151 1425 151 1425 170 1425 c 2,30,-1
 509 1425 l 2,31,32
 528 1425 528 1425 539 1414 c 128,-1,33
 550 1403 550 1403 550 1383 c 0,34,35
 550 1344 550 1344 487 1321 c 0,36,37
 475 1317 475 1317 466 1309 c 0,38,39
 450 1293 450 1293 450 1258 c 2,40,-1
 450 180 l 2,0,1
EndSplineSet
Validated: 1
Substitution2: "'sups' Superscript in Latin lookup 7 subtable" uni1D0A
EndChar

StartChar: K
Encoding: 75 75 46
Width: 1487
GlyphClass: 2
Flags: W
LayerCount: 2
Fore
SplineSet
1153 1425 m 0,0,1
 1181 1425 1181 1425 1207 1412 c 0,2,3
 1314 1360 1314 1360 1314 1359 c 0,4,5
 1341 1343 1341 1343 1341 1322 c 0,6,7
 1341 1309 1341 1309 1337 1298 c 2,8,-1
 1285 1152 l 2,9,10
 1283 1148 1283 1148 1280 1145 c 0,11,12
 1274 1139 1274 1139 1268.5 1139 c 128,-1,13
 1263 1139 1263 1139 1258 1141 c 2,14,-1
 1189 1170 l 2,15,16
 1155 1184 1155 1184 1116 1184 c 0,17,18
 1082 1184 1082 1184 1048 1151 c 2,19,-1
 660 772 l 1,20,-1
 1397 92 l 2,21,22
 1415 74 1415 74 1432.5 66 c 128,-1,23
 1450 58 1450 58 1458 50 c 0,24,25
 1471 37 1471 37 1471 19.5 c 128,-1,26
 1471 2 1471 2 1460 -9 c 128,-1,27
 1449 -20 1449 -20 1431 -20 c 2,28,-1
 1092 -20 l 2,29,30
 1073 -20 1073 -20 1062 -9 c 128,-1,31
 1051 2 1051 2 1051 21 c 0,32,33
 1051 37 1051 37 1073 57 c 0,34,35
 1077 61 1077 61 1077 64 c 0,36,37
 1077 75 1077 75 1053 96 c 2,38,-1
 723 400 l 1,39,-1
 455 648 l 1,40,-1
 455 147 l 2,41,42
 455 111 455 111 472 94 c 0,43,44
 480 86 480 86 492 82 c 0,45,46
 555 60 555 60 555 21 c 0,47,48
 555 2 555 2 544 -9 c 128,-1,49
 533 -20 533 -20 514 -20 c 2,50,-1
 175 -20 l 2,51,52
 157 -20 157 -20 146 -9 c 128,-1,53
 135 2 135 2 135 21 c 0,54,55
 135 60 135 60 198 82 c 0,56,57
 210 86 210 86 219 95 c 0,58,59
 235 111 235 111 235 146 c 2,60,-1
 235 1256 l 2,61,62
 235 1291 235 1291 219 1307 c 0,63,64
 211 1315 211 1315 198 1320 c 0,65,66
 135 1342 135 1342 135 1382 c 0,67,68
 135 1402 135 1402 146 1413 c 128,-1,69
 157 1424 157 1424 176 1424 c 2,70,-1
 514 1424 l 2,71,72
 533 1424 533 1424 544 1413 c 128,-1,73
 555 1402 555 1402 555 1382 c 0,74,75
 555 1342 555 1342 492 1320 c 0,76,77
 480 1316 480 1316 471 1307 c 0,78,79
 455 1291 455 1291 455 1256 c 2,80,-1
 455 793 l 1,81,-1
 944 1256 l 2,82,83
 1038 1345 1038 1345 1067 1374 c 0,84,85
 1094 1401 1094 1401 1115 1413 c 128,-1,86
 1136 1425 1136 1425 1153 1425 c 0,0,1
EndSplineSet
Substitution2: "'sups' Superscript in Latin lookup 7 subtable" uni1D0B
EndChar

StartChar: L
Encoding: 76 76 47
Width: 1251
GlyphClass: 2
Flags: W
LayerCount: 2
Fore
SplineSet
1146 319 m 0,0,1
 1165 319 1165 319 1176 308 c 128,-1,2
 1187 297 1187 297 1187 280 c 128,-1,3
 1187 263 1187 263 1184 252 c 2,4,-1
 1111 -5 l 2,5,6
 1110 -10 1110 -10 1105 -15 c 128,-1,7
 1100 -20 1100 -20 1092 -20 c 2,8,-1
 176 -20 l 2,9,10
 157 -20 157 -20 146 -9 c 128,-1,11
 135 2 135 2 135 21 c 0,12,13
 135 60 135 60 198 82 c 0,14,15
 210 86 210 86 219 95 c 0,16,17
 235 111 235 111 235 146 c 2,18,-1
 235 1257 l 2,19,20
 235 1291 235 1291 219 1308 c 0,21,22
 211 1316 211 1316 198 1320 c 0,23,24
 135 1343 135 1343 135 1383 c 0,25,26
 135 1403 135 1403 146 1414 c 128,-1,27
 157 1425 157 1425 176 1425 c 2,28,-1
 515 1425 l 2,29,30
 533 1425 533 1425 544 1414 c 128,-1,31
 555 1403 555 1403 555 1383 c 0,32,33
 555 1343 555 1343 492 1320 c 0,34,35
 480 1316 480 1316 471 1308 c 0,36,37
 455 1292 455 1292 455 1257 c 2,38,-1
 456 114 l 1,39,-1
 863 114 l 2,40,41
 947 114 947 114 1006 179 c 0,42,43
 1070 250 1070 250 1103 290 c 0,44,45
 1118 308 1118 308 1128 313.5 c 128,-1,46
 1138 319 1138 319 1146 319 c 0,0,1
EndSplineSet
Validated: 1
Substitution2: "'sups' Superscript in Latin lookup 7 subtable" uni029F
EndChar

StartChar: M
Encoding: 77 77 48
Width: 1908
GlyphClass: 2
Flags: W
LayerCount: 2
Fore
SplineSet
1717 1257 m 2,0,-1
 1717 146 l 2,1,2
 1717 111 1717 111 1733 95 c 0,3,4
 1741 87 1741 87 1754 82 c 0,5,6
 1818 60 1818 60 1818 21 c 0,7,8
 1818 2 1818 2 1807 -9 c 128,-1,9
 1796 -20 1796 -20 1777 -20 c 2,10,-1
 1438 -20 l 2,11,12
 1419 -20 1419 -20 1408 -9 c 128,-1,13
 1397 2 1397 2 1397 21 c 0,14,15
 1397 60 1397 60 1460 82 c 0,16,17
 1472 86 1472 86 1481 95 c 0,18,19
 1497 111 1497 111 1497 146 c 2,20,-1
 1497 1126 l 1,21,-1
 958 -38 l 2,22,23
 957 -41 957 -41 954 -44 c 0,24,25
 948 -50 948 -50 940 -50 c 2,26,-1
 901 -50 l 2,27,28
 893 -50 893 -50 887 -44 c 0,29,30
 885 -42 885 -42 883 -39 c 2,31,-1
 350 1081 l 1,32,-1
 350 146 l 2,33,34
 350 111 350 111 366 95 c 0,35,36
 374 87 374 87 387 82 c 0,37,38
 450 60 450 60 450 21 c 0,39,40
 450 2 450 2 439 -9 c 128,-1,41
 428 -20 428 -20 409 -20 c 2,42,-1
 155 -20 l 2,43,44
 136 -20 136 -20 125 -9 c 128,-1,45
 114 2 114 2 114 21 c 0,46,47
 114 60 114 60 177 82 c 0,48,49
 189 86 189 86 198 95 c 0,50,51
 214 111 214 111 214 146 c 2,52,-1
 214 1257 l 2,53,54
 214 1291 214 1291 198 1308 c 0,55,56
 190 1316 190 1316 177 1320 c 0,57,58
 114 1343 114 1343 114 1383 c 0,59,60
 114 1403 114 1403 125 1414 c 128,-1,61
 136 1425 136 1425 155 1425 c 2,62,-1
 421 1425 l 2,63,64
 429 1425 429 1425 435 1419 c 0,65,66
 437 1417 437 1417 439 1414 c 2,67,-1
 968 328 l 1,68,-1
 1480 1414 l 2,69,70
 1481 1417 1481 1417 1484 1419 c 0,71,72
 1490 1425 1490 1425 1498 1425 c 2,73,-1
 1777 1425 l 2,74,75
 1796 1425 1796 1425 1807 1414 c 128,-1,76
 1818 1403 1818 1403 1818 1383 c 0,77,78
 1818 1343 1818 1343 1754 1320 c 0,79,80
 1741 1315 1741 1315 1733 1308 c 0,81,82
 1717 1291 1717 1291 1717 1257 c 2,0,-1
EndSplineSet
Validated: 1
Substitution2: "'sups' Superscript in Latin lookup 7 subtable" uni1D0D
EndChar

StartChar: N
Encoding: 78 78 49
Width: 1644
GlyphClass: 2
Flags: W
LayerCount: 2
Fore
SplineSet
387 82 m 0,0,1
 450 60 450 60 450 21 c 0,2,3
 450 2 450 2 439 -9 c 128,-1,4
 428 -20 428 -20 409 -20 c 2,5,-1
 155 -20 l 2,6,7
 136 -20 136 -20 125 -9 c 128,-1,8
 114 2 114 2 114 21 c 0,9,10
 114 60 114 60 177 82 c 0,11,12
 189 86 189 86 198 95 c 0,13,14
 214 111 214 111 214 146 c 2,15,-1
 214 1257 l 2,16,17
 214 1291 214 1291 198 1308 c 0,18,19
 190 1316 190 1316 177 1320 c 0,20,21
 114 1343 114 1343 114 1383 c 0,22,23
 114 1403 114 1403 125 1414 c 128,-1,24
 136 1425 136 1425 155 1425 c 2,25,-1
 412 1425 l 2,26,27
 422 1425 422 1425 428 1417 c 2,28,-1
 1349 260 l 1,29,-1
 1349 1257 l 2,30,31
 1349 1292 1349 1292 1333 1308 c 0,32,33
 1325 1316 1325 1316 1313 1320 c 0,34,35
 1250 1343 1250 1343 1250 1383 c 0,36,37
 1250 1403 1250 1403 1261 1414 c 128,-1,38
 1272 1425 1272 1425 1290 1425 c 2,39,-1
 1545 1425 l 2,40,41
 1564 1425 1564 1425 1575 1414 c 128,-1,42
 1586 1403 1586 1403 1586 1383 c 0,43,44
 1586 1343 1586 1343 1523 1320 c 0,45,46
 1511 1316 1511 1316 1502 1308 c 0,47,48
 1486 1292 1486 1292 1486 1257 c 0,49,50
 1485 -43 1485 -43 1485 -43 c 0,51,52
 1485 -51 1485 -51 1479 -57 c 128,-1,53
 1473 -63 1473 -63 1466 -63 c 0,54,55
 1463 -63 1463 -63 1460 -62 c 2,56,-1
 1283 -19 l 2,57,58
 1276 -17 1276 -17 1272 -13 c 2,59,-1
 350 1132 l 1,60,-1
 350 146 l 2,61,62
 350 111 350 111 366 95 c 0,63,64
 375 86 375 86 387 82 c 0,0,1
EndSplineSet
Validated: 1
Substitution2: "'sups' Superscript in Latin lookup 7 subtable" uni0274
EndChar

StartChar: O
Encoding: 79 79 50
Width: 1610
GlyphClass: 2
Flags: W
LayerCount: 2
Fore
SplineSet
818 1466 m 2,0,1
 1149 1466 1149 1466 1376 1263 c 0,2,3
 1590 1072 1590 1072 1590 760 c 0,4,5
 1590 732 1590 732 1588 704 c 0,6,7
 1567 352 1567 352 1343.5 157 c 128,-1,8
 1120 -38 1120 -38 807 -55 c 0,9,10
 783 -56 783 -56 760 -56 c 0,11,12
 474 -56 474 -56 255 141 c 0,13,14
 28 343 28 343 28 669 c 0,15,16
 28 688 28 688 29 706 c 0,17,18
 41 1055 41 1055 255.5 1258.5 c 128,-1,19
 470 1462 470 1462 808 1466 c 1,20,-1
 818 1466 l 2,0,1
277 702 m 128,-1,22
 277 438 277 438 426 252 c 0,23,24
 573 68 573 68 808 66 c 1,25,-1
 813 66 l 2,26,27
 1042 66 1042 66 1190 262 c 0,28,29
 1338 459 1338 459 1338 696 c 0,30,31
 1338 699 1338 699 1338 700.5 c 128,-1,32
 1338 702 1338 702 1338 702 c 0,33,34
 1336 945 1336 945 1211 1144 c 0,35,36
 1089 1338 1089 1338 808 1338 c 0,37,38
 512 1337 512 1337 396 1154 c 0,39,21
 277 966 277 966 277 702 c 128,-1,22
EndSplineSet
Validated: 1
Substitution2: "'sups' Superscript in Latin lookup 7 subtable" uni1D0F
EndChar

StartChar: P
Encoding: 80 80 51
Width: 1237
GlyphClass: 2
Flags: W
LayerCount: 2
Fore
SplineSet
434 146 m 2,0,1
 434 111 434 111 450 95 c 0,2,3
 458 87 458 87 471 82 c 0,4,5
 534 60 534 60 534 21 c 0,6,7
 534 2 534 2 523 -9 c 128,-1,8
 512 -20 512 -20 494 -20 c 2,9,-1
 155 -20 l 2,10,11
 136 -20 136 -20 125 -9 c 128,-1,12
 114 2 114 2 114 21 c 0,13,14
 114 60 114 60 177 82 c 0,15,16
 189 86 189 86 198 95 c 0,17,18
 214 111 214 111 214 146 c 2,19,-1
 214 1257 l 2,20,21
 214 1291 214 1291 198 1308 c 0,22,23
 190 1316 190 1316 177 1320 c 0,24,25
 114 1343 114 1343 114 1383 c 0,26,27
 114 1403 114 1403 125 1414 c 128,-1,28
 136 1425 136 1425 155 1425 c 2,29,-1
 745 1425 l 2,30,31
 851 1425 851 1425 966 1387 c 0,32,33
 1085 1348 1085 1348 1150 1236 c 0,34,35
 1201 1146 1201 1146 1201 1022 c 0,36,37
 1199 903 1199 903 1132 808 c 0,38,39
 1074 726 1074 726 970.5 686.5 c 128,-1,40
 867 647 867 647 781 647 c 2,41,-1
 434 647 l 1,42,-1
 434 146 l 2,0,1
434 757 m 1,43,-1
 646 757 l 2,44,45
 712 757 712 757 779.5 776 c 128,-1,46
 847 795 847 795 894 842 c 0,47,48
 968 914 968 914 968 1032 c 0,49,50
 968 1146 968 1146 891 1222 c 0,51,52
 808 1301 808 1301 666 1301 c 2,53,-1
 434 1301 l 1,54,-1
 434 757 l 1,43,-1
EndSplineSet
Validated: 1
Substitution2: "'sups' Superscript in Latin lookup 7 subtable" uni1D18
EndChar

StartChar: Q
Encoding: 81 81 52
Width: 1610
GlyphClass: 2
Flags: W
LayerCount: 2
Fore
SplineSet
277 702 m 128,-1,1
 277 438 277 438 426 252 c 0,2,3
 573 68 573 68 808 66 c 2,4,-1
 813 66 l 2,5,6
 1042 66 1042 66 1190 262 c 0,7,8
 1338 459 1338 459 1338 696 c 0,9,10
 1338 698 1338 698 1338 700 c 2,11,-1
 1338 702 l 2,12,13
 1336 945 1336 945 1211 1144 c 0,14,15
 1089 1338 1089 1338 808 1338 c 0,16,17
 512 1337 512 1337 396 1154 c 0,18,0
 277 966 277 966 277 702 c 128,-1,1
818 1466 m 2,19,20
 1149 1466 1149 1466 1376 1263 c 0,21,22
 1590 1072 1590 1072 1590 760 c 0,23,24
 1590 732 1590 732 1588 704 c 0,25,26
 1568 352 1568 352 1344 157 c 0,27,28
 1164 0 1164 0 926 -41 c 1,29,30
 1039 -79 1039 -79 1233 -155 c 0,31,32
 1248 -161 1248 -161 1276 -161 c 0,33,34
 1321 -161 1321 -161 1400 -145 c 0,35,36
 1402 -145 1402 -145 1404 -145 c 0,37,38
 1412 -145 1412 -145 1418 -151 c 128,-1,39
 1424 -157 1424 -157 1424 -165 c 2,40,-1
 1424 -215 l 2,41,42
 1424 -227 1424 -227 1414 -232 c 0,43,44
 1320 -286 1320 -286 1277 -334 c 0,45,46
 1271 -341 1271 -341 1262 -340 c 0,47,48
 1261 -340 1261 -340 1259 -340 c 0,49,50
 1133 -324 1133 -324 933 -241 c 0,51,52
 824 -196 824 -196 763 -178.5 c 128,-1,53
 702 -161 702 -161 675 -161 c 0,54,55
 663 -161 663 -161 630 -176 c 128,-1,56
 597 -191 597 -191 536 -232 c 0,57,58
 530 -236 530 -236 523.5 -236 c 128,-1,59
 517 -236 517 -236 511 -229.5 c 128,-1,60
 505 -223 505 -223 505 -215 c 2,61,-1
 505 -152 l 2,62,63
 505 -141 505 -141 514 -135 c 0,64,65
 598 -81 598 -81 655 -49 c 1,66,67
 433 -19 433 -19 255 141 c 0,68,69
 28 343 28 343 28 669 c 0,70,71
 28 688 28 688 29 706 c 0,72,73
 41 1055 41 1055 255.5 1258.5 c 128,-1,74
 470 1462 470 1462 808 1466 c 1,75,-1
 818 1466 l 2,19,20
EndSplineSet
Substitution2: "'sups' Superscript in Latin lookup 7 subtable" uniA7AF
EndChar

StartChar: R
Encoding: 82 82 53
Width: 1368
GlyphClass: 2
Flags: W
LayerCount: 2
Fore
SplineSet
434 757 m 1,0,-1
 646 757 l 2,1,2
 712 757 712 757 779.5 776 c 128,-1,3
 847 795 847 795 894 842 c 0,4,5
 968 914 968 914 968 1032 c 0,6,7
 968 1146 968 1146 891 1222 c 0,8,9
 808 1301 808 1301 666 1301 c 2,10,-1
 434 1301 l 1,11,-1
 434 757 l 1,0,-1
1384 24 m 2,12,-1
 1384 21 l 2,13,14
 1384 20 1384 20 1384 18 c 0,15,16
 1382 1 1382 1 1371 -9.5 c 128,-1,17
 1360 -20 1360 -20 1343 -20 c 2,18,-1
 1076 -20 l 2,19,20
 1068 -20 1068 -20 1062.5 -16 c 128,-1,21
 1057 -12 1057 -12 1051 -6 c 0,22,23
 1017 28 1017 28 855 252 c 2,24,-1
 695 473 l 2,25,26
 618 580 618 580 564 647 c 1,27,-1
 434 647 l 1,28,-1
 434 146 l 2,29,30
 434 111 434 111 450 95 c 0,31,32
 458 87 458 87 471 82 c 0,33,34
 534 60 534 60 534 21 c 0,35,36
 534 2 534 2 523 -9 c 128,-1,37
 512 -20 512 -20 494 -20 c 2,38,-1
 155 -20 l 2,39,40
 136 -20 136 -20 125 -9 c 128,-1,41
 114 2 114 2 114 21 c 0,42,43
 114 60 114 60 177 82 c 0,44,45
 189 86 189 86 198 95 c 0,46,47
 214 111 214 111 214 146 c 2,48,-1
 214 1257 l 2,49,50
 214 1291 214 1291 198 1308 c 0,51,52
 190 1316 190 1316 177 1320 c 0,53,54
 114 1343 114 1343 114 1383 c 0,55,56
 114 1403 114 1403 125 1414 c 128,-1,57
 136 1425 136 1425 155 1425 c 2,58,-1
 745 1425 l 2,59,60
 851 1425 851 1425 966 1387 c 0,61,62
 1085 1348 1085 1348 1150 1236 c 0,63,64
 1201 1146 1201 1146 1201 1022 c 0,65,66
 1199 903 1199 903 1132 807 c 0,67,68
 1079 731 1079 731 985 692 c 0,69,70
 913 661 913 661 846 651 c 1,71,-1
 1277 86 l 1,72,73
 1300 68 1300 68 1338 65 c 0,74,75
 1362 62 1362 62 1373 51 c 128,-1,76
 1384 40 1384 40 1384 24 c 2,12,-1
EndSplineSet
Validated: 1
Substitution2: "'sups' Superscript in Latin lookup 7 subtable" uni0280
EndChar

StartChar: S
Encoding: 83 83 54
Width: 1075
GlyphClass: 2
Flags: W
LayerCount: 2
Fore
SplineSet
47 257 m 2,0,1
 44 265 44 265 44 277.5 c 128,-1,2
 44 290 44 290 55 306 c 0,3,4
 68 327 68 327 92 327 c 0,5,6
 104 327 104 327 115 316 c 0,7,8
 127 304 127 304 135 286 c 0,9,10
 196 153 196 153 278 114 c 0,11,12
 362 73 362 73 481 73 c 0,13,14
 506 73 506 73 558.5 76.5 c 128,-1,15
 611 80 611 80 682 115 c 0,16,17
 752 150 752 150 794.5 219 c 128,-1,18
 837 288 837 288 837 388 c 2,19,-1
 837 399 l 1,20,21
 834 502 834 502 759 556 c 0,22,23
 724 582 724 582 646.5 603.5 c 128,-1,24
 569 625 569 625 457.5 637 c 128,-1,25
 346 649 346 649 249 696 c 0,26,27
 149 744 149 744 102.5 830.5 c 128,-1,28
 56 917 56 917 56 1018 c 0,29,30
 56 1215 56 1215 194.5 1342 c 128,-1,31
 333 1469 333 1469 545 1469 c 2,32,-1
 575 1469 l 2,33,34
 575 1469 575 1469 576 1469 c 0,35,36
 804 1459 804 1459 965 1355 c 0,37,38
 974 1349 974 1349 974 1338 c 0,39,40
 974 1337 974 1337 950 1126 c 0,41,42
 948 1110 948 1110 938 1100 c 128,-1,43
 928 1090 928 1090 911 1090 c 2,44,-1
 907 1090 l 2,45,46
 882 1090 882 1090 864 1130 c 0,47,48
 823 1216 823 1216 745.5 1275.5 c 128,-1,49
 668 1335 668 1335 580 1339 c 1,50,-1
 564 1339 l 2,51,52
 477 1339 477 1339 422 1313 c 0,53,54
 365 1286 365 1286 340.5 1259.5 c 128,-1,55
 316 1233 316 1233 299 1198.5 c 128,-1,56
 282 1164 282 1164 274.5 1128.5 c 128,-1,57
 267 1093 267 1093 267 1062 c 128,-1,58
 267 1031 267 1031 278 1001 c 0,59,60
 278 1001 278 1001 278 1000 c 0,61,62
 297 939 297 939 338 909.5 c 128,-1,63
 379 880 379 880 412 872 c 128,-1,64
 445 864 445 864 481 857 c 0,65,66
 537 847 537 847 675 826 c 0,67,68
 740 816 740 816 821 792 c 0,69,70
 908 765 908 765 953 714.5 c 128,-1,71
 998 664 998 664 1024.5 603 c 128,-1,72
 1051 542 1051 542 1051 459 c 0,73,74
 1051 230 1051 230 869 87 c 0,75,76
 776 14 776 14 675 -19 c 128,-1,77
 574 -52 574 -52 511.5 -55.5 c 128,-1,78
 449 -59 449 -59 427 -59 c 0,79,80
 285 -59 285 -59 155 -19 c 0,81,82
 145 -16 145 -16 142 -7 c 2,83,-1
 47 257 l 2,0,1
EndSplineSet
Validated: 1
Substitution2: "'sups' Superscript in Latin lookup 7 subtable" uniA731
EndChar

StartChar: T
Encoding: 84 84 55
Width: 1255
GlyphClass: 2
Flags: W
LayerCount: 2
Fore
SplineSet
740 1256 m 2,0,-1
 740 147 l 2,1,2
 740 111 740 111 757 94 c 0,3,4
 765 86 765 86 777 82 c 0,5,6
 840 60 840 60 840 21 c 0,7,8
 840 2 840 2 829 -9 c 128,-1,9
 818 -20 818 -20 799 -20 c 2,10,-1
 460 -20 l 2,11,12
 442 -20 442 -20 431 -9 c 128,-1,13
 420 2 420 2 420 21 c 0,14,15
 420 60 420 60 483 82 c 0,16,17
 495 86 495 86 504 95 c 0,18,19
 520 111 520 111 520 146 c 2,20,-1
 520 1256 l 2,21,22
 520 1273 520 1273 516 1286 c 1,23,-1
 286 1286 l 2,24,25
 234 1286 234 1286 202 1254 c 0,26,27
 160 1211 160 1211 117 1150 c 0,28,29
 100 1126 100 1126 92 1117 c 128,-1,30
 84 1108 84 1108 77.5 1104.5 c 128,-1,31
 71 1101 71 1101 64 1101 c 0,32,33
 45 1101 45 1101 34 1112 c 128,-1,34
 23 1123 23 1123 23 1142 c 2,35,-1
 23 1328 l 2,36,37
 23 1393 23 1393 51 1410 c 0,38,39
 74 1425 74 1425 157 1425 c 2,40,-1
 1101 1425 l 2,41,42
 1148 1425 1148 1425 1174 1422 c 128,-1,43
 1200 1419 1200 1419 1210 1412 c 0,44,45
 1224 1403 1224 1403 1230 1378 c 0,46,47
 1235 1359 1235 1359 1235 1328 c 2,48,-1
 1235 1142 l 2,49,50
 1235 1123 1235 1123 1224 1112 c 128,-1,51
 1213 1101 1213 1101 1194 1101 c 0,52,53
 1182 1101 1182 1101 1169.5 1113.5 c 128,-1,54
 1157 1126 1157 1126 1140 1149 c 0,55,56
 1086 1223 1086 1223 1053 1256 c 0,57,58
 1023 1286 1023 1286 972 1286 c 2,59,-1
 744 1286 l 1,60,61
 740 1273 740 1273 740 1256 c 2,0,-1
EndSplineSet
Substitution2: "'sups' Superscript in Latin lookup 7 subtable" uni1D1B
EndChar

StartChar: U
Encoding: 85 85 56
Width: 1554
GlyphClass: 2
Flags: W
LayerCount: 2
Fore
SplineSet
214 588 m 2,0,-1
 214 1258 l 2,1,2
 214 1292 214 1292 198 1309 c 0,3,4
 190 1317 190 1317 177 1321 c 0,5,6
 114 1344 114 1344 114 1383 c 0,7,8
 114 1403 114 1403 125 1414 c 128,-1,9
 136 1425 136 1425 155 1425 c 2,10,-1
 494 1425 l 2,11,12
 512 1425 512 1425 523 1414 c 128,-1,13
 534 1403 534 1403 534 1383 c 128,-1,14
 534 1363 534 1363 518.5 1347 c 128,-1,15
 503 1331 503 1331 471 1321 c 0,16,17
 459 1317 459 1317 451 1309 c 0,18,19
 436 1294 436 1294 436 1260 c 2,20,-1
 436 721 l 2,21,22
 436 569 436 569 446 453.5 c 128,-1,23
 456 338 456 338 496 260 c 0,24,25
 534 185 534 185 614 145.5 c 128,-1,26
 694 106 694 106 839 106 c 0,27,28
 1015 106 1015 106 1111 202 c 0,29,30
 1152 243 1152 243 1179 302 c 0,31,32
 1244 444 1244 444 1244 721 c 2,33,-1
 1244 1257 l 2,34,35
 1244 1292 1244 1292 1227 1309 c 0,36,37
 1219 1317 1219 1317 1207 1321 c 0,38,39
 1144 1344 1144 1344 1144 1383 c 0,40,41
 1144 1403 1144 1403 1155 1414 c 128,-1,42
 1166 1425 1166 1425 1185 1425 c 2,43,-1
 1440 1425 l 2,44,45
 1458 1425 1458 1425 1469 1414 c 128,-1,46
 1480 1403 1480 1403 1480 1383 c 0,47,48
 1480 1344 1480 1344 1417 1321 c 0,49,50
 1405 1317 1405 1317 1398 1309 c 0,51,52
 1381 1292 1381 1292 1381 1257 c 2,53,-1
 1381 588 l 1,54,55
 1380 437 1380 437 1353 310 c 128,-1,56
 1326 183 1326 183 1251 95 c 0,57,58
 1118 -59 1118 -59 839 -59 c 0,59,60
 665 -59 665 -59 543 -26 c 0,61,62
 417 8 417 8 341 96 c 0,63,64
 214 243 214 243 214 588 c 2,0,-1
EndSplineSet
Validated: 1
Substitution2: "'sups' Superscript in Latin lookup 7 subtable" uni1D1C
EndChar

StartChar: V
Encoding: 86 86 57
Width: 1479
GlyphClass: 2
Flags: W
LayerCount: 2
Fore
SplineSet
71 1425 m 2,0,-1
 410 1425 l 2,1,2
 426 1425 426 1425 440 1414 c 0,3,4
 442 1413 442 1413 446 1409 c 0,5,6
 456 1399 456 1399 458.5 1391 c 128,-1,7
 461 1383 461 1383 461 1378 c 0,8,9
 461 1359 461 1359 443 1343 c 0,10,11
 433 1334 433 1334 426 1328 c 128,-1,12
 419 1322 419 1322 417 1320 c 0,13,14
 405 1308 405 1308 405 1292 c 0,15,16
 405 1282 405 1282 410 1271 c 0,17,18
 410 1270 410 1270 818 227 c 1,19,-1
 1252 1116 l 2,20,21
 1263 1138 1263 1138 1263 1152 c 128,-1,22
 1263 1166 1263 1166 1257 1175 c 0,23,24
 1239 1204 1239 1204 1200 1251 c 2,25,-1
 1151 1308 l 2,26,27
 1145 1315 1145 1315 1145 1321.5 c 128,-1,28
 1145 1328 1145 1328 1152 1335 c 0,29,30
 1153 1336 1153 1336 1277 1431 c 1,31,32
 1290 1442 1290 1442 1307 1442 c 128,-1,33
 1324 1442 1324 1442 1342 1427 c 0,34,35
 1343 1426 1343 1426 1425 1342 c 0,36,37
 1457 1309 1457 1309 1457 1262 c 0,38,39
 1457 1237 1457 1237 1448 1209 c 0,40,41
 1423 1136 1423 1136 1376 1039 c 2,42,-1
 886 24 l 1,43,44
 875 -3 875 -3 866 -10 c 0,45,46
 853 -20 853 -20 838 -20 c 2,47,-1
 687 -20 l 2,48,49
 661 -20 661 -20 649 5 c 0,50,51
 641 21 641 21 631 53 c 2,52,-1
 253 1103 l 1,53,54
 213 1208 213 1208 196 1250 c 0,55,56
 180 1282 180 1282 144 1308 c 0,57,58
 122 1322 122 1322 99.5 1331.5 c 128,-1,59
 77 1341 77 1341 61 1352 c 0,60,61
 47 1360 47 1360 42 1374 c 0,62,63
 32 1391 32 1391 42 1408 c 0,64,65
 51 1425 51 1425 71 1425 c 2,0,-1
EndSplineSet
Validated: 1
Substitution2: "'sups' Superscript in Latin lookup 7 subtable" uni1D20
EndChar

StartChar: W
Encoding: 87 87 58
Width: 2069
GlyphClass: 2
Flags: W
LayerCount: 2
Fore
SplineSet
71 1425 m 2,0,-1
 410 1425 l 2,1,2
 431 1425 431 1425 448 1408 c 0,3,4
 456 1400 456 1400 458.5 1392.5 c 128,-1,5
 461 1385 461 1385 461 1378 c 0,6,7
 461 1359 461 1359 443 1343 c 0,8,9
 433 1334 433 1334 426 1328 c 128,-1,10
 419 1322 419 1322 417 1320 c 0,11,12
 405 1308 405 1308 405 1292 c 0,13,14
 405 1282 405 1282 410 1271 c 0,15,16
 410 1270 410 1270 818 227 c 1,17,-1
 1014 628 l 1,18,-1
 843 1103 l 1,19,20
 803 1208 803 1208 786 1250 c 0,21,22
 770 1282 770 1282 734 1308 c 0,23,24
 712 1322 712 1322 689 1332 c 0,25,26
 657 1346 657 1346 644 1358 c 0,27,28
 642 1360 642 1360 632 1376 c 0,29,30
 627 1384 627 1384 627 1391 c 0,31,32
 627 1405 627 1405 637 1415 c 128,-1,33
 647 1425 647 1425 661 1425 c 2,34,-1
 1000 1425 l 2,35,36
 1021 1425 1021 1425 1038 1408 c 0,37,38
 1046 1400 1046 1400 1048.5 1392.5 c 128,-1,39
 1051 1385 1051 1385 1051 1378 c 0,40,41
 1051 1359 1051 1359 1033 1343 c 0,42,43
 1023 1334 1023 1334 1016 1328 c 128,-1,44
 1009 1322 1009 1322 1007 1320 c 0,45,46
 995 1308 995 1308 995 1292 c 0,47,48
 995 1282 995 1282 1000 1271 c 0,49,50
 1000 1270 1000 1270 1146 899 c 1,51,-1
 1252 1116 l 2,52,53
 1263 1138 1263 1138 1263 1152 c 128,-1,54
 1263 1166 1263 1166 1257 1175 c 0,55,56
 1239 1204 1239 1204 1200 1251 c 2,57,-1
 1151 1308 l 2,58,59
 1145 1315 1145 1315 1145 1321.5 c 128,-1,60
 1145 1328 1145 1328 1152 1335 c 0,61,62
 1153 1336 1153 1336 1277 1431 c 1,63,64
 1290 1442 1290 1442 1307 1442 c 128,-1,65
 1324 1442 1324 1442 1342 1427 c 0,66,67
 1343 1426 1343 1426 1425 1342 c 0,68,69
 1457 1309 1457 1309 1457 1262 c 0,70,71
 1457 1237 1457 1237 1448 1209 c 0,72,73
 1423 1136 1423 1136 1376 1039 c 2,74,-1
 1219 712 l 1,75,-1
 1408 227 l 1,76,-1
 1842 1116 l 2,77,78
 1853 1138 1853 1138 1853 1152 c 128,-1,79
 1853 1166 1853 1166 1847 1175 c 0,80,81
 1829 1204 1829 1204 1790 1251 c 2,82,-1
 1741 1308 l 2,83,84
 1735 1315 1735 1315 1735 1321.5 c 128,-1,85
 1735 1328 1735 1328 1742 1335 c 0,86,87
 1743 1336 1743 1336 1867 1431 c 1,88,89
 1880 1442 1880 1442 1897 1442 c 128,-1,90
 1914 1442 1914 1442 1932 1427 c 0,91,92
 1933 1426 1933 1426 2015 1342 c 0,93,94
 2047 1309 2047 1309 2047 1262 c 0,95,96
 2047 1237 2047 1237 2038 1209 c 0,97,98
 2013 1136 2013 1136 1966 1039 c 2,99,-1
 1476 24 l 1,100,101
 1465 -3 1465 -3 1456 -10 c 0,102,103
 1443 -20 1443 -20 1428 -20 c 2,104,-1
 1277 -20 l 2,105,106
 1251 -20 1251 -20 1239 5 c 0,107,108
 1231 21 1231 21 1221 53 c 2,109,-1
 1084 434 l 1,110,-1
 886 24 l 1,111,112
 875 -3 875 -3 866 -10 c 0,113,114
 853 -20 853 -20 838 -20 c 2,115,-1
 687 -20 l 2,116,117
 661 -20 661 -20 649 5 c 0,118,119
 641 21 641 21 631 53 c 2,120,-1
 253 1103 l 1,121,122
 213 1208 213 1208 196 1250 c 0,123,124
 180 1282 180 1282 144 1308 c 0,125,126
 122 1322 122 1322 99 1332 c 0,127,128
 67 1346 67 1346 54 1358 c 0,129,130
 52 1360 52 1360 42 1376 c 0,131,132
 37 1384 37 1384 37 1391 c 0,133,134
 37 1405 37 1405 47 1415 c 128,-1,135
 57 1425 57 1425 71 1425 c 2,0,-1
EndSplineSet
Validated: 1
Substitution2: "'sups' Superscript in Latin lookup 7 subtable" uni1D21
EndChar

StartChar: X
Encoding: 88 88 59
Width: 1404
GlyphClass: 2
Flags: W
LayerCount: 2
Fore
SplineSet
307 -20 m 2,0,-1
 49 -20 l 2,1,2
 32 -20 32 -20 23 -11 c 0,3,4
 16 -4 16 -4 16 6 c 2,5,-1
 16 11 l 2,6,7
 16 41 16 41 60 60 c 0,8,9
 77 67 77 67 112 80 c 0,10,11
 184 111 184 111 217 157 c 2,12,-1
 582 677 l 1,13,-1
 214 1247 l 1,14,15
 179 1299 179 1299 94 1331 c 0,16,17
 18 1356 18 1356 18 1394 c 2,18,-1
 18 1398 l 2,19,20
 18 1409 18 1409 26 1417 c 128,-1,21
 34 1425 34 1425 48 1425 c 2,22,-1
 420 1425 l 2,23,24
 447 1425 447 1425 464 1404 c 0,25,26
 479 1385 479 1385 479 1372 c 128,-1,27
 479 1359 479 1359 467 1345 c 0,28,29
 460 1336 460 1336 449 1325 c 0,30,31
 444 1320 444 1320 444 1312 c 2,32,-1
 444 1308 l 2,33,34
 444 1292 444 1292 456 1275 c 0,35,36
 456 1275 456 1275 722 866 c 1,37,-1
 972 1216 l 2,38,39
 1040 1311 1040 1311 1090 1368 c 0,40,41
 1145 1431 1145 1431 1188 1431 c 0,42,43
 1195 1431 1195 1431 1200 1429 c 0,44,45
 1220 1424 1220 1424 1221 1424 c 0,46,47
 1321 1395 1321 1395 1322 1394 c 0,48,49
 1351 1382 1351 1382 1351 1359 c 0,50,51
 1351 1347 1351 1347 1348 1336 c 2,52,-1
 1306 1166 l 2,53,54
 1305 1161 1305 1161 1300 1156 c 128,-1,55
 1295 1151 1295 1151 1288 1151 c 0,56,57
 1286 1151 1286 1151 1282 1152 c 2,58,-1
 1217 1167 l 2,59,60
 1167 1179 1167 1179 1134 1180 c 1,61,-1
 1132 1180 l 2,62,63
 1111 1180 1111 1180 1084 1142 c 2,64,-1
 803 742 l 1,65,-1
 1183 157 l 2,66,67
 1214 110 1214 110 1304 72 c 0,68,69
 1352 52 1352 52 1368 36 c 0,70,71
 1380 24 1380 24 1380 10.5 c 128,-1,72
 1380 -3 1380 -3 1371.5 -11.5 c 128,-1,73
 1363 -20 1363 -20 1349 -20 c 2,74,-1
 977 -20 l 2,75,76
 963 -20 963 -20 949.5 -13 c 128,-1,77
 936 -6 936 -6 930 1 c 0,78,79
 918 13 918 13 918 27 c 0,80,81
 918 45 918 45 939 71 c 0,82,83
 951 86 951 86 953 93 c 1,84,-1
 953 98 l 2,85,86
 953 112 953 112 943 131 c 1,87,-1
 664 552 l 1,88,-1
 377 136 l 2,89,90
 353 101 353 101 352 80 c 1,91,-1
 360 44 l 2,92,93
 361 42 361 42 361 39 c 0,94,95
 361 20 361 20 347 2 c 0,96,97
 331 -20 331 -20 307 -20 c 2,0,-1
EndSplineSet
Validated: 1
Substitution2: "'sups' Superscript in Latin lookup 7 subtable" uniEF11
EndChar

StartChar: Y
Encoding: 89 89 60
Width: 1288
GlyphClass: 2
Flags: W
LayerCount: 2
Fore
SplineSet
818 497 m 2,0,-1
 818 146 l 2,1,2
 818 111 818 111 834 95 c 0,3,4
 842 87 842 87 855 82 c 0,5,6
 918 60 918 60 918 21 c 0,7,8
 918 2 918 2 907 -9 c 128,-1,9
 896 -20 896 -20 877 -20 c 2,10,-1
 538 -20 l 2,11,12
 519 -20 519 -20 508 -9 c 128,-1,13
 497 2 497 2 497 21 c 0,14,15
 497 60 497 60 560 82 c 0,16,17
 572 86 572 86 581 95 c 0,18,19
 597 111 597 111 597 146 c 2,20,-1
 597 573 l 2,21,22
 597 625 597 625 572 667 c 2,23,-1
 223 1247 l 1,24,25
 202 1277 202 1277 153 1308 c 0,26,27
 126 1322 126 1322 103 1331 c 0,28,29
 70 1343 70 1343 56 1353 c 0,30,31
 27 1374 27 1374 27 1394 c 2,32,-1
 27 1398 l 2,33,34
 27 1409 27 1409 35 1417 c 128,-1,35
 43 1425 43 1425 57 1425 c 2,36,-1
 396 1425 l 2,37,38
 410 1425 410 1425 424.5 1415.5 c 128,-1,39
 439 1406 439 1406 443 1402 c 0,40,41
 448 1397 448 1397 449 1395 c 0,42,43
 455 1385 455 1385 455 1372 c 128,-1,44
 455 1359 455 1359 443 1345 c 0,45,46
 435 1335 435 1335 425 1325 c 0,47,48
 420 1320 420 1320 420 1312 c 2,49,-1
 420 1308 l 2,50,51
 420 1292 420 1292 432 1274 c 0,52,53
 432 1274 432 1274 753 766 c 1,54,-1
 995 1135 l 2,55,56
 1023 1176 1023 1176 1027 1203 c 0,57,58
 1027 1203 1027 1203 1027 1203.5 c 128,-1,59
 1027 1204 1027 1204 1027 1205 c 128,-1,60
 1027 1206 1027 1206 1027 1206 c 0,61,62
 1018 1253 1018 1253 1005 1279 c 2,63,-1
 971 1347 l 2,64,65
 969 1352 969 1352 969 1358 c 128,-1,66
 969 1364 969 1364 975 1370 c 0,67,68
 978 1373 978 1373 981 1374 c 2,69,-1
 1124 1436 l 2,70,71
 1135 1441 1135 1441 1145 1441 c 0,72,73
 1169 1441 1169 1441 1185 1416 c 0,74,75
 1185 1415 1185 1415 1246 1314 c 0,76,77
 1260 1290 1260 1290 1260 1266 c 0,78,79
 1260 1224 1260 1224 1220 1183 c 0,80,81
 1168 1128 1168 1128 1110 1043 c 2,82,-1
 844 655 l 2,83,84
 829 632 829 632 823.5 586 c 128,-1,85
 818 540 818 540 818 497 c 2,0,-1
EndSplineSet
Validated: 1
Substitution2: "'sups' Superscript in Latin lookup 7 subtable" uni028F
EndChar

StartChar: Z
Encoding: 90 90 61
Width: 1423
GlyphClass: 2
Flags: W
LayerCount: 2
Fore
SplineSet
190 1106 m 0,0,1
 171 1106 171 1106 160 1117 c 128,-1,2
 149 1128 149 1128 149 1147 c 2,3,-1
 149 1332 l 2,4,5
 149 1397 149 1397 178 1415 c 0,6,7
 202 1429 202 1429 283 1429 c 2,8,-1
 1207 1429 l 2,9,10
 1255 1429 1255 1429 1274 1426 c 128,-1,11
 1293 1423 1293 1423 1302 1420 c 0,12,13
 1311 1417 1311 1417 1317 1411 c 0,14,15
 1334 1392 1334 1392 1334 1368 c 128,-1,16
 1334 1344 1334 1344 1315 1320 c 2,17,-1
 359 118 l 1,18,-1
 1098 119 l 2,19,20
 1150 119 1150 119 1181 151 c 0,21,22
 1217 187 1217 187 1255 240 c 0,23,24
 1290 288 1290 288 1305 298 c 0,25,26
 1312 303 1312 303 1320 303 c 0,27,28
 1339 303 1339 303 1350 292 c 128,-1,29
 1361 281 1361 281 1361 262 c 2,30,-1
 1361 77 l 2,31,32
 1361 45 1361 45 1357 26 c 0,33,34
 1351 1 1351 1 1336 -8 c 0,35,36
 1325 -15 1325 -15 1300 -17.5 c 128,-1,37
 1275 -20 1275 -20 1228 -20 c 2,38,-1
 157 -20 l 2,39,40
 64 -20 64 -20 45 -13 c 0,41,42
 10 0 10 0 10 29 c 0,43,44
 10 50 10 50 33 74 c 1,45,-1
 979 1292 l 1,46,-1
 412 1291 l 2,47,48
 360 1291 360 1291 329 1259 c 0,49,50
 293 1222 293 1222 255 1169 c 0,51,52
 221 1121 221 1121 205 1111 c 0,53,54
 198 1106 198 1106 190 1106 c 0,0,1
EndSplineSet
Validated: 1
Substitution2: "'sups' Superscript in Latin lookup 7 subtable" uni1D22
EndChar

StartChar: bracketleft
Encoding: 91 91 62
Width: 682
GlyphClass: 2
Flags: W
LayerCount: 2
Fore
SplineSet
509 -432 m 0,0,1
 501 -440 501 -440 488 -440 c 2,2,-1
 241 -440 l 2,3,4
 222 -440 222 -440 211 -429 c 128,-1,5
 200 -418 200 -418 200 -400 c 2,6,-1
 200 1436 l 2,7,8
 200 1462 200 1462 213 1475 c 0,9,10
 224 1486 224 1486 241 1486 c 2,11,-1
 488 1486 l 2,12,13
 500 1486 500 1486 507.5 1478.5 c 128,-1,14
 515 1471 515 1471 517.5 1461.5 c 128,-1,15
 520 1452 520 1452 520 1438 c 0,16,17
 520 1411 520 1411 507 1399 c 0,18,19
 497 1389 497 1389 483 1389 c 2,20,-1
 358 1389 l 1,21,-1
 358 -347 l 1,22,-1
 483 -347 l 2,23,24
 498 -347 498 -347 508 -357 c 0,25,26
 520 -369 520 -369 520 -395 c 128,-1,27
 520 -421 520 -421 509 -432 c 0,0,1
EndSplineSet
Validated: 1
EndChar

StartChar: backslash
Encoding: 92 92 63
Width: 1100
GlyphClass: 2
Flags: W
LayerCount: 2
Fore
SplineSet
58 1494 m 2
 198 1494 l 2
 210 1494 210 1494 216 1484 c 2
 1060 -60 l 2
 1062 -66 1062 -66 1062 -72 c 0
 1062 -78 1062 -78 1056 -84 c 0
 1050 -90 1050 -90 1042 -90 c 2
 900 -90 l 2
 892 -90 892 -90 886 -84 c 0
 883 -83 883 -83 882 -80 c 2
 40 1464 l 2
 38 1470 38 1470 38 1476 c 0
 38 1482 38 1482 44 1488 c 0
 50 1494 50 1494 58 1494 c 2
EndSplineSet
Validated: 1
EndChar

StartChar: bracketright
Encoding: 93 93 64
Width: 682
GlyphClass: 2
Flags: W
LayerCount: 2
Fore
SplineSet
211 1478 m 0,0,1
 219 1486 219 1486 232 1486 c 2,2,-1
 479 1486 l 2,3,4
 498 1486 498 1486 509 1475 c 128,-1,5
 520 1464 520 1464 520 1446 c 2,6,-1
 520 -390 l 2,7,8
 520 -416 520 -416 507 -429 c 0,9,10
 496 -440 496 -440 479 -440 c 2,11,-1
 232 -440 l 2,12,13
 220 -440 220 -440 212.5 -432.5 c 128,-1,14
 205 -425 205 -425 202.5 -415.5 c 128,-1,15
 200 -406 200 -406 200 -392 c 0,16,17
 200 -365 200 -365 213 -353 c 0,18,19
 223 -343 223 -343 237 -343 c 2,20,-1
 362 -343 l 1,21,-1
 362 1393 l 1,22,-1
 237 1393 l 2,23,24
 222 1393 222 1393 212 1403 c 0,25,26
 200 1415 200 1415 200 1441 c 128,-1,27
 200 1467 200 1467 211 1478 c 0,0,1
EndSplineSet
EndChar

StartChar: asciicircum
Encoding: 94 94 65
Width: 1100
GlyphClass: 2
Flags: W
LayerCount: 2
Fore
SplineSet
496 1450 m 2,0,-1
 604 1450 l 2,1,2
 615 1450 615 1450 621 1440 c 2,3,-1
 933 922 l 2,4,5
 936 916 936 916 936.5 910 c 128,-1,6
 937 904 937 904 930.5 898 c 128,-1,7
 924 892 924 892 916 892 c 2,8,-1
 860 892 l 2,9,10
 850 892 850 892 844 900 c 2,11,-1
 550 1279 l 1,12,13
 253 898 253 898 252 898 c 0,14,15
 246 892 246 892 238 892 c 2,16,-1
 184 892 l 2,17,18
 176 892 176 892 169.5 898 c 128,-1,19
 163 904 163 904 163 910.5 c 128,-1,20
 163 917 163 917 167 922 c 2,21,-1
 479 1440 l 2,22,23
 485 1450 485 1450 496 1450 c 2,0,-1
EndSplineSet
Validated: 1
EndChar

StartChar: underscore
Encoding: 95 95 66
Width: 1100
GlyphClass: 2
Flags: W
LayerCount: 2
Fore
SplineSet
-0 -198 m 2,0,-1
 1100 -198 l 2,1,2
 1108 -198 1108 -198 1114 -204 c 128,-1,3
 1120 -210 1120 -210 1120 -218 c 2,4,-1
 1120 -336 l 2,5,6
 1120 -344 1120 -344 1114 -350 c 128,-1,7
 1108 -356 1108 -356 1100 -356 c 2,8,-1
 0 -356 l 2,9,10
 -8 -356 -8 -356 -14 -350 c 128,-1,11
 -20 -344 -20 -344 -20 -336 c 2,12,-1
 -20 -218 l 2,13,14
 -20 -210 -20 -210 -14 -204 c 128,-1,15
 -8 -198 -8 -198 -0 -198 c 2,0,-1
EndSplineSet
Validated: 1
EndChar

StartChar: grave
Encoding: 96 96 67
Width: 1000
GlyphClass: 2
Flags: W
LayerCount: 2
Fore
SplineSet
757 1142 m 0,0,1
 768 1129 768 1129 768 1113 c 128,-1,2
 768 1097 768 1097 758 1087 c 128,-1,3
 748 1077 748 1077 730 1077 c 0,4,5
 722 1077 722 1077 716 1079 c 2,6,-1
 291 1238 l 2,7,8
 270 1246 270 1246 257 1260 c 0,9,10
 232 1285 232 1285 232 1328 c 128,-1,11
 232 1371 232 1371 256.5 1395.5 c 128,-1,12
 281 1420 281 1420 326 1420 c 0,13,14
 354 1420 354 1420 377 1403 c 2,15,-1
 753 1146 l 2,16,17
 755 1144 755 1144 757 1142 c 0,0,1
EndSplineSet
Validated: 1
EndChar

StartChar: a
Encoding: 97 97 68
Width: 1155
GlyphClass: 2
Flags: W
LayerCount: 2
Fore
SplineSet
276 373 m 0,0,1
 295 277 295 277 346 208 c 0,2,3
 429 95 429 95 556 95 c 0,4,5
 606 95 606 95 668 118 c 2,6,-1
 777 157 l 1,7,-1
 777 766 l 1,8,9
 745 790 745 790 687 819 c 0,10,11
 637 843 637 843 607 849 c 0,12,13
 595 852 595 852 582 852 c 0,14,15
 556 852 556 852 524 842 c 0,16,17
 444 817 444 817 423 806 c 0,18,19
 369 786 369 786 339 753 c 0,20,21
 300 711 300 711 273 599 c 0,22,23
 263 553 263 553 263 494 c 0,24,25
 263 434 263 434 276 373 c 0,0,1
875 913 m 1,26,27
 885 914 885 914 898 927 c 0,28,29
 919 950 919 950 919 951 c 0,30,31
 930 962 930 962 944 962 c 128,-1,32
 958 962 958 962 974 954 c 0,33,34
 982 950 982 950 987 945 c 0,35,36
 998 934 998 934 998 919 c 2,37,-1
 998 868 l 1,38,-1
 998 146 l 2,39,40
 998 112 998 112 1014 95 c 0,41,42
 1022 87 1022 87 1035 83 c 0,43,44
 1098 60 1098 60 1098 21 c 0,45,46
 1098 2 1098 2 1087 -9 c 128,-1,47
 1076 -20 1076 -20 1057 -20 c 2,48,-1
 814 -20 l 2,49,50
 796 -20 796 -20 786.5 -10.5 c 128,-1,51
 777 -1 777 -1 777 13 c 2,52,-1
 777 55 l 1,53,-1
 529 -33 l 2,54,55
 495 -45 495 -45 469 -45 c 2,56,-1
 428 -45 l 2,57,58
 277 -45 277 -45 167 79 c 0,59,60
 42 220 42 220 42 434 c 0,61,62
 42 496 42 496 48 541 c 0,63,64
 62 633 62 633 110 710 c 0,65,66
 146 768 146 768 205 812 c 0,67,68
 236 835 236 835 265 849 c 0,69,70
 493 934 493 934 596 968 c 0,71,72
 617 975 617 975 647 975 c 128,-1,73
 677 975 677 975 721 964 c 0,74,75
 753 957 753 957 875 913 c 1,26,27
EndSplineSet
Substitution2: "'sups' Superscript in Latin lookup 8 subtable" uni1D43
Substitution2: "'smcp' Lowercase to Small Capitals in Latin lookup 1 subtable" uni1D00
EndChar

StartChar: b
Encoding: 98 98 69
Width: 1139
GlyphClass: 2
Flags: W
LayerCount: 2
Fore
SplineSet
146 1257 m 2,0,1
 146 1291 146 1291 130 1308 c 0,2,3
 122 1316 122 1316 109 1320 c 0,4,5
 46 1343 46 1343 46 1383 c 0,6,7
 46 1402 46 1402 57 1413 c 128,-1,8
 68 1424 68 1424 87 1424 c 0,9,10
 141 1424 141 1424 196 1440 c 0,11,12
 256 1458 256 1458 280 1486 c 0,13,14
 291 1499 291 1499 307 1499 c 0,15,16
 317 1499 317 1499 329.5 1494 c 128,-1,17
 342 1489 342 1489 349 1481 c 0,18,19
 360 1470 360 1470 360 1456 c 2,20,-1
 360 872 l 1,21,-1
 616 963 l 2,22,23
 650 975 650 975 676 975 c 2,24,-1
 717 975 l 2,25,26
 868 975 868 975 978 851 c 0,27,28
 1103 710 1103 710 1103 496 c 0,29,30
 1103 434 1103 434 1097 389 c 0,31,32
 1083 297 1083 297 1035 220 c 0,33,34
 999 162 999 162 940 118 c 0,35,36
 909 95 909 95 880 81 c 0,37,38
 652 -4 652 -4 549 -38 c 0,39,40
 528 -45 528 -45 498 -45 c 128,-1,41
 468 -45 468 -45 424 -34 c 0,42,43
 391 -27 391 -27 257 22 c 0,44,45
 253 21 253 21 251 18 c 0,46,47
 237 -1 237 -1 231 -9 c 128,-1,48
 225 -17 225 -17 223 -19 c 0,49,50
 212 -30 212 -30 197 -30 c 0,51,52
 187 -30 187 -30 175.5 -25 c 128,-1,53
 164 -20 164 -20 157 -13 c 0,54,55
 146 -2 146 -2 146 13 c 2,56,-1
 146 1257 l 2,0,1
869 557 m 0,57,58
 850 653 850 653 799 722 c 0,59,60
 716 835 716 835 589 835 c 0,61,62
 539 835 539 835 477 812 c 2,63,-1
 360 770 l 1,64,-1
 360 170 l 1,65,66
 393 143 393 143 458 111 c 0,67,68
 508 87 508 87 538 81 c 0,69,70
 550 78 550 78 563 78 c 0,71,72
 589 78 589 78 621 88 c 0,73,74
 701 113 701 113 722 124 c 0,75,76
 776 144 776 144 806 177 c 0,77,78
 845 219 845 219 872 331 c 0,79,80
 882 377 882 377 882 436 c 0,81,82
 882 496 882 496 869 557 c 0,57,58
EndSplineSet
Substitution2: "'sups' Superscript in Latin lookup 8 subtable" uni1D47
Substitution2: "'smcp' Lowercase to Small Capitals in Latin lookup 1 subtable" uni0299
EndChar

StartChar: c
Encoding: 99 99 70
Width: 925
GlyphClass: 2
Flags: W
LayerCount: 2
Fore
SplineSet
554 976 m 1,0,-1
 576 976 l 2,1,2
 748 976 748 976 902 877 c 1,3,-1
 884 697 l 2,4,5
 879 666 879 666 846 666 c 2,6,-1
 842 666 l 2,7,8
 814 669 814 669 801 700 c 0,9,10
 764 781 764 781 705 816 c 0,11,12
 648 850 648 850 564 850 c 2,13,-1
 541 850 l 1,14,15
 443 845 443 845 390 794 c 0,16,17
 341 746 341 746 317 677 c 0,18,19
 292 606 292 606 292 519 c 0,20,21
 292 490 292 490 295 459 c 0,22,23
 305 315 305 315 372 224 c 0,24,25
 460 107 460 107 564 92 c 0,26,27
 580 89 580 89 598 89 c 0,28,29
 680 89 680 89 783 146 c 0,30,31
 847 180 847 180 874 180 c 0,32,33
 888 180 888 180 900 172 c 0,34,35
 909 163 909 163 909 150 c 0,36,37
 909 135 909 135 895 105 c 0,38,39
 879 71 879 71 855 50 c 0,40,41
 795 -4 795 -4 706.5 -24.5 c 128,-1,42
 618 -45 618 -45 540 -45 c 0,43,44
 344 -44 344 -44 210.5 64 c 128,-1,45
 77 172 77 172 59 371 c 0,46,47
 55 415 55 415 55 458 c 0,48,49
 55 513 55 513 62 565 c 0,50,51
 76 657 76 657 133 748 c 0,52,53
 193 845 193 845 302.5 907.5 c 128,-1,54
 412 970 412 970 554 976 c 1,0,-1
EndSplineSet
Validated: 1
Substitution2: "'smcp' Lowercase to Small Capitals in Latin lookup 1 subtable" uni1D04
EndChar

StartChar: d
Encoding: 100 100 71
Width: 1155
GlyphClass: 2
Flags: W
LayerCount: 2
Fore
SplineSet
786 1258 m 2,0,1
 786 1291 786 1291 770 1308 c 0,2,3
 762 1316 762 1316 749 1320 c 0,4,5
 686 1343 686 1343 686 1383 c 0,6,7
 686 1402 686 1402 697 1413 c 128,-1,8
 708 1424 708 1424 727 1424 c 0,9,10
 781 1424 781 1424 845 1443 c 0,11,12
 896 1458 896 1458 920 1486 c 0,13,14
 931 1499 931 1499 945 1499 c 0,15,16
 948 1499 948 1499 950 1499 c 0,17,18
 977 1495 977 1495 990 1482 c 0,19,20
 1000 1472 1000 1472 1000 1458 c 0,21,22
 1000 1457 1000 1457 1000 1455 c 2,23,-1
 1000 146 l 2,24,25
 1000 111 1000 111 1016 95 c 0,26,27
 1024 87 1024 87 1037 82 c 0,28,29
 1100 60 1100 60 1100 21 c 0,30,31
 1100 2 1100 2 1089 -9 c 128,-1,32
 1078 -20 1078 -20 1059 -20 c 2,33,-1
 823 -20 l 2,34,35
 805 -20 805 -20 795.5 -10.5 c 128,-1,36
 786 -1 786 -1 786 13 c 2,37,-1
 786 59 l 1,38,-1
 529 -33 l 2,39,40
 495 -45 495 -45 469 -45 c 2,41,-1
 428 -45 l 2,42,43
 277 -45 277 -45 167 79 c 0,44,45
 42 220 42 220 42 434 c 0,46,47
 42 496 42 496 48 541 c 0,48,49
 62 633 62 633 110 710 c 0,50,51
 146 768 146 768 205 812 c 0,52,53
 236 835 236 835 265 849 c 0,54,55
 493 934 493 934 596 968 c 0,56,57
 617 975 617 975 647 975 c 128,-1,58
 677 975 677 975 721 964 c 0,59,60
 739 960 739 960 786 944 c 1,61,-1
 786 1258 l 2,0,1
276 373 m 0,62,63
 295 277 295 277 346 208 c 0,64,65
 429 95 429 95 556 95 c 0,66,67
 606 95 606 95 668 118 c 2,68,-1
 785 160 l 1,69,-1
 785 760 l 1,70,71
 752 787 752 787 687 819 c 0,72,73
 637 843 637 843 607 849 c 0,74,75
 595 852 595 852 582 852 c 0,76,77
 556 852 556 852 524 842 c 0,78,79
 444 817 444 817 423 806 c 0,80,81
 369 786 369 786 339 753 c 0,82,83
 300 711 300 711 273 599 c 0,84,85
 263 553 263 553 263 494 c 0,86,87
 263 434 263 434 276 373 c 0,62,63
EndSplineSet
Substitution2: "'sups' Superscript in Latin lookup 8 subtable" uni1D48
Substitution2: "'smcp' Lowercase to Small Capitals in Latin lookup 1 subtable" uni1D05
EndChar

StartChar: e
Encoding: 101 101 72
Width: 1004
GlyphClass: 2
Flags: W
LayerCount: 2
Fore
SplineSet
962 551 m 0,0,1
 962 518 962 518 959 492 c 0,2,3
 958 481 958 481 950 473 c 0,4,5
 935 458 935 458 898 458 c 2,6,-1
 282 458 l 1,7,8
 291 284 291 284 394 180 c 0,9,10
 458 116 458 116 546 99 c 0,11,12
 546 99 546 99 546 98 c 0,13,14
 579 91 579 91 613 91 c 0,15,16
 703 91 703 91 778 132 c 0,17,18
 843 167 843 167 866 174 c 0,19,20
 874 177 874 177 881 177 c 0,21,22
 901 177 901 177 909.5 168.5 c 128,-1,23
 918 160 918 160 918 142 c 0,24,25
 918 128 918 128 903.5 100.5 c 128,-1,26
 889 73 889 73 881 64 c 0,27,28
 868 50 868 50 865 48 c 0,29,30
 750 -51 750 -51 556 -51 c 0,31,32
 284 -49 284 -49 147 125 c 0,33,34
 42 258 42 258 42 441 c 0,35,36
 42 496 42 496 51 554 c 0,37,38
 80 746 80 746 205 862 c 128,-1,39
 330 978 330 978 533 980 c 1,40,-1
 537 980 l 2,41,42
 743 980 743 980 852.5 861 c 128,-1,43
 962 742 962 742 962 551 c 0,0,1
539 852 m 2,44,-1
 528 852 l 1,45,46
 398 848 398 848 343 759 c 0,47,48
 290 674 290 674 282 571 c 1,49,-1
 768 571 l 1,50,51
 764 676 764 676 716 763 c 0,52,53
 668 852 668 852 539 852 c 2,44,-1
EndSplineSet
Validated: 1
Substitution2: "'sups' Superscript in Latin lookup 8 subtable" uni1D49
Substitution2: "'smcp' Lowercase to Small Capitals in Latin lookup 1 subtable" uni1D07
EndChar

StartChar: f
Encoding: 102 102 73
Width: 683
GlyphClass: 2
Flags: W
LayerCount: 2
Fore
SplineSet
662 928 m 0,0,1
 662 867 662 867 637 841 c 0,2,3
 620 824 620 824 593 824 c 2,4,-1
 402 824 l 1,5,-1
 402 146 l 2,6,7
 402 111 402 111 418 95 c 0,8,9
 426 87 426 87 439 82 c 0,10,11
 502 60 502 60 502 23 c 0,12,13
 502 3 502 3 490.5 -8.5 c 128,-1,14
 479 -20 479 -20 461 -20 c 2,15,-1
 129 -20 l 2,16,17
 111 -20 111 -20 99.5 -8.5 c 128,-1,18
 88 3 88 3 88 22 c 128,-1,19
 88 41 88 41 103 56 c 128,-1,20
 118 71 118 71 151 82 c 0,21,22
 163 86 163 86 172 95 c 0,23,24
 188 111 188 111 188 146 c 2,25,-1
 188 824 l 1,26,-1
 88 824 l 2,27,28
 70 824 70 824 59 835 c 128,-1,29
 48 846 48 846 48 864 c 2,30,-1
 48 866 l 2,31,32
 48 893 48 893 78 909 c 0,33,34
 158 949 158 949 188 962 c 1,35,-1
 188 1027 l 2,36,37
 188 1157 188 1157 208 1226 c 128,-1,38
 228 1295 228 1295 252 1323 c 0,39,40
 276 1353 276 1353 305 1364 c 2,41,-1
 553 1459 l 2,42,43
 564 1463 564 1463 592 1465 c 0,44,45
 593 1465 593 1465 594 1465 c 2,46,-1
 598 1465 l 2,47,48
 626 1465 626 1465 654 1446 c 0,49,50
 681 1428 681 1428 690.5 1410.5 c 128,-1,51
 700 1393 700 1393 700 1376 c 0,52,53
 700 1323 700 1323 695 1307 c 0,54,55
 689 1287 689 1287 671 1282 c 0,56,57
 668 1281 668 1281 666 1281 c 2,58,-1
 663 1281 l 2,59,60
 654 1281 654 1281 640.5 1287.5 c 128,-1,61
 627 1294 627 1294 606 1307 c 0,62,63
 577 1327 577 1327 544.5 1327 c 128,-1,64
 512 1327 512 1327 489 1318 c 0,65,66
 464 1307 464 1307 446 1289 c 0,67,68
 413 1256 413 1256 407 1197 c 0,69,70
 403 1160 403 1160 402.5 1116.5 c 128,-1,71
 402 1073 402 1073 402 1027 c 2,72,-1
 402 968 l 1,73,-1
 627 968 l 2,74,75
 642 968 642 968 652 958 c 128,-1,76
 662 948 662 948 662 928 c 0,0,1
EndSplineSet
Substitution2: "'smcp' Lowercase to Small Capitals in Latin lookup 1 subtable" uniA730
EndChar

StartChar: g
Encoding: 103 103 74
Width: 1103
GlyphClass: 2
Flags: W
LayerCount: 2
Fore
SplineSet
998 -179 m 2,0,1
 998 -271 998 -271 985 -322 c 0,2,3
 971 -378 971 -378 944 -401 c 0,4,5
 895 -443 895 -443 804 -478 c 2,6,-1
 598 -555 l 1,7,-1
 529 -581 l 2,8,9
 499 -592 499 -592 470 -593 c 0,10,11
 457 -594 457 -594 446 -593.5 c 128,-1,12
 435 -593 435 -593 427 -593 c 0,13,14
 278 -588 278 -588 168 -469 c 0,15,16
 113 -408 113 -408 78 -322 c 0,17,18
 76 -318 76 -318 77 -314 c 0,19,20
 77 -307 77 -307 83 -301 c 0,21,22
 86 -298 86 -298 90 -296 c 0,23,24
 177 -262 177 -262 268 -229 c 0,25,26
 272 -228 272 -228 276 -228 c 0,27,28
 283 -228 283 -228 289 -234 c 0,29,30
 292 -237 292 -237 294 -241 c 0,31,32
 320 -315 320 -315 374.5 -369.5 c 128,-1,33
 429 -424 429 -424 496 -442 c 0,34,35
 531 -451 531 -451 566 -451 c 0,36,37
 579 -451 579 -451 598.5 -449 c 128,-1,38
 618 -447 618 -447 635 -440 c 128,-1,39
 652 -433 652 -433 670.5 -426.5 c 128,-1,40
 689 -420 689 -420 709 -413 c 0,41,42
 748 -393 748 -393 761 -330 c 0,43,44
 777 -259 777 -259 777 -237 c 2,45,-1
 777 55 l 1,46,-1
 529 -33 l 2,47,48
 495 -45 495 -45 469 -45 c 2,49,-1
 428 -45 l 2,50,51
 277 -45 277 -45 167 79 c 0,52,53
 42 220 42 220 42 434 c 0,54,55
 42 496 42 496 48 541 c 0,56,57
 62 633 62 633 110 710 c 0,58,59
 146 768 146 768 205 812 c 0,60,61
 236 835 236 835 265 849 c 0,62,63
 493 934 493 934 596 968 c 0,64,65
 617 975 617 975 647 975 c 128,-1,66
 677 975 677 975 721 964 c 0,67,68
 753 957 753 957 879 911 c 0,69,70
 880 912 880 912 880 912 c 0,71,72
 886 912 886 912 889 915 c 128,-1,73
 892 918 892 918 894 922 c 0,74,75
 908 949 908 949 924 954 c 0,76,77
 934 961 934 961 946 961.5 c 128,-1,78
 958 962 958 962 974 954 c 0,79,80
 982 950 982 950 987 945 c 0,81,82
 998 934 998 934 998 919 c 2,83,-1
 998 868 l 1,84,-1
 998 134 l 1,85,-1
 998 -179 l 2,0,1
276 373 m 0,86,87
 295 277 295 277 346 208 c 0,88,89
 429 95 429 95 556 95 c 0,90,91
 606 95 606 95 668 118 c 2,92,-1
 777 157 l 1,93,-1
 777 766 l 1,94,95
 745 790 745 790 687 819 c 0,96,97
 637 843 637 843 607 849 c 0,98,99
 595 852 595 852 582 852 c 0,100,101
 556 852 556 852 524 842 c 0,102,103
 444 817 444 817 423 806 c 0,104,105
 369 786 369 786 339 753 c 0,106,107
 300 711 300 711 273 599 c 0,108,109
 263 553 263 553 263 494 c 0,110,111
 263 434 263 434 276 373 c 0,86,87
EndSplineSet
Substitution2: "'sups' Superscript in Latin lookup 8 subtable" uni1D4D
Substitution2: "'smcp' Lowercase to Small Capitals in Latin lookup 1 subtable" uni0262
EndChar

StartChar: h
Encoding: 104 104 75
Width: 1211
GlyphClass: 2
Flags: W
LayerCount: 2
Fore
SplineSet
379 146 m 2,0,1
 379 111 379 111 395 95 c 0,2,3
 403 87 403 87 416 82 c 0,4,5
 479 60 479 60 479 21 c 0,6,7
 479 2 479 2 468 -9 c 128,-1,8
 457 -20 457 -20 439 -20 c 2,9,-1
 106 -20 l 2,10,11
 87 -20 87 -20 76 -9 c 128,-1,12
 65 2 65 2 65 21 c 0,13,14
 65 60 65 60 128 82 c 0,15,16
 140 86 140 86 149 95 c 0,17,18
 165 111 165 111 165 146 c 2,19,-1
 165 1258 l 2,20,21
 165 1291 165 1291 149 1308 c 0,22,23
 141 1316 141 1316 128 1320 c 0,24,25
 65 1343 65 1343 65 1383 c 0,26,27
 65 1402 65 1402 76 1413 c 128,-1,28
 87 1424 87 1424 106 1424 c 0,29,30
 160 1424 160 1424 224 1443 c 0,31,32
 275 1458 275 1458 299 1486 c 0,33,34
 310 1499 310 1499 324 1499 c 0,35,36
 327 1499 327 1499 329 1499 c 0,37,38
 355 1495 355 1495 367 1483 c 128,-1,39
 379 1471 379 1471 379 1456 c 2,40,-1
 379 878 l 1,41,42
 410 890 410 890 440 902 c 0,43,44
 498 925 498 925 580.5 953.5 c 128,-1,45
 663 982 663 982 756 982 c 128,-1,46
 849 982 849 982 930 921 c 0,47,48
 1053 828 1053 828 1053 506 c 2,49,-1
 1053 146 l 2,50,51
 1053 95 1053 95 1090 82 c 0,52,53
 1153 60 1153 60 1153 23 c 0,54,55
 1153 -20 1153 -20 1113 -20 c 2,56,-1
 876 -20 l 2,57,58
 839 -20 839 -20 839 13 c 2,59,-1
 839 506 l 2,60,61
 839 715 839 715 755 798 c 0,62,63
 702 851 702 851 626 851 c 0,64,65
 554 851 554 851 379 777 c 1,66,-1
 379 146 l 2,0,1
EndSplineSet
Substitution2: "'smcp' Lowercase to Small Capitals in Latin lookup 1 subtable" uni029C
EndChar

StartChar: i
Encoding: 105 105 76
Width: 593
GlyphClass: 2
Flags: W
LayerCount: 2
Fore
SplineSet
282 1149 m 0,0,1
 281 1149 281 1149 279 1149 c 0,2,3
 223 1149 223 1149 182 1190 c 0,4,5
 140 1232 140 1232 140 1291 c 128,-1,6
 140 1350 140 1350 181.5 1391.5 c 128,-1,7
 223 1433 223 1433 282 1433 c 128,-1,8
 341 1433 341 1433 382.5 1391 c 128,-1,9
 424 1349 424 1349 424 1290.5 c 128,-1,10
 424 1232 424 1232 382.5 1190.5 c 128,-1,11
 341 1149 341 1149 282 1149 c 0,0,1
402 146 m 2,12,13
 402 111 402 111 418 95 c 0,14,15
 426 87 426 87 439 82 c 0,16,17
 502 60 502 60 502 21 c 0,18,19
 502 2 502 2 491 -9 c 128,-1,20
 480 -20 480 -20 462 -20 c 2,21,-1
 129 -20 l 2,22,23
 110 -20 110 -20 99 -9 c 128,-1,24
 88 2 88 2 88 21 c 0,25,26
 88 60 88 60 151 82 c 0,27,28
 163 86 163 86 172 95 c 0,29,30
 188 111 188 111 188 146 c 2,31,-1
 188 783 l 2,32,33
 188 816 188 816 172 833 c 0,34,35
 164 841 164 841 151 845 c 0,36,37
 88 868 88 868 88 908 c 0,38,39
 88 927 88 927 99 938 c 128,-1,40
 110 949 110 949 129 949 c 0,41,42
 183 949 183 949 247 968 c 0,43,44
 298 983 298 983 322 1011 c 0,45,46
 333 1024 333 1024 347 1024 c 0,47,48
 350 1024 350 1024 352 1024 c 0,49,50
 378 1020 378 1020 390 1008 c 128,-1,51
 402 996 402 996 402 981 c 2,52,-1
 402 146 l 2,12,13
EndSplineSet
Substitution2: "'smcp' Lowercase to Small Capitals in Latin lookup 1 subtable" uni026A
EndChar

StartChar: j
Encoding: 106 106 77
Width: 487
GlyphClass: 2
Flags: W
LayerCount: 2
Fore
SplineSet
26 -587 m 0,0,1
 18 -587 18 -587 12.5 -581 c 128,-1,2
 7 -575 7 -575 7 -567 c 2,3,-1
 7 -517 l 2,4,5
 7 -506 7 -506 17 -500 c 0,6,7
 107 -446 107 -446 135 -351 c 0,8,9
 146 -313 146 -313 147 -242 c 0,10,11
 147 -129 147 -129 147 6 c 2,12,-1
 147 783 l 2,13,14
 147 816 147 816 131 833 c 0,15,16
 123 841 123 841 110 845 c 0,17,18
 47 868 47 868 47 908 c 0,19,20
 47 927 47 927 58 938 c 128,-1,21
 69 949 69 949 88 949 c 0,22,23
 142 949 142 949 206 968 c 0,24,25
 257 983 257 983 281 1011 c 0,26,27
 292 1024 292 1024 306 1024 c 0,28,29
 309 1024 309 1024 311 1024 c 0,30,31
 337 1020 337 1020 349 1008 c 128,-1,32
 361 996 361 996 361 981 c 2,33,-1
 361 12 l 1,34,35
 360 -187 360 -187 337 -287 c 0,36,37
 313 -391 313 -391 240 -464 c 0,38,39
 145 -559 145 -559 32 -586 c 0,40,41
 29 -587 29 -587 26 -587 c 0,0,1
252 1149 m 0,42,43
 251 1149 251 1149 249 1149 c 0,44,45
 193 1149 193 1149 152 1190 c 0,46,47
 110 1232 110 1232 110 1291 c 128,-1,48
 110 1350 110 1350 151.5 1391.5 c 128,-1,49
 193 1433 193 1433 252 1433 c 128,-1,50
 311 1433 311 1433 352.5 1391 c 128,-1,51
 394 1349 394 1349 394 1290.5 c 128,-1,52
 394 1232 394 1232 352.5 1190.5 c 128,-1,53
 311 1149 311 1149 252 1149 c 0,42,43
EndSplineSet
Substitution2: "'smcp' Lowercase to Small Capitals in Latin lookup 1 subtable" uni1D0A
EndChar

StartChar: k
Encoding: 107 107 78
Width: 1163
GlyphClass: 2
Flags: W
LayerCount: 2
Fore
SplineSet
1109 68 m 2,0,-1
 1116 68 l 1,1,-1
 1117 68 l 2,2,3
 1146 67 1146 67 1160 53 c 0,4,5
 1172 41 1172 41 1172 23 c 0,6,7
 1172 11 1172 11 1163 1 c 0,8,9
 1158 -4 1158 -4 1150 -7 c 2,10,-1
 1094 -34 l 2,11,12
 1033 -63 1033 -63 990 -63 c 0,13,14
 880 -63 880 -63 792 34 c 2,15,-1
 402 462 l 1,16,-1
 402 146 l 2,17,18
 402 111 402 111 418 95 c 0,19,20
 426 87 426 87 439 82 c 0,21,22
 502 60 502 60 502 21 c 0,23,24
 502 2 502 2 491 -9 c 128,-1,25
 480 -20 480 -20 462 -20 c 2,26,-1
 129 -20 l 2,27,28
 110 -20 110 -20 99 -9 c 128,-1,29
 88 2 88 2 88 21 c 0,30,31
 88 60 88 60 151 82 c 0,32,33
 163 86 163 86 172 95 c 0,34,35
 188 111 188 111 188 146 c 2,36,-1
 188 1258 l 2,37,38
 188 1291 188 1291 172 1308 c 0,39,40
 164 1316 164 1316 151 1320 c 0,41,42
 88 1343 88 1343 88 1383 c 0,43,44
 88 1402 88 1402 99 1413 c 128,-1,45
 110 1424 110 1424 129 1424 c 0,46,47
 183 1424 183 1424 247 1443 c 0,48,49
 298 1458 298 1458 322 1486 c 0,50,51
 333 1499 333 1499 347 1499 c 0,52,53
 350 1499 350 1499 352 1499 c 0,54,55
 378 1495 378 1495 390 1483 c 128,-1,56
 402 1471 402 1471 402 1456 c 2,57,-1
 402 616 l 1,58,59
 516 707 516 707 827 947 c 0,60,61
 856 970 856 970 887 970 c 0,62,63
 907 970 907 970 927 960 c 0,64,65
 956 944 956 944 985 928 c 128,-1,66
 1014 912 1014 912 1016.5 910.5 c 128,-1,67
 1019 909 1019 909 1023 905 c 0,68,69
 1034 894 1034 894 1034 880 c 0,70,71
 1034 870 1034 870 1030 862 c 2,72,-1
 983 754 l 2,73,74
 981 751 981 751 979 748 c 0,75,76
 973 742 973 742 967 742 c 128,-1,77
 961 742 961 742 955 745 c 2,78,-1
 906 773 l 2,79,80
 881 787 881 787 857.5 787 c 128,-1,81
 834 787 834 787 810 768 c 0,82,83
 724 700 724 700 568 578 c 1,84,-1
 915 189 l 2,85,86
 992 102 992 102 1032 84 c 0,87,88
 1068 68 1068 68 1109 68 c 2,0,-1
EndSplineSet
Substitution2: "'sups' Superscript in Latin lookup 8 subtable" uni1D4F
Substitution2: "'smcp' Lowercase to Small Capitals in Latin lookup 1 subtable" uni1D0B
EndChar

StartChar: l
Encoding: 108 108 79
Width: 597
GlyphClass: 2
Flags: W
LayerCount: 2
Fore
SplineSet
402 146 m 2,0,1
 402 111 402 111 418 95 c 0,2,3
 426 87 426 87 439 82 c 0,4,5
 502 60 502 60 502 21 c 0,6,7
 502 2 502 2 491 -9 c 128,-1,8
 480 -20 480 -20 462 -20 c 2,9,-1
 129 -20 l 2,10,11
 110 -20 110 -20 99 -9 c 128,-1,12
 88 2 88 2 88 21 c 0,13,14
 88 60 88 60 151 82 c 0,15,16
 163 86 163 86 172 95 c 0,17,18
 188 111 188 111 188 146 c 2,19,-1
 188 1258 l 2,20,21
 188 1291 188 1291 172 1308 c 0,22,23
 164 1316 164 1316 151 1320 c 0,24,25
 88 1343 88 1343 88 1383 c 0,26,27
 88 1402 88 1402 99 1413 c 128,-1,28
 110 1424 110 1424 129 1424 c 0,29,30
 183 1424 183 1424 247 1443 c 0,31,32
 298 1458 298 1458 322 1486 c 0,33,34
 333 1499 333 1499 347 1499 c 0,35,36
 350 1499 350 1499 352 1499 c 0,37,38
 378 1495 378 1495 390 1483 c 128,-1,39
 402 1471 402 1471 402 1456 c 2,40,-1
 402 146 l 2,0,1
EndSplineSet
Validated: 1
Substitution2: "'smcp' Lowercase to Small Capitals in Latin lookup 1 subtable" uni029F
EndChar

StartChar: m
Encoding: 109 109 80
Width: 1773
GlyphClass: 2
Flags: W
LayerCount: 2
Fore
SplineSet
393 146 m 2,0,1
 393 111 393 111 409 95 c 0,2,3
 417 87 417 87 430 82 c 0,4,5
 493 60 493 60 493 21 c 0,6,7
 493 2 493 2 482 -9 c 128,-1,8
 471 -20 471 -20 453 -20 c 2,9,-1
 120 -20 l 2,10,11
 101 -20 101 -20 90 -9 c 128,-1,12
 79 2 79 2 79 21 c 0,13,14
 79 60 79 60 142 82 c 0,15,16
 154 86 154 86 163 95 c 0,17,18
 179 111 179 111 179 146 c 2,19,-1
 179 783 l 2,20,21
 179 816 179 816 163 833 c 0,22,23
 155 841 155 841 142 845 c 0,24,25
 79 868 79 868 79 908 c 0,26,27
 79 927 79 927 90 938 c 128,-1,28
 101 949 101 949 120 949 c 0,29,30
 174 949 174 949 238 968 c 0,31,32
 289 983 289 983 313 1011 c 0,33,34
 324 1024 324 1024 338 1024 c 0,35,36
 341 1024 341 1024 343 1024 c 0,37,38
 369 1020 369 1020 381 1008 c 128,-1,39
 393 996 393 996 393 981 c 2,40,-1
 393 885 l 1,41,42
 414 893 414 893 436 902 c 0,43,44
 494 925 494 925 558 947 c 1,45,46
 706 982 706 982 727.5 982 c 128,-1,47
 749 982 749 982 750 982 c 0,48,49
 845 982 845 982 926 921 c 0,50,51
 946 906 946 906 962 886 c 1,52,53
 984 894 984 894 1004 902 c 0,54,55
 1062 925 1062 925 1144.5 953.5 c 128,-1,56
 1227 982 1227 982 1320 982 c 128,-1,57
 1413 982 1413 982 1494 921 c 0,58,59
 1617 828 1617 828 1617 506 c 2,60,-1
 1617 146 l 2,61,62
 1617 95 1617 95 1654 82 c 0,63,64
 1717 60 1717 60 1717 23 c 0,65,66
 1717 -20 1717 -20 1677 -20 c 2,67,-1
 1440 -20 l 2,68,69
 1403 -20 1403 -20 1403 13 c 2,70,-1
 1403 506 l 2,71,72
 1403 715 1403 715 1319 798 c 0,73,74
 1266 851 1266 851 1190 851 c 0,75,76
 1132 851 1132 851 1007 803 c 1,77,78
 1049 693 1049 693 1049 506 c 2,79,-1
 1049 146 l 2,80,81
 1049 95 1049 95 1086 82 c 0,82,83
 1149 60 1149 60 1149 20 c 128,-1,84
 1149 -20 1149 -20 1109 -20 c 2,85,-1
 776 -20 l 2,86,87
 735 -20 735 -20 735 20 c 128,-1,88
 735 60 735 60 798 82 c 0,89,90
 835 95 835 95 835 146 c 2,91,-1
 835 506 l 2,92,93
 835 717 835 717 750 800 c 0,94,95
 698 851 698 851 622 851 c 0,96,97
 553 851 553 851 393 785 c 1,98,-1
 393 146 l 2,0,1
EndSplineSet
Substitution2: "'sups' Superscript in Latin lookup 8 subtable" uni1D50
Substitution2: "'smcp' Lowercase to Small Capitals in Latin lookup 1 subtable" uni1D0D
EndChar

StartChar: n
Encoding: 110 110 81
Width: 1211
GlyphClass: 2
Flags: W
LayerCount: 2
Fore
SplineSet
380 146 m 2,0,1
 380 111 380 111 396 95 c 0,2,3
 404 87 404 87 417 82 c 0,4,5
 480 60 480 60 480 21 c 0,6,7
 480 2 480 2 469 -9 c 128,-1,8
 458 -20 458 -20 440 -20 c 2,9,-1
 107 -20 l 2,10,11
 88 -20 88 -20 77 -9 c 128,-1,12
 66 2 66 2 66 21 c 0,13,14
 66 60 66 60 129 82 c 0,15,16
 141 86 141 86 150 95 c 0,17,18
 166 111 166 111 166 146 c 2,19,-1
 166 783 l 2,20,21
 166 816 166 816 150 833 c 0,22,23
 142 841 142 841 129 845 c 0,24,25
 66 868 66 868 66 908 c 0,26,27
 66 927 66 927 77 938 c 128,-1,28
 88 949 88 949 107 949 c 0,29,30
 161 949 161 949 225 968 c 0,31,32
 276 983 276 983 300 1011 c 0,33,34
 311 1024 311 1024 325 1024 c 0,35,36
 328 1024 328 1024 330 1024 c 0,37,38
 356 1020 356 1020 368 1008 c 128,-1,39
 380 996 380 996 380 981 c 2,40,-1
 380 878 l 1,41,42
 410 890 410 890 440 902 c 0,43,44
 498 925 498 925 581 953.5 c 128,-1,45
 664 982 664 982 757 982 c 128,-1,46
 850 982 850 982 931 921 c 0,47,48
 1054 828 1054 828 1054 506 c 2,49,-1
 1054 146 l 2,50,51
 1054 95 1054 95 1091 82 c 0,52,53
 1154 60 1154 60 1154 23 c 0,54,55
 1154 -20 1154 -20 1114 -20 c 2,56,-1
 877 -20 l 2,57,58
 840 -20 840 -20 840 13 c 2,59,-1
 840 506 l 2,60,61
 840 715 840 715 756 798 c 0,62,63
 704 851 704 851 628 851 c 0,64,65
 556 851 556 851 380 777 c 1,66,-1
 380 146 l 2,0,1
EndSplineSet
Substitution2: "'smcp' Lowercase to Small Capitals in Latin lookup 1 subtable" uni0274
EndChar

StartChar: o
Encoding: 111 111 82
Width: 1107
GlyphClass: 2
Flags: W
LayerCount: 2
Fore
SplineSet
544 869 m 2,0,1
 437 869 437 869 355.5 759 c 128,-1,2
 274 649 274 649 274 480.5 c 128,-1,3
 274 312 274 312 358 189 c 0,4,5
 440 69 440 69 554 63 c 1,6,-1
 568 63 l 2,7,8
 674 63 674 63 755 172.5 c 128,-1,9
 836 282 836 282 836 450.5 c 128,-1,10
 836 619 836 619 751 742 c 0,11,12
 669 862 669 862 555 869 c 1,13,-1
 544 869 l 2,0,1
537 -45 m 2,14,15
 337 -45 337 -45 189.5 105 c 128,-1,16
 42 255 42 255 42 462 c 2,17,-1
 42 465 l 1,18,19
 43 693 43 693 213 848 c 0,20,21
 235 869 235 869 275 882 c 0,22,23
 286 886 286 886 484 956 c 0,24,25
 542 976 542 976 574 976 c 2,26,-1
 577 976 l 2,27,28
 577 976 577 976 578 976 c 0,29,30
 781 968 781 968 921.5 819.5 c 128,-1,31
 1062 671 1062 671 1065 465 c 1,32,-1
 1065 459 l 2,33,34
 1065 251 1065 251 916.5 106 c 128,-1,35
 768 -39 768 -39 554 -45 c 0,36,37
 554 -45 554 -45 553 -45 c 2,38,-1
 537 -45 l 2,14,15
EndSplineSet
Validated: 1
Substitution2: "'sups' Superscript in Latin lookup 8 subtable" uni1D52
Substitution2: "'smcp' Lowercase to Small Capitals in Latin lookup 1 subtable" uni1D0F
EndChar

StartChar: p
Encoding: 112 112 83
Width: 1197
GlyphClass: 2
Flags: W
LayerCount: 2
Fore
SplineSet
402 -441 m 2,0,1
 402 -476 402 -476 418 -492 c 0,2,3
 426 -500 426 -500 439 -505 c 0,4,5
 502 -527 502 -527 502 -566 c 0,6,7
 502 -585 502 -585 491 -596 c 128,-1,8
 480 -607 480 -607 462 -607 c 2,9,-1
 129 -607 l 2,10,11
 110 -607 110 -607 99 -596 c 128,-1,12
 88 -585 88 -585 88 -566 c 0,13,14
 88 -527 88 -527 151 -505 c 0,15,16
 163 -501 163 -501 172 -492 c 0,17,18
 188 -476 188 -476 188 -441 c 2,19,-1
 188 783 l 2,20,21
 188 816 188 816 172 833 c 0,22,23
 164 841 164 841 151 845 c 0,24,25
 88 868 88 868 88 908 c 0,26,27
 88 927 88 927 99 938 c 128,-1,28
 110 949 110 949 129 949 c 0,29,30
 183 949 183 949 247 968 c 0,31,32
 298 983 298 983 322 1011 c 0,33,34
 333 1024 333 1024 347 1024 c 0,35,36
 350 1024 350 1024 352 1024 c 0,37,38
 378 1020 378 1020 390 1008 c 128,-1,39
 402 996 402 996 402 981 c 2,40,-1
 402 872 l 1,41,-1
 658 963 l 2,42,43
 692 975 692 975 718 975 c 2,44,-1
 759 975 l 2,45,46
 910 975 910 975 1020 851 c 0,47,48
 1145 710 1145 710 1145 496 c 0,49,50
 1145 434 1145 434 1139 389 c 0,51,52
 1125 297 1125 297 1077 220 c 0,53,54
 1041 162 1041 162 982 118 c 0,55,56
 951 95 951 95 922 81 c 0,57,58
 694 -4 694 -4 591 -38 c 0,59,60
 570 -45 570 -45 540 -45 c 128,-1,61
 510 -45 510 -45 466 -34 c 0,62,63
 448 -30 448 -30 402 -14 c 1,64,-1
 402 -441 l 2,0,1
911 557 m 0,65,66
 892 653 892 653 841 722 c 0,67,68
 758 835 758 835 631 835 c 0,69,70
 581 835 581 835 519 812 c 2,71,-1
 402 770 l 1,72,-1
 402 170 l 1,73,74
 435 143 435 143 500 111 c 0,75,76
 550 87 550 87 580 81 c 0,77,78
 592 78 592 78 605 78 c 0,79,80
 631 78 631 78 663 88 c 0,81,82
 743 113 743 113 764 124 c 0,83,84
 818 144 818 144 848 177 c 0,85,86
 887 219 887 219 914 331 c 0,87,88
 924 377 924 377 924 436 c 0,89,90
 924 496 924 496 911 557 c 0,65,66
EndSplineSet
Substitution2: "'sups' Superscript in Latin lookup 8 subtable" uni1D56
Substitution2: "'smcp' Lowercase to Small Capitals in Latin lookup 1 subtable" uni1D18
EndChar

StartChar: q
Encoding: 113 113 84
Width: 1173
GlyphClass: 2
Flags: W
LayerCount: 2
Fore
SplineSet
1013 -440 m 2,0,1
 1013 -475 1013 -475 1030 -492 c 0,2,3
 1038 -500 1038 -500 1050 -504 c 0,4,5
 1113 -527 1113 -527 1113 -567 c 0,6,7
 1113 -585 1113 -585 1102 -596 c 128,-1,8
 1091 -607 1091 -607 1072 -607 c 2,9,-1
 733 -607 l 2,10,11
 714 -607 714 -607 703 -596 c 128,-1,12
 692 -585 692 -585 692 -566 c 128,-1,13
 692 -547 692 -547 707.5 -531.5 c 128,-1,14
 723 -516 723 -516 755 -504 c 0,15,16
 767 -500 767 -500 775 -492 c 0,17,18
 792 -475 792 -475 792 -440 c 2,19,-1
 792 55 l 1,20,-1
 544 -33 l 2,21,22
 510 -45 510 -45 484 -45 c 2,23,-1
 443 -45 l 2,24,25
 292 -45 292 -45 182 79 c 0,26,27
 57 220 57 220 57 434 c 0,28,29
 57 496 57 496 63 541 c 0,30,31
 77 633 77 633 125 710 c 0,32,33
 161 768 161 768 220 812 c 0,34,35
 251 835 251 835 280 849 c 0,36,37
 508 934 508 934 611 968 c 0,38,39
 632 975 632 975 662 975 c 128,-1,40
 692 975 692 975 736 964 c 0,41,42
 767 957 767 957 888 914 c 0,43,44
 894 912 894 912 898 912 c 0,45,46
 904 912 904 912 905.5 914 c 128,-1,47
 907 916 907 916 908 920 c 0,48,49
 922 956 922 956 948 956 c 2,50,-1
 980 956 l 2,51,52
 994 956 994 956 1003.5 946.5 c 128,-1,53
 1013 937 1013 937 1013 919 c 2,54,-1
 1013 868 l 1,55,-1
 1013 134 l 1,56,-1
 1013 -440 l 2,0,1
291 373 m 0,57,58
 310 277 310 277 361 208 c 0,59,60
 444 95 444 95 571 95 c 0,61,62
 621 95 621 95 683 118 c 2,63,-1
 792 157 l 1,64,-1
 792 766 l 1,65,66
 760 790 760 790 702 819 c 0,67,68
 652 843 652 843 622 849 c 0,69,70
 610 852 610 852 597 852 c 0,71,72
 571 852 571 852 539 842 c 0,73,74
 459 817 459 817 438 806 c 0,75,76
 384 786 384 786 354 753 c 0,77,78
 315 711 315 711 288 599 c 0,79,80
 278 553 278 553 278 494 c 0,81,82
 278 434 278 434 291 373 c 0,57,58
EndSplineSet
Substitution2: "'smcp' Lowercase to Small Capitals in Latin lookup 1 subtable" uniA7AF
EndChar

StartChar: r
Encoding: 114 114 85
Width: 815
GlyphClass: 2
Flags: W
LayerCount: 2
Fore
SplineSet
402 146 m 2,0,1
 402 111 402 111 418 95 c 0,2,3
 426 87 426 87 439 82 c 0,4,5
 502 60 502 60 502 21 c 0,6,7
 502 2 502 2 491 -9 c 128,-1,8
 480 -20 480 -20 462 -20 c 2,9,-1
 129 -20 l 2,10,11
 110 -20 110 -20 99 -9 c 128,-1,12
 88 2 88 2 88 21 c 0,13,14
 88 60 88 60 151 82 c 0,15,16
 163 86 163 86 172 95 c 0,17,18
 188 111 188 111 188 146 c 2,19,-1
 188 783 l 2,20,21
 188 816 188 816 172 833 c 0,22,23
 164 841 164 841 151 845 c 0,24,25
 88 868 88 868 88 908 c 0,26,27
 88 927 88 927 99 938 c 128,-1,28
 110 949 110 949 129 949 c 0,29,30
 183 949 183 949 247 968 c 0,31,32
 298 983 298 983 322 1011 c 0,33,34
 333 1024 333 1024 347 1024 c 0,35,36
 350 1024 350 1024 352 1024 c 0,37,38
 378 1020 378 1020 390 1008 c 128,-1,39
 402 996 402 996 402 981 c 2,40,-1
 402 888 l 1,41,-1
 517 932 l 2,42,43
 608 966 608 966 638 975 c 0,44,45
 654 980 654 980 675 980 c 0,46,47
 715 980 715 980 776 959 c 0,48,49
 780 958 780 958 783 954 c 0,50,51
 789 948 789 948 789 940 c 0,52,53
 789 939 789 939 767 687 c 0,54,55
 766 680 766 680 760.5 674.5 c 128,-1,56
 755 669 755 669 747 669 c 2,57,-1
 701 669 l 2,58,59
 693 669 693 669 688 674 c 128,-1,60
 683 679 683 679 682 684 c 0,61,62
 664 750 664 750 631.5 782.5 c 128,-1,63
 599 815 599 815 551 815 c 0,64,65
 470 815 470 815 438 747 c 0,66,67
 409 686 409 686 402 622 c 1,68,-1
 402 146 l 2,0,1
EndSplineSet
Validated: 1
Substitution2: "'smcp' Lowercase to Small Capitals in Latin lookup 1 subtable" uni0280
EndChar

StartChar: s
Encoding: 115 115 86
Width: 884
GlyphClass: 2
Flags: W
LayerCount: 2
Fore
SplineSet
731 659 m 2,0,-1
 728 659 l 2,1,2
 715 659 715 659 705 669 c 128,-1,3
 695 679 695 679 688 695 c 0,4,5
 654 765 654 765 589.5 812 c 128,-1,6
 525 859 525 859 452 862 c 1,7,-1
 448 862 l 2,8,9
 391 862 391 862 335 833 c 0,10,11
 283 806 283 806 271 749 c 0,12,13
 271 749 271 749 270 749 c 0,14,15
 265 729 265 729 266 713 c 0,16,17
 266 680 266 680 288 657 c 0,18,19
 300 645 300 645 318 636 c 0,20,21
 379 606 379 606 490.5 581 c 128,-1,22
 602 556 602 556 710 506 c 0,23,24
 826 452 826 452 837 284 c 0,25,26
 837 283 837 283 837 283 c 2,27,-1
 837 273 l 2,28,29
 837 192 837 192 773 110 c 0,30,31
 710 28 710 28 611 -6 c 128,-1,32
 512 -40 512 -40 420 -43 c 0,33,34
 420 -43 420 -43 419 -43 c 2,35,-1
 392 -43 l 2,36,37
 266 -43 266 -43 151 -10 c 0,38,39
 141 -7 141 -7 138 2 c 2,40,-1
 57 222 l 2,41,42
 56 225 56 225 56 227.5 c 128,-1,43
 56 230 56 230 59 251 c 0,44,45
 60 265 60 265 69.5 274.5 c 128,-1,46
 79 284 79 284 97 284 c 2,47,-1
 99 284 l 2,48,49
 120 284 120 284 138 249 c 0,50,51
 138 249 138 249 138 248 c 0,52,53
 181 154 181 154 243 116 c 128,-1,54
 305 78 305 78 401 75 c 1,55,-1
 413 75 l 2,56,57
 480 75 480 75 565 108 c 0,58,59
 594 119 594 119 613 138 c 0,60,61
 643 168 643 168 645 218 c 1,62,-1
 645 224 l 2,63,64
 645 280 645 280 614 310 c 0,65,66
 593 331 593 331 556 342 c 2,67,-1
 362 397 l 2,68,69
 269 423 269 423 180 483 c 0,70,71
 85 547 85 547 85 672 c 2,72,-1
 85 677 l 1,73,74
 86 844 86 844 210 913 c 0,75,76
 329 979 329 979 466 979 c 0,77,78
 479 979 479 979 491 978 c 0,79,80
 643 970 643 970 779 886 c 0,81,82
 789 880 789 880 788 869 c 0,83,84
 788 868 788 868 767 691 c 0,85,86
 765 677 765 677 756 668 c 128,-1,87
 747 659 747 659 731 659 c 2,0,-1
EndSplineSet
Validated: 1
Substitution2: "'hist' Historical Forms in Latin lookup 15 subtable" longs
Substitution2: "'smcp' Lowercase to Small Capitals in Latin lookup 1 subtable" uniA731
EndChar

StartChar: t
Encoding: 116 116 87
Width: 648
GlyphClass: 2
Flags: W
LayerCount: 2
Fore
SplineSet
69 820 m 0,0,1
 51 820 51 820 41 831 c 0,2,3
 29 843 29 843 29 860 c 2,4,-1
 29 862 l 2,5,6
 29 880 29 880 42 893 c 0,7,8
 49 900 49 900 64 907 c 128,-1,9
 79 914 79 914 118 935 c 0,10,11
 158 957 158 957 168 960 c 1,12,-1
 168 1116 l 2,13,14
 168 1175 168 1175 195 1200 c 0,15,16
 218 1222 218 1222 271 1247 c 0,17,18
 326 1273 326 1273 345.5 1273 c 128,-1,19
 365 1273 365 1273 377 1261 c 128,-1,20
 389 1249 389 1249 389 1227 c 2,21,-1
 389 968 l 1,22,-1
 608 973 l 2,23,24
 623 973 623 973 633 963 c 128,-1,25
 643 953 643 953 643 932 c 128,-1,26
 643 911 643 911 639 889 c 0,27,28
 633 859 633 859 616 842.5 c 128,-1,29
 599 826 599 826 574 826 c 0,30,31
 505 826 505 826 389 827 c 1,32,-1
 389 220 l 2,33,34
 389 139 389 139 444 100 c 0,35,36
 503 58 503 58 544 53 c 0,37,38
 551 52 551 52 556 46.5 c 128,-1,39
 561 41 561 41 561 33 c 2,40,-1
 561 0 l 2,41,42
 561 -8 561 -8 555 -14 c 128,-1,43
 549 -20 549 -20 541 -20 c 0,44,45
 389 -20 389 -20 285 9 c 0,46,47
 252 18 252 18 227 43 c 0,48,49
 168 102 168 102 168 250 c 2,50,-1
 168 824 l 1,51,52
 69 820 69 820 69 820 c 0,0,1
EndSplineSet
Validated: 1
Substitution2: "'sups' Superscript in Latin lookup 8 subtable" uni1D57
Substitution2: "'smcp' Lowercase to Small Capitals in Latin lookup 1 subtable" uni1D1B
EndChar

StartChar: u
Encoding: 117 117 88
Width: 1217
GlyphClass: 2
Flags: W
LayerCount: 2
Fore
SplineSet
471 131 m 0,0,1
 523 80 523 80 597.5 80 c 128,-1,2
 672 80 672 80 846 153 c 1,3,-1
 846 783 l 2,4,5
 846 816 846 816 830 833 c 0,6,7
 822 841 822 841 809 845 c 0,8,9
 746 868 746 868 746 908 c 0,10,11
 746 927 746 927 757 938 c 128,-1,12
 768 949 768 949 787 949 c 0,13,14
 841 950 841 950 900 967 c 0,15,16
 954 983 954 983 980 1012 c 0,17,18
 992 1025 992 1025 1010 1025 c 0,19,20
 1021 1025 1021 1025 1031 1019 c 0,21,22
 1060 1004 1060 1004 1060 981 c 2,23,-1
 1060 146 l 2,24,25
 1060 111 1060 111 1076 95 c 0,26,27
 1084 87 1084 87 1097 82 c 0,28,29
 1160 60 1160 60 1160 23 c 0,30,31
 1160 3 1160 3 1148.5 -8.5 c 128,-1,32
 1137 -20 1137 -20 1119 -20 c 2,33,-1
 883 -20 l 2,34,35
 865 -20 865 -20 855.5 -10.5 c 128,-1,36
 846 -1 846 -1 846 13 c 2,37,-1
 846 51 l 1,38,39
 603 -50 603 -50 465 -50 c 0,40,41
 375 -50 375 -50 295 10 c 0,42,43
 165 108 165 108 165 425 c 2,44,-1
 165 783 l 2,45,46
 165 816 165 816 149 833 c 0,47,48
 141 841 141 841 128 845 c 0,49,50
 65 868 65 868 65 908 c 0,51,52
 65 927 65 927 76 938 c 128,-1,53
 87 949 87 949 106 949 c 0,54,55
 160 950 160 950 219 967 c 0,56,57
 273 983 273 983 299 1012 c 0,58,59
 310 1024 310 1024 327 1024 c 0,60,61
 338 1024 338 1024 350 1018 c 0,62,63
 379 1003 379 1003 379 981 c 2,64,-1
 379 834 l 1,65,66
 378 482 378 482 378 482 c 2,67,-1
 378 415 l 2,68,69
 378 221 378 221 471 131 c 0,0,1
EndSplineSet
Validated: 1
Substitution2: "'sups' Superscript in Latin lookup 8 subtable" uni1D58
Substitution2: "'smcp' Lowercase to Small Capitals in Latin lookup 1 subtable" uni1D1C
EndChar

StartChar: v
Encoding: 118 118 89
Width: 1036
GlyphClass: 2
Flags: W
LayerCount: 2
Fore
SplineSet
23 886 m 0,0,1
 11 898 11 898 11 914.5 c 128,-1,2
 11 931 11 931 20 940 c 128,-1,3
 29 949 29 949 43 949 c 2,4,-1
 371 949 l 2,5,6
 395 949 395 949 407 937 c 128,-1,7
 419 925 419 925 419 906 c 0,8,9
 419 897 419 897 414 888 c 0,10,11
 407 877 407 877 390 862 c 0,12,13
 370 844 370 844 370 827 c 0,14,15
 370 820 370 820 373 813 c 0,16,17
 373 813 373 813 611 233 c 1,18,-1
 829 725 l 2,19,20
 836 741 836 741 836 757 c 0,21,22
 836 785 836 785 813 813 c 2,23,-1
 780 853 l 2,24,25
 775 860 775 860 774 867 c 0,26,27
 774 875 774 875 783 882 c 2,28,-1
 873 953 l 2,29,30
 884 962 884 962 896 961 c 0,31,32
 912 961 912 961 925 948 c 0,33,34
 944 929 944 929 981 891 c 0,35,36
 1004 868 1004 868 1004 828 c 0,37,38
 1004 792 1004 792 949 680 c 1,39,-1
 642 -8 l 2,40,41
 637 -20 637 -20 630 -28 c 0,42,43
 619 -39 619 -39 603 -39 c 2,44,-1
 529 -39 l 2,45,46
 509 -39 509 -39 495 -26 c 0,47,48
 488 -19 488 -19 484 -8 c 2,49,-1
 232 592 l 1,50,-1
 149 792 l 2,51,52
 128 843 128 843 80 858 c 0,53,54
 39 870 39 870 23 886 c 0,0,1
EndSplineSet
Validated: 1
Substitution2: "'sups' Superscript in Latin lookup 8 subtable" uni1D5B
Substitution2: "'smcp' Lowercase to Small Capitals in Latin lookup 1 subtable" uni1D20
EndChar

StartChar: w
Encoding: 119 119 90
Width: 1647
GlyphClass: 2
Flags: W
LayerCount: 2
Fore
SplineSet
1440 725 m 0,0,1
 1447 742 1447 742 1447 764 c 128,-1,2
 1447 786 1447 786 1424 813 c 0,3,4
 1413 826 1413 826 1391 852 c 0,5,6
 1385 859 1385 859 1385 866 c 0,7,8
 1385 874 1385 874 1393 881 c 2,9,-1
 1482 952 l 1,10,11
 1492 961 1492 961 1504 961 c 0,12,13
 1521 961 1521 961 1535 949 c 0,14,15
 1536 948 1536 948 1593 891 c 0,16,17
 1615 866 1615 866 1615 838 c 0,18,19
 1615 814 1615 814 1603.5 779.5 c 128,-1,20
 1592 745 1592 745 1560 680 c 1,21,22
 1253 -8 1253 -8 1253 -9 c 0,23,24
 1246 -22 1246 -22 1237 -30.5 c 128,-1,25
 1228 -39 1228 -39 1214 -39 c 2,26,-1
 1130 -39 l 2,27,28
 1115 -39 1115 -39 1107 -31 c 128,-1,29
 1099 -23 1099 -23 1093 -7 c 0,30,31
 1088 5 1088 5 1085 14 c 2,32,-1
 875 515 l 1,33,34
 642 -8 642 -8 642 -9 c 0,35,36
 635 -22 635 -22 626 -30.5 c 128,-1,37
 617 -39 617 -39 603 -39 c 2,38,-1
 519 -39 l 2,39,40
 500 -39 500 -39 492 -28 c 0,41,42
 482 -14 482 -14 475 15 c 1,43,-1
 149 792 l 2,44,45
 135 824 135 824 112 839 c 0,46,47
 87 856 87 856 66.5 864.5 c 128,-1,48
 46 873 46 873 37.5 879 c 128,-1,49
 29 885 29 885 24 890 c 128,-1,50
 19 895 19 895 15 904 c 128,-1,51
 11 913 11 913 11 919 c 0,52,53
 11 929 11 929 14 935 c 0,54,55
 24 951 24 951 43 951 c 2,56,-1
 371 951 l 2,57,58
 383 951 383 951 397 943 c 0,59,60
 400 941 400 941 406 935 c 0,61,62
 419 922 419 922 419 904 c 0,63,64
 419 896 419 896 414 889 c 0,65,66
 407 879 407 879 390 864 c 0,67,68
 373 849 373 849 371 843 c 0,69,70
 369 837 369 837 369 829.5 c 128,-1,71
 369 822 369 822 373 813 c 0,72,73
 373 813 373 813 617 218 c 1,74,-1
 808 676 l 1,75,-1
 760 792 l 2,76,77
 746 824 746 824 723 839 c 0,78,79
 698 856 698 856 678 864 c 0,80,81
 647 878 647 878 634 891 c 0,82,83
 622 903 622 903 622 920 c 0,84,85
 622 930 622 930 625 935 c 0,86,87
 635 951 635 951 654 951 c 2,88,-1
 982 951 l 2,89,90
 994 951 994 951 1008 943 c 0,91,92
 1011 941 1011 941 1017 935 c 0,93,94
 1030 922 1030 922 1030 904 c 0,95,96
 1030 896 1030 896 1025 889 c 0,97,98
 1018 879 1018 879 1001 864 c 0,99,100
 984 849 984 849 982 843 c 0,101,102
 980 837 980 837 980 829.5 c 128,-1,103
 980 822 980 822 984 813 c 0,104,105
 984 813 984 813 1228 218 c 1,106,107
 1334 472 1334 472 1440 725 c 0,0,1
EndSplineSet
Validated: 1
Substitution2: "'smcp' Lowercase to Small Capitals in Latin lookup 1 subtable" uni1D21
EndChar

StartChar: x
Encoding: 120 120 91
Width: 1098
GlyphClass: 2
Flags: W
LayerCount: 2
Fore
SplineSet
242 -20 m 2,0,-1
 34 -20 l 2,1,2
 19 -20 19 -20 11.5 -12.5 c 128,-1,3
 4 -5 4 -5 4 6 c 0,4,5
 4 19 4 19 16 31 c 0,6,7
 34 49 34 49 79 60 c 0,8,9
 116 69 116 69 147 110 c 2,10,-1
 424 448 l 1,11,-1
 167 821 l 2,12,13
 154 841 154 841 121 858 c 0,14,15
 103 867 103 867 84.5 874 c 128,-1,16
 66 881 66 881 54 889 c 0,17,18
 37 899 37 899 31.5 904 c 128,-1,19
 26 909 26 909 23.5 913.5 c 128,-1,20
 21 918 21 918 21 926 c 128,-1,21
 21 934 21 934 27 940 c 128,-1,22
 33 946 33 946 40 947.5 c 128,-1,23
 47 949 47 949 56 949 c 2,24,-1
 378 949 l 2,25,26
 403 949 403 949 419 927 c 0,27,28
 426 918 426 918 426 906 c 0,29,30
 426 888 426 888 407 878 c 0,31,32
 402 875 402 875 401 867 c 0,33,34
 401 859 401 859 409 848 c 2,35,-1
 565 620 l 1,36,-1
 719 809 l 2,37,38
 811 921 811 921 837 944 c 0,39,40
 852 957 852 957 875 957 c 0,41,42
 904 957 904 957 946 935 c 0,43,44
 967 924 967 924 989 912.5 c 128,-1,45
 1011 901 1011 901 1013.5 899.5 c 128,-1,46
 1016 898 1016 898 1020 894 c 0,47,48
 1030 884 1030 884 1030 869 c 0,49,50
 1030 859 1030 859 1025 849 c 2,51,-1
 974 745 l 2,52,53
 973 742 973 742 970 740 c 0,54,55
 964 734 964 734 958 734 c 128,-1,56
 952 734 952 734 946 736 c 0,57,58
 909 756 909 756 879 771 c 0,59,60
 875 773 875 773 872 773 c 0,61,62
 858 773 858 773 836 746 c 2,63,-1
 642 509 l 1,64,65
 919 108 919 108 921 104 c 128,-1,66
 923 100 923 100 930 94 c 0,67,68
 944 80 944 80 969 69 c 0,69,70
 984 62 984 62 1000 56 c 0,71,72
 1053 34 1053 34 1062 16 c 0,73,74
 1065 11 1065 11 1065 3 c 128,-1,75
 1065 -5 1065 -5 1059 -11 c 128,-1,76
 1053 -17 1053 -17 1046 -18.5 c 128,-1,77
 1039 -20 1039 -20 1030 -20 c 2,78,-1
 708 -20 l 2,79,80
 683 -20 683 -20 667 1 c 0,81,82
 660 10 660 10 660 22 c 0,83,84
 660 39 660 39 678 51 c 0,85,86
 679 51 679 51 680 52 c 0,87,88
 684 55 684 55 685 61 c 1,89,-1
 685 62 l 2,90,91
 685 70 685 70 677 81 c 2,92,-1
 502 337 l 1,93,-1
 295 85 l 1,94,95
 280 65 280 65 280 55 c 2,96,-1
 280 52 l 1,97,-1
 281 44 l 1,98,99
 286 37 286 37 286 25 c 128,-1,100
 286 13 286 13 277 2 c 0,101,102
 262 -20 262 -20 242 -20 c 2,0,-1
EndSplineSet
Validated: 1
Substitution2: "'smcp' Lowercase to Small Capitals in Latin lookup 1 subtable" uniEF11
EndChar

StartChar: y
Encoding: 121 121 92
Width: 1036
GlyphClass: 2
Flags: W
LayerCount: 2
Fore
SplineSet
321 -586 m 2,0,-1
 238 -586 l 2,1,2
 236 -586 236 -586 235 -586 c 0,3,4
 220 -584 220 -584 209.5 -573.5 c 128,-1,5
 199 -563 199 -563 199 -544 c 2,6,-1
 199 -429 l 2,7,8
 199 -421 199 -421 205 -415 c 128,-1,9
 211 -409 211 -409 219 -409 c 2,10,-1
 264 -409 l 2,11,12
 302 -409 302 -409 323 -387 c 0,13,14
 333 -377 333 -377 341 -361 c 0,15,16
 401 -236 401 -236 497 -37 c 1,17,-1
 149 792 l 2,18,19
 136 822 136 822 110 840 c 0,20,21
 83 858 83 858 58.5 868 c 128,-1,22
 34 878 34 878 24 888 c 0,23,24
 18 894 18 894 14 904 c 128,-1,25
 10 914 10 914 10 924.5 c 128,-1,26
 10 935 10 935 16 941 c 128,-1,27
 22 947 22 947 28.5 949 c 128,-1,28
 35 951 35 951 43 951 c 2,29,-1
 371 951 l 2,30,31
 394 951 394 951 406 939 c 0,32,33
 413 932 413 932 418 916 c 0,34,35
 420 910 420 910 420 905 c 0,36,37
 420 881 420 881 390 865 c 0,38,39
 377 859 377 859 374 850 c 0,40,41
 369 837 369 837 369 830.5 c 128,-1,42
 369 824 369 824 374 813 c 2,43,-1
 608 232 l 1,44,-1
 829 725 l 2,45,46
 836 741 836 741 836 766 c 0,47,48
 836 786 836 786 813 813 c 0,49,50
 802 826 802 826 780 852 c 0,51,52
 774 859 774 859 774 866 c 0,53,54
 774 874 774 874 783 881 c 2,55,-1
 872 952 l 2,56,57
 883 962 883 962 895 962 c 0,58,59
 911 962 911 962 925 948 c 0,60,61
 944 929 944 929 981 891 c 0,62,63
 1004 868 1004 868 1004 838 c 0,64,65
 1004 792 1004 792 949 680 c 1,66,-1
 454 -422 l 2,67,68
 426 -486 426 -486 399 -533 c 0,69,70
 370 -586 370 -586 321 -586 c 2,0,-1
EndSplineSet
Validated: 1
Substitution2: "'smcp' Lowercase to Small Capitals in Latin lookup 1 subtable" uni028F
EndChar

StartChar: z
Encoding: 122 122 93
Width: 1019
GlyphClass: 2
Flags: W
LayerCount: 2
Fore
SplineSet
858 965 m 2,0,1
 897 965 897 965 920 959 c 128,-1,2
 943 953 943 953 955 941.5 c 128,-1,3
 967 930 967 930 967 913 c 0,4,5
 967 892 967 892 948 868 c 2,6,-1
 335 99 l 1,7,-1
 728 99 l 1,8,9
 771 101 771 101 800 129 c 0,10,11
 834 161 834 161 876 219 c 0,12,13
 891 240 891 240 898.5 247 c 128,-1,14
 906 254 906 254 911.5 257.5 c 128,-1,15
 917 261 917 261 924 261 c 0,16,17
 941 261 941 261 951.5 250.5 c 128,-1,18
 962 240 962 240 962 223 c 2,19,-1
 962 65 l 2,20,21
 962 38 962 38 958 21 c 0,22,23
 953 -1 953 -1 939 -9 c 0,24,25
 929 -15 929 -15 907.5 -17.5 c 128,-1,26
 886 -20 886 -20 845 -20 c 2,27,-1
 160 -20 l 1,28,29
 85 -19 85 -19 58 -11 c 0,30,31
 48 -8 48 -8 39.5 -0.5 c 128,-1,32
 31 7 31 7 31 19 c 128,-1,33
 31 31 31 31 36 41 c 128,-1,34
 41 51 41 51 51 64 c 2,35,-1
 658 841 l 1,36,-1
 347 841 l 2,37,38
 303 841 303 841 277 814 c 0,39,40
 246 782 246 782 205 724 c 0,41,42
 183 694 183 694 171 688 c 0,43,44
 164 683 164 683 157 683 c 0,45,46
 139 683 139 683 128.5 693.5 c 128,-1,47
 118 704 118 704 118 720 c 2,48,-1
 118 879 l 2,49,50
 118 937 118 937 143 954 c 0,51,52
 160 965 160 965 211 965 c 0,53,54
 216 965 216 965 222.5 965 c 128,-1,55
 229 965 229 965 237 965 c 2,56,-1
 858 965 l 2,0,1
EndSplineSet
Validated: 1
Substitution2: "'smcp' Lowercase to Small Capitals in Latin lookup 1 subtable" uni1D22
EndChar

StartChar: braceleft
Encoding: 123 123 94
Width: 1024
GlyphClass: 2
Flags: W
LayerCount: 2
Fore
SplineSet
400 961 m 2,0,-1
 400 1173 l 2,1,2
 400 1247 400 1247 415 1326 c 0,3,4
 431 1408 431 1408 482 1457 c 0,5,6
 562 1536 562 1536 774 1536 c 0,7,8
 803 1536 803 1536 817 1520 c 0,9,10
 818 1519 818 1519 819 1518 c 0,11,12
 832 1498 832 1498 832 1483 c 128,-1,13
 832 1468 832 1468 823 1459 c 0,14,15
 810 1446 810 1446 782 1446 c 0,16,17
 658 1444 658 1444 617 1398 c 0,18,19
 617 1398 617 1398 617 1397 c 0,20,21
 590 1369 590 1369 582 1312.5 c 128,-1,22
 574 1256 574 1256 574 1204 c 2,23,-1
 574 1061 l 2,24,25
 574 983 574 983 563 891 c 0,26,27
 549 775 549 775 489 715 c 0,28,29
 443 669 443 669 364 642 c 1,30,31
 466 607 466 607 513 540 c 0,32,33
 552 484 552 484 563 393 c 128,-1,34
 574 302 574 302 574 223 c 2,35,-1
 574 80 l 2,36,37
 574 -70 574 -70 619 -115 c 0,38,39
 662 -158 662 -158 782 -160 c 0,40,41
 800 -160 800 -160 813 -172 c 0,42,43
 826 -185 826 -185 826 -207 c 0,44,45
 826 -222 826 -222 816 -235 c 0,46,47
 804 -251 804 -251 774 -251 c 0,48,49
 561 -251 561 -251 479 -169 c 0,50,51
 430 -120 430 -120 415 -41.5 c 128,-1,52
 400 37 400 37 400 112 c 2,53,-1
 400 323 l 2,54,55
 400 378 400 378 389.5 436 c 128,-1,56
 379 494 379 494 350 527 c 0,57,58
 319 559 319 559 264.5 574 c 128,-1,59
 210 589 210 589 157 593 c 0,60,61
 132 595 132 595 120 612 c 0,62,63
 110 624 110 624 110 643 c 0,64,65
 110 666 110 666 122.5 678 c 128,-1,66
 135 690 135 690 156 693 c 0,67,68
 301 705 301 705 351 760 c 0,69,70
 380 792 380 792 390 849 c 128,-1,71
 400 906 400 906 400 961 c 2,0,-1
EndSplineSet
Validated: 1
EndChar

StartChar: bar
Encoding: 124 124 95
Width: 1024
GlyphClass: 2
Flags: W
LayerCount: 2
Fore
SplineSet
450 1510 m 2,0,-1
 591 1510 l 2,1,2
 599 1510 599 1510 605 1504 c 128,-1,3
 611 1498 611 1498 611 1490 c 2,4,-1
 611 -227 l 2,5,6
 611 -235 611 -235 605 -241 c 128,-1,7
 599 -247 599 -247 591 -247 c 2,8,-1
 450 -247 l 2,9,10
 442 -247 442 -247 436 -241 c 128,-1,11
 430 -235 430 -235 430 -227 c 2,12,-1
 430 1490 l 2,13,14
 430 1498 430 1498 436 1504 c 128,-1,15
 442 1510 442 1510 450 1510 c 2,0,-1
EndSplineSet
Validated: 1
EndChar

StartChar: braceright
Encoding: 125 125 96
Width: 1024
GlyphClass: 2
Flags: W
LayerCount: 2
Fore
SplineSet
542 324 m 2
 542 112 l 2
 542 38 542 38 527 -41 c 0
 511 -123 511 -123 460 -172 c 0
 380 -251 380 -251 168 -251 c 0
 139 -251 139 -251 125 -235 c 0
 124 -234 124 -234 123 -233 c 0
 110 -213 110 -213 110 -198 c 0
 110 -183 110 -183 119 -174 c 0
 132 -161 132 -161 160 -161 c 0
 284 -159 284 -159 325 -113 c 0
 325 -112 l 0
 352 -84 352 -84 360 -28 c 0
 368 28 368 28 368 81 c 2
 368 224 l 2
 368 302 368 302 379 394 c 0
 393 510 393 510 453 570 c 0
 499 616 499 616 578 643 c 1
 476 678 476 678 429 745 c 0
 390 801 390 801 379 892 c 0
 368 983 368 983 368 1062 c 2
 368 1205 l 2
 368 1355 368 1355 323 1400 c 0
 280 1443 280 1443 160 1445 c 0
 142 1445 142 1445 129 1457 c 0
 116 1470 116 1470 116 1492 c 0
 116 1507 116 1507 126 1520 c 0
 138 1536 138 1536 168 1536 c 0
 381 1536 381 1536 463 1454 c 0
 512 1404 512 1404 527 1326 c 0
 542 1248 542 1248 542 1173 c 2
 542 962 l 2
 542 907 542 907 552 849 c 0
 562 791 562 791 592 758 c 0
 624 726 624 726 678 711 c 0
 732 696 732 696 785 692 c 0
 810 690 810 690 822 673 c 0
 832 661 832 661 832 642 c 0
 832 619 832 619 820 607 c 0
 808 595 808 595 786 592 c 0
 641 580 641 580 591 525 c 0
 562 493 562 493 552 436 c 0
 542 379 542 379 542 324 c 2
EndSplineSet
EndChar

StartChar: asciitilde
Encoding: 126 126 97
Width: 1024
GlyphClass: 2
Flags: W
LayerCount: 2
Fore
SplineSet
722 490 m 0,0,1
 603 490 603 490 464 577 c 0,2,3
 394 620 394 620 332 620 c 0,4,5
 286 620 286 620 244 594 c 0,6,7
 232 586 232 586 215 576 c 0,8,9
 193 563 193 563 168.5 538 c 128,-1,10
 144 513 144 513 123 480 c 0,11,12
 121 476 121 476 117 473 c 0,13,14
 105 461 105 461 90.5 461 c 128,-1,15
 76 461 76 461 61 470 c 0,16,17
 38 483 38 483 38 506 c 0,18,19
 38 523 38 523 49 540 c 0,20,21
 96 612 96 612 145 688 c 0,22,23
 199 773 199 773 312 773 c 0,24,25
 444 773 444 773 578 683 c 0,26,27
 642 639 642 639 704 639 c 0,28,29
 757 639 757 639 811 671 c 0,30,31
 861 700 861 700 899 771 c 0,32,33
 902 776 902 776 907 781 c 0,34,35
 919 793 919 793 938 793 c 0,36,37
 943 793 943 793 949 791 c 0,38,39
 964 788 964 788 973.5 779 c 128,-1,40
 983 770 983 770 985 756 c 0,41,42
 989 741 989 741 981 721 c 0,43,44
 981 720 981 720 981 719 c 0,45,46
 918 603 918 603 861 550 c 0,47,48
 795 490 795 490 722 490 c 0,0,1
EndSplineSet
Validated: 1
EndChar

StartChar: exclamdown
Encoding: 161 161 99
Width: 550
GlyphClass: 2
Flags: W
LayerCount: 2
Fore
SplineSet
257 749 m 0
 187 749 187 749 154 782 c 0
 127 809 127 809 127 856 c 2
 127 938 l 2
 127 984 127 984 154 1011 c 0
 187 1044 187 1044 257 1044 c 0
 327 1044 327 1044 360 1011 c 0
 387 984 387 984 387 938 c 2
 387 856 l 2
 387 809 387 809 360 782 c 0
 327 749 327 749 257 749 c 0
383 -333 m 2
 383 -342 l 2
 383 -380 383 -380 361 -401 c 0
 336 -426 336 -426 287 -426 c 2
 221 -426 l 2
 171 -426 171 -426 147 -402 c 0
 126 -381 126 -381 126 -346 c 2
 126 -344 l 1
 126 -333 l 2
 126 -332 126 -332 197 614 c 1
 197 634 197 634 209 646 c 0
 221 658 221 658 242 658 c 0
 243 658 243 658 244 658 c 2
 265 658 l 2
 286 658 286 658 298 646 c 0
 310 634 310 634 310 614 c 1
 383 -332 383 -332 383 -333 c 2
EndSplineSet
EndChar

StartChar: sterling
Encoding: 163 163 101
Width: 1024
GlyphClass: 2
Flags: W
LayerCount: 2
Fore
SplineSet
454 615 m 0
 454 579 454 579 452 544 c 0
 448 467 448 467 426 384 c 0
 409 319 409 319 395 250 c 1
 440 234 440 234 490 217 c 0
 540 200 540 200 596 186 c 0
 652 172 652 172 698 172 c 0
 742 172 742 172 777 181 c 0
 846 200 846 200 885 260 c 0
 896 278 896 278 898 294 c 0
 900 310 900 310 911 320 c 0
 925 334 925 334 950 334 c 0
 968 334 968 334 979 323 c 0
 990 312 990 312 990 291 c 0
 990 254 990 254 978 223 c 0
 966 192 966 192 955 163 c 0
 916 62 916 62 830 1 c 1
 829 0 l 1
 752 -51 752 -51 667 -51 c 0
 655 -51 655 -51 644 -50 c 0
 544 -41 544 -41 467 12 c 0
 448 24 448 24 402 54 c 0
 356 84 356 84 334 100 c 1
 281 24 281 24 217 -26 c 0
 181 -52 181 -52 140 -52 c 0
 117 -52 117 -52 93 -44 c 0
 26 -21 26 -21 0 37 c 0
 -11 61 -11 61 -11 89 c 0
 -11 117 -11 117 -1 149 c 0
 18 214 18 214 56 244 c 0
 109 286 109 286 157 286 c 2
 163 286 l 2
 164 286 164 286 244 280 c 1
 248 319 248 319 248 357 c 2
 248 387 l 2
 245 449 245 449 243 510 c 0
 239 577 239 577 230 667 c 1
 68 667 l 2
 38 667 38 667 23 682 c 0
 11 694 11 694 11 713 c 2
 11 766 l 2
 11 785 11 785 23 797 c 0
 38 812 38 812 68 812 c 2
 217 812 l 1
 212 874 212 874 212 924 c 0
 212 986 212 986 218 1035 c 0
 233 1163 233 1163 277 1247 c 0
 310 1310 310 1310 355 1355 c 0
 463 1463 463 1463 638 1463 c 0
 713 1463 713 1463 783 1426 c 0
 855 1388 855 1388 891 1317 c 1
 891 1316 l 1
 908 1281 908 1281 911 1239 c 0
 911 1238 911 1238 911 1237 c 2
 911 1230 l 2
 911 1187 911 1187 879 1155 c 0
 847 1123 847 1123 811 1123 c 0
 779 1123 779 1123 747 1149 c 0
 714 1173 714 1173 707 1226 c 2
 697 1299 l 2
 692 1326 692 1326 677 1341 c 0
 659 1359 659 1359 625 1363 c 0
 608 1365 608 1365 593 1365 c 0
 545 1365 545 1365 516 1340 c 0
 458 1290 458 1290 442 1222 c 0
 427 1158 427 1158 427 1089 c 0,0,0
 427 1085 427 1085 427 1080 c 0
 428 1005 428 1005 434 932 c 2
 444 812 l 1
 732 812 l 2
 762 812 762 812 777 797 c 0
 789 785 789 785 789 766 c 2
 789 713 l 2
 789 694 789 694 777 682 c 0
 762 667 762 667 732 667 c 2
 453 667 l 1
 454 642 454 642 454 615 c 0
109 161 m 0
 92 144 92 144 92 108 c 0
 92 72 92 72 106 59 c 0
 116 49 116 49 135 49 c 0
 166 49 166 49 183 66 c 0
 190 73 190 73 196 83 c 0
 215 121 215 121 227 158 c 1
 200 181 200 181 174 181 c 0
 129 181 129 181 109 161 c 0
EndSplineSet
EndChar

StartChar: currency
Encoding: 164 164 102
Width: 1024
GlyphClass: 2
Flags: W
LayerCount: 2
Fore
SplineSet
513 712 m 0,0,1
 418 712 418 712 349.5 643 c 128,-1,2
 281 574 281 574 281 475 c 256,3,4
 281 376 281 376 349.5 307.5 c 128,-1,5
 418 239 418 239 513 239 c 0,6,7
 606 239 606 239 675 307.5 c 128,-1,8
 744 376 744 376 744 475 c 256,9,10
 744 574 744 574 675 643 c 128,-1,11
 606 712 606 712 513 712 c 0,0,1
513 842 m 256,12,13
 639 842 639 842 720 780 c 1,14,-1
 849 909 l 2,15,16
 861 921 861 921 878 921 c 0,17,18
 897 921 897 921 907 908 c 2,19,-1
 954 862 l 2,20,21
 963 851 963 851 963 840 c 0,22,23
 963 828 963 828 951 816 c 2,24,-1
 818 684 l 1,25,26
 884 598 884 598 884 476 c 0,27,28
 884 352 884 352 818 268 c 1,29,-1
 953 135 l 2,30,31
 963 123 963 123 963 112 c 256,32,33
 963 101 963 101 954 90 c 2,34,-1
 906 44 l 2,35,36
 894 31 894 31 877 31 c 0,37,38
 859 31 859 31 847 45 c 2,39,-1
 720 172 l 1,40,41
 640 111 640 111 513 111 c 256,42,43
 386 111 386 111 306 172 c 1,44,-1
 178 43 l 2,45,46
 166 31 166 31 149 31 c 256,47,48
 132 31 132 31 121 42 c 2,49,-1
 75 88 l 2,50,51
 63 100 63 100 63 112 c 256,52,53
 63 124 63 124 76 137 c 2,54,-1
 208 269 l 1,55,56
 143 354 143 354 143 476 c 0,57,58
 143 597 143 597 208 683 c 1,59,-1
 75 817 l 2,60,61
 63 827 63 827 63 840 c 0,62,63
 63 852 63 852 75 864 c 2,64,-1
 121 910 l 2,65,66
 132 921 132 921 149 921 c 256,67,68
 166 921 166 921 178 909 c 2,69,-1
 306 780 l 1,70,71
 387 842 387 842 513 842 c 256,12,13
EndSplineSet
Validated: 1
EndChar

StartChar: brokenbar
Encoding: 166 166 104
Width: 1024
GlyphClass: 2
Flags: W
LayerCount: 2
Fore
SplineSet
339 470 m 2
 480 470 l 2
 488 470 488 470 494 468 c 0
 500 466 500 466 500 462 c 2
 500 -225 l 2
 500 -228 500 -228 494 -230 c 0
 488 -232 488 -232 480 -233 c 2
 339 -233 l 2
 331 -233 331 -233 325 -230 c 0
 319 -228 319 -228 319 -225 c 2
 319 462 l 2
 319 465 319 465 325 468 c 0
 331 470 331 470 339 470 c 2
339 1502 m 2
 480 1502 l 2
 488 1502 488 1502 494 1500 c 0
 500 1498 500 1498 500 1494 c 2
 500 807 l 2
 500 804 500 804 494 802 c 0
 488 800 488 800 480 799 c 2
 339 799 l 2
 331 799 331 799 325 802 c 0
 319 804 319 804 319 807 c 2
 319 1494 l 2
 319 1497 319 1497 325 1500 c 0
 331 1502 331 1502 339 1502 c 2
EndSplineSet
EndChar

StartChar: section
Encoding: 167 167 105
Width: 1024
GlyphClass: 2
Flags: W
LayerCount: 2
Fore
SplineSet
160 800 m 1
 56 892 56 892 56 1051 c 0
 56 1233 56 1233 182 1350 c 0
 313 1470 313 1470 508 1470 c 0
 523 1470 523 1470 537 1469 c 0
 748 1460 748 1460 898 1364 c 0
 907 1358 907 1358 907 1347 c 0,0,0
 907 1346 907 1346 884 1151 c 0
 882 1134 882 1134 873 1124 c 0
 864 1115 864 1115 849 1115 c 0
 844 1115 844 1115 839 1116 c 0
 816 1120 816 1120 802 1154 c 0
 765 1232 765 1232 693 1287 c 0
 621 1342 621 1342 541 1346 c 1
 526 1346 l 2
 445 1346 445 1346 384 1317 c 0
 345 1299 345 1299 319 1272 c 0
 296 1249 296 1249 281 1214 c 0
 281 1213 l 0
 266 1181 266 1181 260 1151 c 0
 254 1120 254 1120 254 1091 c 0
 254 1062 254 1062 263 1035 c 0
 280 979 280 979 323 949 c 0
 353 926 353 926 394 915 c 0
 417 909 417 909 449 904 c 0
 593 880 593 880 629 875 c 0
 689 866 689 866 746 849 c 0
 846 816 846 816 893 765 c 0
 928 728 928 728 951 676 c 0
 952 676 l 0
 978 611 978 611 978 534 c 0
 978 374 978 374 877 254 c 1
 887 245 887 245 893 238 c 0
 929 198 929 198 951 149 c 0
 952 149 l 0
 978 84 978 84 978 7 c 0
 978 -197 978 -197 810 -336 c 0
 810 -337 l 0
 725 -405 725 -405 620 -441 c 0
 619 -441 l 0
 541 -467 541 -467 441 -473 c 0
 421 -474 421 -474 402 -474 c 0
 269 -474 269 -474 147 -436 c 0
 137 -433 137 -433 134 -424 c 2
 47 -179 l 2
 44 -171 44 -171 44 -163 c 0
 44 -147 44 -147 54 -133 c 0
 66 -113 66 -113 87 -113 c 2
 90 -113 l 2
 102 -113 102 -113 112 -123 c 0
 124 -135 124 -135 131 -151 c 0
 188 -273 188 -273 272 -312 c 0
 342 -347 342 -347 450 -347 c 0
 473 -347 473 -347 497 -345 c 0
 568 -339 568 -339 634 -307 c 0
 698 -276 698 -276 737 -214 c 0
 777 -149 777 -149 777 -58 c 2
 777 -47 l 1
 774 46 774 46 706 95 c 0
 673 119 673 119 626 133 c 0
 530 160 530 160 428 170 c 0
 326 181 326 181 230 228 c 0
 142 270 142 270 99 350 c 0
 56 430 56 430 56 524 c 0
 56 688 56 688 160 800 c 1
260 621 m 0
 254 593 254 593 254 564 c 0
 254 535 254 535 263 508 c 0
 281 451 281 451 322 424 c 0
 323 423 323 423 324 422 c 0
 351 399 351 399 394 389 c 0
 453 374 453 374 629 348 c 0
 688 339 688 339 744 323 c 1
 777 384 777 384 777 468 c 2
 777 479 l 1
 774 573 774 573 706 622 c 0
 670 647 670 647 627 660 c 0
 545 682 545 682 462 691 c 0
 379 701 379 701 303 726 c 1
 291 710 291 710 281 688 c 0
 281 687 l 0
 267 656 267 656 260 621 c 0
EndSplineSet
Validated: 1
EndChar

StartChar: dieresis
Encoding: 168 168 106
Width: 1000
GlyphClass: 2
Flags: W
LayerCount: 2
Fore
SplineSet
710 1149 m 0,0,1
 709 1149 709 1149 707 1149 c 0,2,3
 651 1149 651 1149 610 1190 c 0,4,5
 568 1232 568 1232 568 1291 c 128,-1,6
 568 1350 568 1350 609.5 1391.5 c 128,-1,7
 651 1433 651 1433 710 1433 c 128,-1,8
 769 1433 769 1433 810.5 1391 c 128,-1,9
 852 1349 852 1349 852 1290.5 c 128,-1,10
 852 1232 852 1232 810.5 1190.5 c 128,-1,11
 769 1149 769 1149 710 1149 c 0,0,1
289 1149 m 0,12,13
 288 1149 288 1149 286 1149 c 0,14,15
 229 1149 229 1149 188 1190 c 128,-1,16
 147 1231 147 1231 147 1288 c 0,17,18
 147 1350 147 1350 188.5 1391.5 c 128,-1,19
 230 1433 230 1433 289 1433 c 128,-1,20
 348 1433 348 1433 389.5 1391 c 128,-1,21
 431 1349 431 1349 431 1290.5 c 128,-1,22
 431 1232 431 1232 389.5 1190.5 c 128,-1,23
 348 1149 348 1149 289 1149 c 0,12,13
EndSplineSet
EndChar

StartChar: guillemotleft
Encoding: 171 171 109
Width: 1024
GlyphClass: 2
Flags: W
LayerCount: 2
Fore
SplineSet
88 601 m 0,0,1
 77 611 77 611 77 624.5 c 128,-1,2
 77 638 77 638 85 651 c 0,3,4
 86 652 86 652 87 653 c 0,5,6
 148 726 148 726 255 826 c 0,7,8
 362 925 362 925 437 1002 c 0,9,10
 447 1012 447 1012 457.5 1012 c 128,-1,11
 468 1012 468 1012 476 1006 c 0,12,13
 513 980 513 980 514 978 c 0,14,15
 524 968 524 968 524 957.5 c 128,-1,16
 524 947 524 947 517 940 c 2,17,-1
 273 629 l 1,18,-1
 520 314 l 2,19,20
 525 307 525 307 525 297 c 128,-1,21
 525 287 525 287 517 279 c 0,22,23
 515 277 515 277 511 274 c 2,24,-1
 476 249 l 2,25,26
 469 243 469 243 458 243 c 128,-1,27
 447 243 447 243 437 253 c 0,28,29
 264 425 264 425 262 425 c 0,30,31
 173 512 173 512 88 601 c 0,0,1
498 601 m 0,32,33
 487 611 487 611 487 624.5 c 128,-1,34
 487 638 487 638 495 651 c 0,35,36
 496 652 496 652 497 653 c 0,37,38
 558 726 558 726 665 826 c 0,39,40
 772 925 772 925 847 1002 c 0,41,42
 857 1012 857 1012 867.5 1012 c 128,-1,43
 878 1012 878 1012 886 1006 c 0,44,45
 923 980 923 980 924 978 c 0,46,47
 934 968 934 968 934 957.5 c 128,-1,48
 934 947 934 947 927 940 c 2,49,-1
 683 629 l 1,50,-1
 930 314 l 2,51,52
 935 307 935 307 935 297 c 128,-1,53
 935 287 935 287 927 279 c 0,54,55
 925 277 925 277 921 274 c 2,56,-1
 886 249 l 2,57,58
 879 243 879 243 868 243 c 128,-1,59
 857 243 857 243 847 253 c 0,60,61
 644 453 644 453 602 495 c 128,-1,62
 560 537 560 537 498 601 c 0,32,33
EndSplineSet
Validated: 1
EndChar

StartChar: logicalnot
Encoding: 172 172 110
Width: 1100
GlyphClass: 2
Flags: W
LayerCount: 2
Fore
SplineSet
1034 321 m 2
 917 321 l 2
 909 321 909 321 903 327 c 0
 897 333 897 333 897 341 c 2
 897 755 l 1
 66 755 l 2
 58 755 58 755 52 761 c 0
 46 767 46 767 46 775 c 2
 46 887 l 2
 46 895 46 895 52 901 c 0
 58 907 58 907 66 907 c 2
 1034 907 l 2
 1042 907 1042 907 1048 901 c 0
 1054 895 1054 895 1054 887 c 2
 1054 341 l 2
 1054 333 1054 333 1048 327 c 0
 1042 321 1042 321 1034 321 c 2
EndSplineSet
Validated: 1
EndChar

StartChar: uni00AD
Encoding: 173 173 111
Width: 680
GlyphClass: 2
Flags: W
LayerCount: 2
Fore
SplineSet
143 576 m 2
 536 576 l 2
 554 576 554 576 563 556 c 0
 570 540 570 540 570 515 c 2
 570 444 l 2
 570 419 570 419 563 402 c 0
 554 382 554 382 536 382 c 2
 143 382 l 2
 125 382 125 382 116 402 c 0
 109 418 109 418 109 444 c 2
 109 515 l 2
 109 540 109 540 116 556 c 0
 125 576 125 576 143 576 c 2
EndSplineSet
EndChar

StartChar: macron
Encoding: 175 175 113
Width: 1000
GlyphClass: 2
Flags: W
LayerCount: 2
Fore
SplineSet
222 1365 m 2,0,-1
 781 1365 l 2,1,2
 806 1365 806 1365 819 1350 c 0,3,4
 829 1338 829 1338 829 1319 c 2,5,-1
 829 1266 l 2,6,7
 829 1247 829 1247 819 1235 c 0,8,9
 806 1220 806 1220 781 1220 c 2,10,-1
 222 1220 l 2,11,12
 197 1220 197 1220 184 1235 c 0,13,14
 174 1247 174 1247 174 1266 c 2,15,-1
 174 1319 l 2,16,17
 174 1338 174 1338 184 1350 c 0,18,19
 197 1365 197 1365 222 1365 c 2,0,-1
EndSplineSet
EndChar

StartChar: degree
Encoding: 176 176 114
Width: 819
GlyphClass: 2
Flags: W
LayerCount: 2
Fore
SplineSet
551.5 1224 m 128,-1,1
 491 1285 491 1285 406 1285 c 0,2,3
 320 1285 320 1285 260 1224 c 128,-1,4
 200 1163 200 1163 200 1077.5 c 128,-1,5
 200 992 200 992 260 932 c 128,-1,6
 320 872 320 872 406 872 c 0,7,8
 492 872 492 872 552 932.5 c 128,-1,9
 612 993 612 993 612 1078 c 128,-1,0
 612 1163 612 1163 551.5 1224 c 128,-1,1
173 1310.5 m 128,-1,11
 269 1407 269 1407 405.5 1407 c 128,-1,12
 542 1407 542 1407 638.5 1310.5 c 128,-1,13
 735 1214 735 1214 735 1078 c 128,-1,14
 735 942 735 942 638.5 845.5 c 128,-1,15
 542 749 542 749 406 749 c 0,16,17
 269 749 269 749 173 845.5 c 128,-1,18
 77 942 77 942 77 1078 c 128,-1,10
 77 1214 77 1214 173 1310.5 c 128,-1,11
EndSplineSet
Validated: 1
EndChar

StartChar: plusminus
Encoding: 177 177 115
Width: 1100
GlyphClass: 2
Flags: W
LayerCount: 2
Fore
SplineSet
604 678 m 1,0,-1
 604 419 l 2,1,2
 604 388 604 388 589 373 c 0,3,4
 577 361 577 361 558 361 c 2,5,-1
 506 361 l 2,6,7
 487 361 487 361 475 373 c 0,8,9
 460 388 460 388 460 419 c 2,10,-1
 460 678 l 1,11,-1
 200 678 l 2,12,13
 170 678 170 678 155 693 c 0,14,15
 143 705 143 705 143 724 c 2,16,-1
 143 777 l 2,17,18
 143 796 143 796 155 808 c 0,19,20
 170 823 170 823 200 823 c 2,21,-1
 460 823 l 1,22,-1
 460 1083 l 2,23,24
 460 1112 460 1112 475 1127 c 0,25,26
 487 1139 487 1139 506 1139 c 2,27,-1
 558 1139 l 2,28,29
 577 1139 577 1139 589 1127 c 0,30,31
 604 1112 604 1112 604 1083 c 2,32,-1
 604 823 l 1,33,-1
 864 823 l 2,34,35
 894 823 894 823 909 808 c 0,36,37
 921 796 921 796 921 777 c 2,38,-1
 921 724 l 2,39,40
 921 705 921 705 909 693 c 0,41,42
 894 678 894 678 864 678 c 2,43,-1
 604 678 l 1,0,-1
200 256 m 2,44,-1
 864 256 l 2,45,46
 894 256 894 256 909 241 c 0,47,48
 921 229 921 229 921 210 c 2,49,-1
 921 157 l 2,50,51
 921 138 921 138 909 126 c 0,52,53
 894 111 894 111 864 111 c 2,54,-1
 200 111 l 2,55,56
 170 111 170 111 155 126 c 0,57,58
 143 138 143 138 143 157 c 2,59,-1
 143 210 l 2,60,61
 143 229 143 229 155 241 c 0,62,63
 170 256 170 256 200 256 c 2,44,-1
EndSplineSet
EndChar

StartChar: acute
Encoding: 180 180 118
Width: 1000
GlyphClass: 2
Flags: W
LayerCount: 2
Fore
SplineSet
243 1142 m 0,0,1
 245 1144 245 1144 247 1146 c 2,2,3
 247 1146 247 1146 623 1403 c 2,4,5
 646 1420 646 1420 674 1420 c 0,6,7
 719 1420 719 1420 743.5 1395.5 c 128,-1,8
 768 1371 768 1371 768 1328 c 128,-1,9
 768 1285 768 1285 743 1260 c 0,10,11
 730 1246 730 1246 709 1238 c 2,12,13
 709 1238 709 1238 284 1079 c 2,14,15
 278 1077 278 1077 270 1077 c 0,16,17
 252 1077 252 1077 242 1087 c 128,-1,18
 232 1097 232 1097 232 1113 c 128,-1,19
 232 1129 232 1129 243 1142 c 0,0,1
EndSplineSet
Validated: 1
EndChar

StartChar: mu
Encoding: 181 181 119
Width: 1325
GlyphClass: 2
Flags: W
LayerCount: 2
Fore
SplineSet
870 752 m 2,0,1
 870 785 870 785 854 801 c 0,2,3
 846 809 846 809 832 814 c 0,4,5
 768 837 768 837 768 877 c 0,6,7
 768 896 768 896 779 907 c 128,-1,8
 790 918 790 918 809 918 c 0,9,10
 862 920 862 920 919 934 c 0,11,12
 919 934 919 934 920 935 c 0,13,14
 988 950 988 950 1063 977 c 0,15,16
 1067 978 1067 978 1071 978 c 0,17,18
 1078 978 1078 978 1084 972 c 128,-1,19
 1090 966 1090 966 1090 958 c 2,20,-1
 1090 142 l 2,21,22
 1090 108 1090 108 1105 93 c 0,23,24
 1113 85 1113 85 1127 81 c 0,25,26
 1162 70 1162 70 1177.5 55 c 128,-1,27
 1193 40 1193 40 1193 21 c 128,-1,28
 1193 2 1193 2 1182 -9 c 128,-1,29
 1171 -20 1171 -20 1152 -20 c 2,30,-1
 890 -20 l 2,31,32
 882 -20 882 -20 876 -14 c 128,-1,33
 870 -8 870 -8 870 -0 c 2,34,-1
 870 58 l 1,35,-1
 689 -13 l 2,36,37
 656 -26 656 -26 565 -37 c 0,38,39
 556 -38 556 -38 551.5 -38 c 128,-1,40
 547 -38 547 -38 529 -37 c 0,41,42
 450 -29 450 -29 392 5 c 0,43,44
 332 40 332 40 297 77 c 1,45,46
 298 51 298 51 299 37.5 c 128,-1,47
 300 24 300 24 323.5 -253.5 c 128,-1,48
 347 -531 347 -531 347 -532 c 2,49,-1
 347 -534 l 2,50,51
 347 -552 347 -552 336.5 -562.5 c 128,-1,52
 326 -573 326 -573 307 -573 c 2,53,-1
 215 -573 l 2,54,55
 197 -573 197 -573 186 -562 c 128,-1,56
 175 -551 175 -551 175 -532 c 2,57,-1
 175 802 l 1,58,59
 156 819 156 819 136.5 827.5 c 128,-1,60
 117 836 117 836 107 846 c 0,61,62
 93 860 93 860 93 878 c 128,-1,63
 93 896 93 896 104 907 c 128,-1,64
 115 918 115 918 133 918 c 0,65,66
 190 921 190 921 245 935 c 0,67,68
 280 945 280 945 313 956 c 128,-1,69
 346 967 346 967 366 972.5 c 128,-1,70
 386 978 386 978 389 978 c 0,71,72
 397 978 397 978 402.5 972 c 128,-1,73
 408 966 408 966 408 958 c 2,74,-1
 408 424 l 2,75,76
 408 235 408 235 500 143 c 0,77,78
 556 87 556 87 633 87 c 0,79,80
 680 87 680 87 737 108 c 0,81,82
 839 146 839 146 870 157 c 1,83,-1
 870 752 l 2,0,1
EndSplineSet
Validated: 1
EndChar

StartChar: paragraph
Encoding: 182 182 120
Width: 1266
GlyphClass: 2
Flags: W
LayerCount: 2
Fore
SplineSet
433 761 m 0
 300 761 300 761 208 859 c 0
 115 957 115 957 115 1093 c 0
 115 1234 115 1234 214 1333 c 0
 305 1424 305 1424 432 1425 c 1
 1181 1425 l 2
 1202 1425 1202 1425 1215 1413 c 0
 1227 1401 1227 1401 1227 1379 c 0
 1227 1334 1227 1334 1153 1307 c 0
 1137 1301 1137 1301 1126 1291 c 0
 1105 1270 1105 1270 1105 1226 c 2
 1105 -122 l 2
 1105 -166 1105 -166 1126 -187 c 0
 1136 -197 1136 -197 1153 -203 c 0
 1227 -230 1227 -230 1227 -275 c 0
 1227 -296 1227 -296 1215 -308 c 0
 1203 -320 1203 -320 1181 -320 c 2
 433 -320 l 2
 411 -320 411 -320 399 -308 c 0
 387 -296 387 -296 387 -274 c 0
 387 -253 387 -253 405 -235 c 0
 423 -217 423 -217 461 -203 c 0
 477 -197 477 -197 488 -187 c 0
 509 -166 509 -166 509 -122 c 2
 509 770 l 1
 471 761 471 761 433 761 c 0
917 1317 m 1
 697 1317 l 1
 697 -214 l 1
 917 -214 l 1
 917 1317 l 1
EndSplineSet
Validated: 1
EndChar

StartChar: periodcentered
Encoding: 183 183 121
Width: 512
GlyphClass: 2
Flags: W
LayerCount: 2
Fore
SplineSet
255 476 m 128,-1,1
 196 476 196 476 154.5 517.5 c 0,2,3
 113 560 113 560 113 618 c 0,4,5
 113 677 113 677 154.5 718.5 c 128,-1,6
 196 760 196 760 255 760 c 128,-1,7
 314 760 314 760 355.5 718 c 128,-1,8
 397 676 397 676 397 617.5 c 128,-1,9
 397 559 397 559 355.5 517.5 c 128,-1,0
 314 476 314 476 255 476 c 128,-1,1
EndSplineSet
Validated: 524289
EndChar

StartChar: cedilla
Encoding: 184 184 122
Width: 1000
GlyphClass: 2
Flags: W
LayerCount: 2
Fore
SplineSet
442 -25 m 2,0,-1
 498 -25 l 2,1,2
 506 -25 506 -25 512 -31 c 128,-1,3
 518 -37 518 -37 518 -42.5 c 128,-1,4
 518 -48 518 -48 517 -52 c 0,5,6
 510 -68 510 -68 510 -83 c 0,7,8
 510 -109 510 -109 533 -130 c 0,9,10
 533 -130 533 -130 534 -130 c 0,11,12
 563 -157 563 -157 586 -177 c 128,-1,13
 609 -197 609 -197 615 -203 c 0,14,15
 666 -254 666 -254 666 -331 c 2,16,-1
 666 -338 l 2,17,18
 666 -338 666 -338 666 -339 c 0,19,20
 664 -381 664 -381 637 -407 c 0,21,22
 601 -443 601 -443 524 -449 c 0,23,24
 523 -449 523 -449 522 -449 c 2,25,-1
 512 -449 l 2,26,27
 444 -449 444 -449 362 -421 c 0,28,29
 358 -420 358 -420 354.5 -416 c 128,-1,30
 351 -412 351 -412 349 -406 c 2,31,-1
 334 -338 l 2,32,33
 333 -335 333 -335 334 -333 c 0,34,35
 334 -325 334 -325 340.5 -319 c 128,-1,36
 347 -313 347 -313 353.5 -313 c 128,-1,37
 360 -313 360 -313 366 -318 c 0,38,39
 406 -348 406 -348 444 -348 c 0,40,41
 473 -348 473 -348 502 -331 c 0,42,43
 523 -317 523 -317 523 -294 c 0,44,45
 523 -270 523 -270 488 -236 c 0,46,47
 445 -194 445 -194 417 -147 c 0,48,49
 403 -123 403 -123 403 -98 c 0,50,51
 403 -66 403 -66 426 -34 c 0,52,53
 432 -25 432 -25 442 -25 c 2,0,-1
EndSplineSet
Validated: 1
EndChar

StartChar: guillemotright
Encoding: 187 187 125
Width: 1024
GlyphClass: 2
Flags: W
LayerCount: 2
Fore
SplineSet
924 654 m 0
 935 644 935 644 935 630 c 0
 935 616 935 616 927 604 c 0
 926 603 926 603 925 602 c 0
 864 529 864 529 757 429 c 0
 650 330 650 330 575 253 c 0
 564 243 564 243 554 243 c 0
 544 243 544 243 536 249 c 0
 499 275 499 275 498 277 c 0
 488 288 488 288 488 298 c 0
 488 308 488 308 495 315 c 2
 739 626 l 1
 492 941 l 2
 487 948 487 948 487 958 c 0
 487 968 487 968 495 976 c 0
 497 978 497 978 501 981 c 2
 536 1006 l 2
 543 1012 543 1012 554 1012 c 0
 565 1012 565 1012 575 1002 c 0
 748 830 748 830 750 830 c 0
 839 743 839 743 924 654 c 0
514 654 m 0
 525 644 525 644 525 630 c 0
 525 616 525 616 517 604 c 0
 516 603 516 603 515 602 c 0
 454 529 454 529 347 429 c 0
 240 330 240 330 165 253 c 0
 154 243 154 243 144 243 c 0
 134 243 134 243 126 249 c 0
 89 275 89 275 88 277 c 0
 78 288 78 288 78 298 c 0
 78 308 78 308 85 315 c 2
 329 626 l 1
 82 941 l 2
 77 948 77 948 77 958 c 0
 77 968 77 968 85 976 c 0
 87 978 87 978 91 981 c 2
 126 1006 l 2
 133 1012 133 1012 144 1012 c 0
 155 1012 155 1012 165 1002 c 0
 368 802 368 802 410 760 c 0
 452 718 452 718 514 654 c 0
EndSplineSet
EndChar

StartChar: questiondown
Encoding: 191 191 129
Width: 784
GlyphClass: 2
Flags: W
LayerCount: 2
Fore
SplineSet
397 561 m 0
 411 575 411 575 429 575 c 0
 462 575 462 575 476 532 c 0
 488 500 488 500 488 445 c 2
 488 138 l 2
 488 128 488 128 480 122 c 0
 359 36 359 36 315 -33 c 0
 271 -102 271 -102 271 -196 c 0
 271 -298 271 -298 311 -348 c 0
 350 -395 350 -395 431 -395 c 0
 500 -395 500 -395 531 -353 c 0
 565 -306 565 -306 574 -180 c 0
 577 -147 577 -147 603 -131 c 0
 626 -114 626 -114 666 -114 c 0
 706 -114 706 -114 728 -131 c 0
 730 -132 730 -132 732 -135 c 0
 751 -154 751 -154 751 -190 c 0
 751 -332 751 -332 657 -416 c 0
 564 -498 564 -498 406 -498 c 0
 248 -498 248 -498 152 -418 c 0
 58 -337 58 -337 58 -197 c 0
 58 -22 58 -22 235 88 c 0
 253 99 253 99 277 114 c 0
 309 134 309 134 325 150 c 0
 341 166 341 166 347 178 c 0
 347 179 347 179 348 179 c 0
 364 206 364 206 366 275 c 0
 368 361 368 361 370 446 c 0
 370 502 370 502 381 535 c 0
 381 536 381 536 382 537 c 0
 388 552 388 552 397 561 c 0
433 692 m 0
 363 692 363 692 330 725 c 0
 303 752 303 752 303 799 c 2
 303 881 l 2
 303 927 303 927 330 954 c 0
 363 987 363 987 433 987 c 0
 503 987 503 987 536 954 c 0
 563 927 563 927 563 881 c 2
 563 799 l 2
 563 752 563 752 536 725 c 0
 503 692 503 692 433 692 c 0
EndSplineSet
EndChar

StartChar: AE
Encoding: 198 198 136
Width: 1993
GlyphClass: 2
Flags: W
LayerCount: 2
Fore
SplineSet
582 590 m 1,0,-1
 990 590 l 1,1,-1
 987 1299 l 1,2,3
 903 1151 903 1151 783 942.5 c 128,-1,4
 663 734 663 734 582 590 c 1,0,-1
1208 657 m 1,5,-1
 1208 114 l 1,6,-1
 1616 114 l 2,7,8
 1699 114 1699 114 1758 179 c 0,9,10
 1822 250 1822 250 1855 290 c 0,11,12
 1870 308 1870 308 1880 313.5 c 128,-1,13
 1890 319 1890 319 1898 319 c 0,14,15
 1917 319 1917 319 1928 308 c 128,-1,16
 1939 297 1939 297 1939 280 c 128,-1,17
 1939 263 1939 263 1936 252 c 2,18,-1
 1863 -5 l 2,19,20
 1862 -10 1862 -10 1857 -15 c 128,-1,21
 1852 -20 1852 -20 1844 -20 c 2,22,-1
 925 -20 l 2,23,24
 908 -20 908 -20 897.5 -9.5 c 128,-1,25
 887 1 887 1 887 21 c 0,26,27
 887 60 887 60 950 82 c 0,28,29
 962 86 962 86 971 95 c 0,30,31
 987 111 987 111 987 146 c 2,32,-1
 987 469 l 1,33,-1
 514 469 l 1,34,35
 477 402 477 402 326 137 c 0,36,37
 318 123 318 123 313 105 c 0,38,39
 313 104 313 104 311.5 100 c 128,-1,40
 310 96 310 96 310 90.5 c 128,-1,41
 310 85 310 85 310.5 83.5 c 128,-1,42
 311 82 311 82 311.5 77 c 128,-1,43
 312 72 312 72 317 64 c 128,-1,44
 322 56 322 56 324 44 c 0,45,46
 328 33 328 33 324 22 c 0,47,48
 324 21 324 21 321 16 c 0,49,50
 320 14 320 14 320 12 c 0,51,52
 303 -20 303 -20 277 -20 c 2,53,-1
 20 -20 l 2,54,55
 -3 -20 -3 -20 -12 -3 c 0,56,57
 -14 1 -14 1 -14 6 c 2,58,-1
 -14 11 l 2,59,60
 -14 20 -14 20 -9 30 c 0,61,62
 -1 45 -1 45 37 65 c 0,63,64
 38 65 38 65 46 69 c 0,65,66
 82 84 82 84 108 100 c 0,67,68
 144 123 144 123 165 156 c 2,69,-1
 852 1323 l 1,70,71
 827 1329 827 1329 805.5 1336 c 128,-1,72
 784 1343 784 1343 772 1355 c 128,-1,73
 760 1367 760 1367 760 1385 c 128,-1,74
 760 1403 760 1403 771 1414 c 128,-1,75
 782 1425 782 1425 801 1425 c 2,76,-1
 1856 1425 l 2,77,78
 1864 1425 1864 1425 1870 1419 c 128,-1,79
 1876 1413 1876 1413 1876 1405 c 2,80,-1
 1876 1147 l 2,81,82
 1876 1128 1876 1128 1865 1117 c 128,-1,83
 1854 1106 1854 1106 1835 1106 c 0,84,85
 1822 1106 1822 1106 1810 1118.5 c 128,-1,86
 1798 1131 1798 1131 1782 1155 c 0,87,88
 1729 1228 1729 1228 1696 1261 c 0,89,90
 1666 1291 1666 1291 1616 1291 c 2,91,-1
 1208 1291 l 1,92,-1
 1208 788 l 1,93,-1
 1417 788 l 2,94,95
 1452 788 1452 788 1469 805 c 0,96,97
 1477 813 1477 813 1482 827 c 0,98,99
 1507 891 1507 891 1547 891 c 0,100,101
 1565 891 1565 891 1576 880 c 128,-1,102
 1587 869 1587 869 1587 850 c 2,103,-1
 1587 596 l 2,104,105
 1587 577 1587 577 1576 566 c 128,-1,106
 1565 555 1565 555 1546 555 c 0,107,108
 1508 555 1508 555 1480 618 c 0,109,110
 1474 630 1474 630 1466 638 c 0,111,112
 1447 657 1447 657 1411 657 c 2,113,-1
 1208 657 l 1,5,-1
EndSplineSet
Validated: 1
Substitution2: "'sups' Superscript in Latin lookup 7 subtable" uni1D01
EndChar

StartChar: Eth
Encoding: 208 208 146
Width: 1585
GlyphClass: 2
Flags: W
LayerCount: 2
Fore
SplineSet
1525 792 m 0,0,1
 1527 758 1527 758 1527 727 c 0,2,3
 1527 558 1527 558 1464 422 c 0,4,5
 1388 260 1388 260 1252 155 c 0,6,7
 1021 -23 1021 -23 689 -27 c 1,8,-1
 609 -27 l 2,9,10
 551 -27 551 -27 500 -26 c 2,11,-1
 383 -26 l 2,12,13
 299 -26 299 -26 256 -23 c 2,14,-1
 233 -23 l 2,15,16
 194 -23 194 -23 130 -29 c 1,17,18
 83 -29 83 -29 83 13 c 0,19,20
 83 51 83 51 133 69 c 128,-1,21
 183 87 183 87 183 139 c 2,22,-1
 183 651 l 1,23,-1
 45 651 l 2,24,25
 15 651 15 651 0 666 c 0,26,27
 -12 678 -12 678 -12 697 c 2,28,-1
 -12 750 l 2,29,30
 -12 769 -12 769 0 781 c 0,31,32
 15 796 15 796 45 796 c 2,33,-1
 183 796 l 1,34,-1
 183 1262 l 2,35,36
 183 1313 183 1313 133 1330.5 c 128,-1,37
 83 1348 83 1348 83 1387 c 0,38,39
 83 1428 83 1428 129 1428 c 0,40,41
 171 1427 171 1427 214 1427 c 0,42,43
 256 1427 256 1427 299 1428 c 0,44,45
 385 1431 385 1431 468 1433 c 2,46,-1
 527 1433 l 2,47,48
 681 1433 681 1433 837 1425 c 0,49,50
 1025 1414 1025 1414 1177 1349 c 0,51,52
 1321 1285 1321 1285 1415.5 1154 c 128,-1,53
 1510 1023 1510 1023 1525 792 c 0,0,1
424 651 m 1,54,-1
 424 116 l 1,55,56
 526 97 526 97 637 97 c 0,57,58
 680 97 680 97 721 100 c 0,59,60
 868 111 868 111 981 171 c 0,61,62
 1115 241 1115 241 1193 388 c 0,63,64
 1265 524 1265 524 1265 736 c 2,65,-1
 1265 769 l 1,66,67
 1261 927 1261 927 1209.5 1033 c 128,-1,68
 1158 1139 1158 1139 1074 1201 c 0,69,70
 951 1293 951 1293 775 1309 c 0,71,72
 714 1314 714 1314 651 1314 c 0,73,74
 530 1314 530 1314 424 1297 c 1,75,-1
 424 796 l 1,76,-1
 709 796 l 2,77,78
 739 796 739 796 754 781 c 0,79,80
 766 769 766 769 766 750 c 2,81,-1
 766 697 l 2,82,83
 766 678 766 678 754 666 c 0,84,85
 739 651 739 651 709 651 c 2,86,-1
 424 651 l 1,54,-1
EndSplineSet
EndChar

StartChar: multiply
Encoding: 215 215 153
Width: 1100
GlyphClass: 2
Flags: W
LayerCount: 2
Fore
SplineSet
532 529 m 1,0,-1
 349 346 l 2,1,2
 327 324 327 324 306 324 c 0,3,4
 289 324 289 324 276 338 c 2,5,-1
 239 374 l 2,6,7
 226 387 226 387 225 405 c 0,8,9
 225 426 225 426 247 448 c 2,10,-1
 431 631 l 1,11,-1
 247 815 l 2,12,13
 226 836 226 836 225 857 c 0,14,15
 225 874 225 874 239 888 c 2,16,-1
 276 925 l 2,17,18
 289 938 289 938 307 939 c 0,19,20
 328 939 328 939 349 917 c 2,21,-1
 533 734 l 1,22,-1
 717 917 l 2,23,24
 738 938 738 938 759 938 c 0,25,26
 776 938 776 938 789 924 c 2,27,-1
 826 888 l 2,28,29
 839 875 839 875 839 857 c 0,30,31
 839 836 839 836 819 816 c 2,32,-1
 635 632 l 1,33,-1
 819 448 l 2,34,35
 840 427 840 427 840 405 c 0,36,37
 840 388 840 388 826 375 c 2,38,-1
 789 338 l 2,39,40
 776 325 776 325 759 324 c 0,41,42
 738 324 738 324 716 345 c 2,43,-1
 532 529 l 1,0,-1
EndSplineSet
EndChar

StartChar: Oslash
Encoding: 216 216 154
Width: 1610
GlyphClass: 2
Flags: W
LayerCount: 2
Fore
SplineSet
1602 1461 m 2,0,-1
 1660 1399 l 2,1,2
 1663 1395 1663 1395 1660.5 1387.5 c 128,-1,3
 1658 1380 1658 1380 1650 1373 c 2,4,-1
 1450 1186 l 1,5,6
 1590 1013 1590 1013 1590 760 c 0,7,8
 1590 732 1590 732 1588 704 c 0,9,10
 1567 352 1567 352 1343.5 157 c 128,-1,11
 1120 -38 1120 -38 807 -55 c 0,12,13
 783 -56 783 -56 760 -56 c 0,14,15
 499 -56 499 -56 293 108 c 1,16,-1
 131 -43 l 2,17,18
 124 -50 124 -50 116.5 -52.5 c 128,-1,19
 109 -55 109 -55 105 -51 c 2,20,-1
 48 11 l 2,21,22
 45 15 45 15 47.5 22 c 128,-1,23
 50 29 50 29 57 36 c 2,24,-1
 213 181 l 1,25,26
 28 374 28 374 28 669 c 0,27,28
 28 688 28 688 29 706 c 0,29,30
 41 1055 41 1055 255.5 1258.5 c 128,-1,31
 470 1462 470 1462 808 1466 c 1,32,-1
 818 1466 l 2,33,34
 1148 1466 1148 1466 1374 1265 c 1,35,-1
 1576 1453 l 2,36,37
 1583 1460 1583 1460 1591 1462.5 c 128,-1,38
 1599 1465 1599 1465 1602 1461 c 2,0,-1
372 330 m 1,39,-1
 1223 1124 l 1,40,41
 1217 1134 1217 1134 1211 1144 c 0,42,43
 1089 1338 1089 1338 808 1338 c 0,44,45
 512 1337 512 1337 396 1154 c 0,46,47
 277 966 277 966 277 702 c 0,48,49
 277 491 277 491 372 330 c 1,39,-1
435 241 m 1,50,51
 580 68 580 68 808 66 c 2,52,-1
 813 66 l 2,53,54
 1042 66 1042 66 1190 262 c 0,55,56
 1338 459 1338 459 1338 696 c 0,57,58
 1338 698 1338 698 1338 700 c 2,59,-1
 1338 702 l 2,60,61
 1337 873 1337 873 1274 1023 c 1,62,-1
 435 241 l 1,50,51
EndSplineSet
EndChar

StartChar: Thorn
Encoding: 222 222 160
Width: 1151
GlyphClass: 2
Flags: W
LayerCount: 2
Fore
SplineSet
371 985 m 1,0,-1
 371 441 l 1,1,-1
 562 441 l 2,2,3
 628 441 628 441 695.5 460 c 128,-1,4
 763 479 763 479 810 526 c 0,5,6
 884 598 884 598 884 716 c 0,7,8
 882 831 882 831 807 906 c 0,9,10
 724 985 724 985 582 985 c 2,11,-1
 371 985 l 1,0,-1
371 331 m 1,12,-1
 371 146 l 2,13,14
 371 111 371 111 387 95 c 0,15,16
 395 87 395 87 408 82 c 0,17,18
 471 60 471 60 471 21 c 0,19,20
 471 2 471 2 460 -9 c 128,-1,21
 449 -20 449 -20 430 -20 c 2,22,-1
 91 -20 l 2,23,24
 73 -20 73 -20 62 -9 c 128,-1,25
 51 2 51 2 51 21 c 0,26,27
 51 60 51 60 114 82 c 0,28,29
 126 86 126 86 135 95 c 0,30,31
 151 111 151 111 151 146 c 2,32,-1
 151 1257 l 2,33,34
 151 1291 151 1291 135 1308 c 0,35,36
 127 1316 127 1316 114 1320 c 0,37,38
 51 1343 51 1343 51 1383 c 0,39,40
 51 1403 51 1403 62 1414 c 128,-1,41
 73 1425 73 1425 92 1425 c 2,42,-1
 430 1425 l 2,43,44
 449 1425 449 1425 460 1414 c 128,-1,45
 471 1403 471 1403 471 1383 c 0,46,47
 471 1343 471 1343 408 1320 c 0,48,49
 396 1316 396 1316 387 1308 c 0,50,51
 371 1292 371 1292 371 1257 c 2,52,-1
 371 1108 l 1,53,-1
 661 1108 l 2,54,55
 767 1108 767 1108 882 1071 c 0,56,57
 1001 1032 1001 1032 1066 920 c 0,58,59
 1117 830 1117 830 1117 706 c 0,60,61
 1115 587 1115 587 1048 492 c 0,62,63
 990 410 990 410 886.5 370.5 c 128,-1,64
 783 331 783 331 697 331 c 2,65,-1
 371 331 l 1,12,-1
EndSplineSet
Validated: 1
Substitution2: "'sups' Superscript in Latin lookup 7 subtable" uniEF15
EndChar

StartChar: germandbls
Encoding: 223 223 161
Width: 1269
GlyphClass: 2
Flags: W
LayerCount: 2
Fore
SplineSet
408 146 m 2
 408 111 408 111 424 95 c 0
 432 87 432 87 445 82 c 0
 508 60 508 60 508 21 c 0
 508 2 508 2 497 -9 c 0
 486 -20 486 -20 467 -20 c 2
 128 -20 l 2
 109 -20 109 -20 98 -9 c 0
 87 2 87 2 87 21 c 0
 87 60 87 60 150 82 c 0
 162 86 162 86 171 95 c 0
 187 111 187 111 187 146 c 2
 187 1027 l 2
 187 1120 187 1120 210 1209 c 0
 233 1298 233 1298 293 1364 c 0
 400 1486 400 1486 555 1486 c 0
 589 1486 589 1486 625 1480 c 0
 809 1448 809 1448 898 1274 c 0
 932 1205 932 1205 932 1140 c 0
 932 1038 932 1038 848 948 c 0
 793 888 793 888 727 843 c 0
 670 803 670 803 657 747 c 0
 652 727 652 727 653 711 c 0
 653 676 653 676 673 656 c 0
 683 646 683 646 698 639 c 0
 767 604 767 604 858 584 c 0
 989 555 989 555 1097 504 c 0
 1214 450 1214 450 1224 282 c 0
 1224 281 l 2
 1224 269 l 2
 1224 189 1224 189 1163 111 c 0
 1097 26 1097 26 975 -17 c 0
 974 -17 l 0
 898 -42 898 -42 807 -45 c 0
 806 -45 l 2
 779 -45 l 2
 654 -45 654 -45 539 -12 c 0
 529 -9 529 -9 525 0 c 2
 445 220 l 2
 444 223 444 223 444 226 c 0,0,0
 444 228 444 228 446 245 c 0
 448 262 448 262 457 272 c 0
 467 282 467 282 484 282 c 2
 486 282 l 2
 507 282 507 282 525 247 c 0
 525 246 l 0
 568 152 568 152 630 114 c 0
 692 76 692 76 788 73 c 1
 800 73 l 2
 868 73 868 73 950 105 c 0
 981 117 981 117 1000 136 c 0
 1030 166 1030 166 1032 216 c 1
 1032 222 l 2
 1032 278 1032 278 1002 309 c 0
 981 330 981 330 944 340 c 2
 805 380 l 1
 759 393 l 1
 657 421 657 421 567 481 c 0
 472 545 472 545 472 672 c 2
 472 675 l 2
 472 784 472 784 546 840 c 0
 611 890 611 890 673 949 c 0
 733 1004 733 1004 745 1095 c 0
 747 1114 747 1114 747 1133 c 0
 747 1200 747 1200 713 1249 c 0
 671 1307 671 1307 581 1316 c 0
 569 1317 569 1317 558 1317 c 0
 486 1317 486 1317 448 1266 c 0
 417 1225 417 1225 412 1159 c 0
 408 1093 408 1093 408 1027 c 2
 408 146 l 2
EndSplineSet
Validated: 1
EndChar

StartChar: ae
Encoding: 230 230 168
Width: 1762
GlyphClass: 2
Flags: W
LayerCount: 2
Fore
SplineSet
276 373 m 0,0,1
 295 277 295 277 346 208 c 0,2,3
 429 95 429 95 556 95 c 0,4,5
 606 95 606 95 668 118 c 2,6,-1
 785 160 l 1,7,-1
 785 760 l 1,8,9
 752 787 752 787 687 819 c 0,10,11
 637 843 637 843 607 849 c 0,12,13
 595 852 595 852 582 852 c 0,14,15
 556 852 556 852 524 842 c 0,16,17
 444 817 444 817 423 806 c 0,18,19
 369 786 369 786 339 753 c 0,20,21
 300 711 300 711 273 599 c 0,22,23
 263 553 263 553 263 494 c 0,24,25
 263 434 263 434 276 373 c 0,0,1
1284 852 m 2,26,-1
 1273 852 l 1,27,28
 1143 848 1143 848 1088 759 c 0,29,30
 1035 674 1035 674 1027 571 c 1,31,-1
 1513 571 l 1,32,33
 1509 676 1509 676 1461 763 c 0,34,35
 1413 852 1413 852 1284 852 c 2,26,-1
1707 551 m 0,36,37
 1707 518 1707 518 1704 492 c 0,38,39
 1703 481 1703 481 1695 473 c 0,40,41
 1680 458 1680 458 1643 458 c 2,42,-1
 1027 458 l 1,43,44
 1036 284 1036 284 1139 180 c 0,45,46
 1203 116 1203 116 1291 99 c 1,47,-1
 1291 98 l 1,48,49
 1324 91 1324 91 1358 91 c 0,50,51
 1448 91 1448 91 1523 132 c 0,52,53
 1588 167 1588 167 1611 174 c 0,54,55
 1619 177 1619 177 1626 177 c 0,56,57
 1646 177 1646 177 1654.5 168.5 c 128,-1,58
 1663 160 1663 160 1663 142 c 0,59,60
 1663 128 1663 128 1648.5 100.5 c 128,-1,61
 1634 73 1634 73 1626 64 c 0,62,63
 1613 50 1613 50 1610 48 c 0,64,65
 1495 -51 1495 -51 1301 -51 c 0,66,67
 1047 -49 1047 -49 911 103 c 1,68,-1
 529 -33 l 2,69,70
 495 -45 495 -45 469 -45 c 2,71,-1
 428 -45 l 2,72,73
 277 -45 277 -45 167 79 c 0,74,75
 42 220 42 220 42 434 c 0,76,77
 42 496 42 496 48 541 c 0,78,79
 62 633 62 633 110 710 c 0,80,81
 146 768 146 768 205 812 c 0,82,83
 236 835 236 835 265 849 c 0,84,85
 493 934 493 934 596 968 c 0,86,87
 617 975 617 975 647 975 c 128,-1,88
 677 975 677 975 721 964 c 0,89,90
 763 955 763 955 969 879 c 1,91,92
 1090 978 1090 978 1278 980 c 2,93,-1
 1282 980 l 2,94,95
 1488 980 1488 980 1597.5 861 c 128,-1,96
 1707 742 1707 742 1707 551 c 0,36,37
EndSplineSet
Substitution2: "'sups' Superscript in Latin lookup 8 subtable" uni1D46
Substitution2: "'smcp' Lowercase to Small Capitals in Latin lookup 1 subtable" uni1D01
EndChar

StartChar: eth
Encoding: 240 240 178
Width: 1105
GlyphClass: 2
Flags: W
LayerCount: 2
Fore
SplineSet
306 1057 m 0,0,1
 299 1057 299 1057 293 1063 c 0,2,3
 291 1065 291 1065 290 1066 c 0,4,5
 263 1108 263 1108 254 1124 c 0,6,7
 251 1130 251 1130 250.5 1136 c 128,-1,8
 250 1142 250 1142 257 1148 c 0,9,10
 260 1151 260 1151 264 1153 c 0,11,12
 388 1201 388 1201 506 1267 c 1,13,14
 426 1334 426 1334 312 1396 c 0,15,16
 282 1413 282 1413 282 1435 c 0,17,18
 282 1444 282 1444 288.5 1454 c 128,-1,19
 295 1464 295 1464 307 1486 c 0,20,21
 322 1514 322 1514 351 1514 c 0,22,23
 364 1514 364 1514 379 1507 c 0,24,25
 380 1507 380 1507 381 1506 c 0,26,27
 511 1430 511 1430 619 1343 c 1,28,29
 785 1459 785 1459 852 1514 c 0,30,31
 859 1519 859 1519 866 1520 c 0,32,33
 873 1520 873 1520 880 1513 c 0,34,35
 892 1500 892 1500 903.5 1487 c 128,-1,36
 915 1474 915 1474 926 1462 c 0,37,38
 932 1456 932 1456 932 1448 c 128,-1,39
 932 1440 932 1440 926 1434 c 0,40,41
 853 1363 853 1363 711 1263 c 1,42,43
 804 1176 804 1176 878 1078 c 0,44,45
 1066 830 1066 830 1071 461 c 1,46,-1
 1071 455 l 2,47,48
 1071 243 1071 243 924 96 c 0,49,50
 775 -54 775 -54 561 -60 c 1,51,-1
 560 -60 l 1,52,-1
 547 -60 l 2,53,54
 344 -60 344 -60 198 91 c 0,55,56
 48 246 48 246 48 458 c 2,57,-1
 48 461 l 2,58,59
 49 694 49 694 220 852 c 0,60,61
 242 873 242 873 281.5 886.5 c 128,-1,62
 321 900 321 900 395 929 c 2,63,-1
 492 964 l 2,64,65
 545 983 545 983 580 983 c 2,66,-1
 583 983 l 1,67,-1
 584 983 l 1,68,69
 671 979 671 979 750 947 c 1,70,71
 675 1080 675 1080 594 1179 c 0,72,73
 592 1181 592 1181 590 1183 c 0,74,75
 462 1111 462 1111 314 1058 c 0,76,77
 310 1057 310 1057 306 1057 c 0,0,1
550 873 m 2,78,79
 443 873 443 873 365 766 c 0,80,81
 281 649 281 649 281 478 c 2,82,-1
 281 474 l 2,83,84
 281 303 281 303 365 178 c 0,85,86
 447 56 447 56 561 50 c 1,87,-1
 574 50 l 2,88,89
 680 50 680 50 758 157 c 0,90,91
 842 273 842 273 843 446 c 0,92,93
 843 618 843 618 758 744 c 0,94,95
 676 867 676 867 562 873 c 1,96,-1
 550 873 l 2,78,79
EndSplineSet
EndChar

StartChar: oslash
Encoding: 248 248 186
Width: 1107
GlyphClass: 2
Flags: W
LayerCount: 2
Fore
SplineSet
544 869 m 2,0,1
 438 869 438 869 356 759 c 0,2,3
 274 648 274 648 274 480 c 0,4,5
 274 372 274 372 309 283 c 1,6,-1
 758 732 l 1,7,8
 755 737 755 737 751 742 c 0,9,10
 669 862 669 862 555 869 c 1,11,-1
 544 869 l 2,0,1
1028 988 m 2,12,-1
 1078 938 l 2,13,14
 1081 935 1081 935 1079.5 929.5 c 128,-1,15
 1078 924 1078 924 1074 920 c 2,16,-1
 946 792 l 1,17,18
 1062 652 1062 652 1065 465 c 2,19,-1
 1065 459 l 2,20,21
 1065 251 1065 251 916.5 106 c 128,-1,22
 768 -39 768 -39 554 -45 c 1,23,-1
 553 -45 l 1,24,-1
 537 -45 l 2,25,26
 361 -45 361 -45 225 71 c 1,27,-1
 103 -51 l 2,28,29
 98 -56 98 -56 92.5 -57.5 c 128,-1,30
 87 -59 87 -59 84 -56 c 2,31,-1
 34 -6 l 2,32,33
 31 -3 31 -3 32.5 2.5 c 128,-1,34
 34 8 34 8 39 13 c 2,35,-1
 162 136 l 1,36,37
 42 276 42 276 42 462 c 2,38,-1
 42 465 l 2,39,40
 43 693 43 693 213 848 c 0,41,42
 235 869 235 869 275 882 c 0,43,44
 286 886 286 886 484 956 c 0,45,46
 542 976 542 976 574 976 c 2,47,-1
 577 976 l 1,48,-1
 578 976 l 1,49,50
 754 969 754 969 883 857 c 1,51,-1
 1010 984 l 2,52,53
 1015 989 1015 989 1020 990 c 128,-1,54
 1025 991 1025 991 1028 988 c 2,12,-1
352 198 m 1,55,56
 355 193 355 193 358 189 c 0,57,58
 440 69 440 69 554 63 c 1,59,-1
 568 63 l 2,60,61
 674 63 674 63 755 172.5 c 128,-1,62
 836 282 836 282 836 450 c 0,63,64
 836 558 836 558 801 647 c 1,65,-1
 352 198 l 1,55,56
EndSplineSet
EndChar

StartChar: thorn
Encoding: 254 254 192
Width: 1180
GlyphClass: 2
Flags: W
LayerCount: 2
Fore
SplineSet
918 557 m 0,0,1
 899 653 899 653 848 722 c 0,2,3
 765 835 765 835 638 835 c 0,4,5
 588 835 588 835 526 812 c 2,6,-1
 409 770 l 1,7,-1
 409 170 l 1,8,9
 442 143 442 143 507 111 c 0,10,11
 557 87 557 87 587 81 c 0,12,13
 599 78 599 78 612 78 c 0,14,15
 638 78 638 78 670 88 c 0,16,17
 750 113 750 113 771 124 c 0,18,19
 825 144 825 144 855 177 c 0,20,21
 894 219 894 219 921 331 c 0,22,23
 931 377 931 377 931 436 c 0,24,25
 931 496 931 496 918 557 c 0,0,1
409 -519 m 2,26,27
 409 -534 409 -534 398 -545 c 0,28,29
 385 -558 385 -558 359 -562 c 0,30,31
 356 -562 356 -562 354 -562 c 0,32,33
 340 -562 340 -562 329 -549 c 0,34,35
 306 -522 306 -522 254 -506 c 0,36,37
 190 -487 190 -487 136 -487 c 0,38,39
 117 -487 117 -487 106 -476 c 128,-1,40
 95 -465 95 -465 95 -445 c 0,41,42
 95 -406 95 -406 158 -383 c 0,43,44
 171 -378 171 -378 179 -371 c 0,45,46
 195 -355 195 -355 195 -321 c 2,47,-1
 195 1258 l 2,48,49
 195 1291 195 1291 179 1308 c 0,50,51
 171 1316 171 1316 158 1320 c 0,52,53
 95 1343 95 1343 95 1383 c 0,54,55
 95 1402 95 1402 106 1413 c 128,-1,56
 117 1424 117 1424 136 1424 c 0,57,58
 190 1424 190 1424 254 1443 c 0,59,60
 305 1458 305 1458 329 1486 c 0,61,62
 340 1499 340 1499 354 1499 c 0,63,64
 357 1499 357 1499 359 1499 c 0,65,66
 385 1495 385 1495 397 1483 c 128,-1,67
 409 1471 409 1471 409 1456 c 2,68,-1
 409 872 l 1,69,-1
 665 963 l 2,70,71
 699 975 699 975 725 975 c 2,72,-1
 766 975 l 2,73,74
 917 975 917 975 1027 851 c 0,75,76
 1152 710 1152 710 1152 496 c 0,77,78
 1152 434 1152 434 1146 389 c 0,79,80
 1132 297 1132 297 1084 220 c 0,81,82
 1048 162 1048 162 989 118 c 0,83,84
 958 95 958 95 929 81 c 0,85,86
 701 -4 701 -4 598 -38 c 0,87,88
 577 -45 577 -45 547 -45 c 128,-1,89
 517 -45 517 -45 473 -34 c 0,90,91
 455 -30 455 -30 409 -14 c 1,92,-1
 409 -519 l 2,26,27
EndSplineSet
EndChar

StartChar: Hbar
Encoding: 294 294 232
Width: 1638
GlyphClass: 2
Flags: W
LayerCount: 2
Fore
SplineSet
78 998 m 2
 78 1093 l 2
 78 1099 78 1099 84 1104 c 0
 90 1109 90 1109 98 1109 c 2
 235 1109 l 1
 235 1256 l 2
 235 1291 235 1291 219 1307 c 0
 211 1315 211 1315 198 1320 c 0
 135 1342 135 1342 135 1382 c 0
 135 1402 135 1402 146 1413 c 0
 157 1424 157 1424 176 1424 c 2
 514 1424 l 2
 533 1424 533 1424 544 1413 c 0
 555 1402 555 1402 555 1382 c 0
 555 1342 555 1342 492 1320 c 0
 480 1316 480 1316 471 1307 c 0
 455 1291 455 1291 455 1256 c 2
 455 1109 l 1
 1262 1109 l 1
 1262 1256 l 2
 1262 1291 1262 1291 1246 1307 c 0
 1238 1315 1238 1315 1225 1320 c 0
 1162 1342 1162 1342 1162 1382 c 0
 1162 1402 1162 1402 1173 1413 c 0
 1184 1424 1184 1424 1203 1424 c 2
 1541 1424 l 2
 1560 1424 1560 1424 1571 1413 c 0
 1582 1402 1582 1402 1582 1382 c 0
 1582 1342 1582 1342 1519 1320 c 0
 1507 1316 1507 1316 1498 1307 c 0
 1482 1291 1482 1291 1482 1256 c 2
 1482 1109 l 1
 1624 1109 l 2
 1632 1109 1632 1109 1638 1104 c 0
 1644 1099 1644 1099 1644 1093 c 2
 1644 998 l 2
 1644 992 1644 992 1638 987 c 0
 1632 982 1632 982 1624 982 c 2
 1482 982 l 1
 1482 147 l 2
 1482 111 1482 111 1499 94 c 0
 1507 86 1507 86 1519 82 c 0
 1582 60 1582 60 1582 21 c 0
 1582 2 1582 2 1571 -9 c 0
 1560 -20 1560 -20 1541 -20 c 2
 1202 -20 l 2
 1184 -20 1184 -20 1173 -9 c 0
 1162 2 1162 2 1162 21 c 0
 1162 60 1162 60 1225 82 c 0
 1237 86 1237 86 1246 95 c 0
 1262 111 1262 111 1262 146 c 2
 1262 680 l 1
 455 680 l 1
 455 147 l 2
 455 111 455 111 472 94 c 0
 480 86 480 86 492 82 c 0
 555 60 555 60 555 21 c 0
 555 2 555 2 544 -9 c 0
 533 -20 533 -20 514 -20 c 2
 175 -20 l 2
 157 -20 157 -20 146 -9 c 0
 135 2 135 2 135 21 c 0
 135 60 135 60 198 82 c 0
 210 86 210 86 219 95 c 0
 235 111 235 111 235 146 c 2
 235 982 l 1
 98 982 l 2
 90 982 90 982 84 987 c 0
 78 992 78 992 78 998 c 2
1262 982 m 1
 455 982 l 1
 455 807 l 1
 1262 807 l 1
 1262 982 l 1
EndSplineSet
EndChar

StartChar: dotlessi
Encoding: 305 305 243
Width: 597
GlyphClass: 2
Flags: W
LayerCount: 2
Fore
SplineSet
402 146 m 2,0,1
 402 111 402 111 418 95 c 0,2,3
 426 87 426 87 439 82 c 0,4,5
 502 60 502 60 502 21 c 0,6,7
 502 2 502 2 491 -9 c 128,-1,8
 480 -20 480 -20 462 -20 c 2,9,-1
 129 -20 l 2,10,11
 110 -20 110 -20 99 -9 c 128,-1,12
 88 2 88 2 88 21 c 0,13,14
 88 60 88 60 151 82 c 0,15,16
 163 86 163 86 172 95 c 0,17,18
 188 111 188 111 188 146 c 2,19,-1
 188 783 l 2,20,21
 188 816 188 816 172 833 c 0,22,23
 164 841 164 841 151 845 c 0,24,25
 88 868 88 868 88 908 c 0,26,27
 88 927 88 927 99 938 c 128,-1,28
 110 949 110 949 129 949 c 0,29,30
 183 949 183 949 247 968 c 0,31,32
 298 983 298 983 322 1011 c 0,33,34
 333 1024 333 1024 347 1024 c 0,35,36
 350 1024 350 1024 352 1024 c 0,37,38
 378 1020 378 1020 390 1008 c 128,-1,39
 402 996 402 996 402 981 c 2,40,-1
 402 146 l 2,0,1
EndSplineSet
Validated: 1
EndChar

StartChar: kgreenlandic
Encoding: 312 312 250
Width: 1163
GlyphClass: 2
Flags: W
LayerCount: 2
Fore
SplineSet
402 146 m 2,0,1
 402 111 402 111 418 95 c 0,2,3
 426 87 426 87 439 82 c 0,4,5
 502 60 502 60 502 21 c 0,6,7
 502 2 502 2 491 -9 c 128,-1,8
 480 -20 480 -20 462 -20 c 2,9,-1
 129 -20 l 2,10,11
 110 -20 110 -20 99 -9 c 128,-1,12
 88 2 88 2 88 21 c 0,13,14
 88 60 88 60 151 82 c 0,15,16
 163 86 163 86 172 95 c 0,17,18
 188 111 188 111 188 146 c 2,19,-1
 188 783 l 2,20,21
 188 816 188 816 172 833 c 0,22,23
 164 841 164 841 151 845 c 0,24,25
 88 868 88 868 88 908 c 0,26,27
 88 927 88 927 99 938 c 128,-1,28
 110 949 110 949 129 949 c 0,29,30
 183 949 183 949 247 968 c 0,31,32
 298 983 298 983 322 1011 c 0,33,34
 333 1024 333 1024 347 1024 c 0,35,36
 350 1024 350 1024 352 1024 c 0,37,38
 378 1020 378 1020 390 1008 c 128,-1,39
 402 996 402 996 402 981 c 2,40,-1
 402 616 l 1,41,42
 516 707 516 707 827 947 c 0,43,44
 856 970 856 970 887 970 c 0,45,46
 907 970 907 970 927 960 c 0,47,48
 956 944 956 944 985 928 c 128,-1,49
 1014 912 1014 912 1016.5 910.5 c 128,-1,50
 1019 909 1019 909 1023 905 c 0,51,52
 1034 894 1034 894 1034 880 c 0,53,54
 1034 870 1034 870 1030 862 c 2,55,-1
 983 754 l 2,56,57
 981 751 981 751 979 748 c 0,58,59
 973 742 973 742 967 742 c 128,-1,60
 961 742 961 742 955 745 c 2,61,-1
 906 773 l 2,62,63
 881 787 881 787 857.5 787 c 128,-1,64
 834 787 834 787 810 768 c 0,65,66
 724 700 724 700 568 578 c 1,67,-1
 915 189 l 2,68,69
 992 102 992 102 1032 84 c 0,70,71
 1068 68 1068 68 1109 68 c 2,72,-1
 1116 68 l 1,73,-1
 1117 68 l 2,74,75
 1146 67 1146 67 1160 53 c 0,76,77
 1172 41 1172 41 1172 23 c 0,78,79
 1172 11 1172 11 1163 1 c 0,80,81
 1158 -4 1158 -4 1150 -7 c 2,82,-1
 1094 -34 l 2,83,84
 1033 -63 1033 -63 990 -63 c 0,85,86
 880 -63 880 -63 792 34 c 2,87,-1
 402 462 l 1,88,-1
 402 146 l 2,0,1
EndSplineSet
EndChar

StartChar: OE
Encoding: 338 338 276
Width: 2101
GlyphClass: 2
Flags: W
LayerCount: 2
Fore
SplineSet
301 735 m 0,0,1
 301 711 301 711 302 698.5 c 128,-1,2
 303 686 303 686 303 686 c 0,3,4
 317 462 317 462 461 278 c 0,5,6
 603 96 603 96 848 85 c 0,7,8
 871 84 871 84 893 84 c 0,9,10
 1017 84 1017 84 1095 121 c 0,11,12
 1125 135 1125 135 1151 159 c 1,13,-1
 1151 1239 l 1,14,15
 1119 1266 1119 1266 1082 1285 c 0,16,17
 979 1336 979 1336 861 1336 c 2,18,-1
 840 1336 l 1,19,20
 580 1324 580 1324 434 1128 c 0,21,22
 301 950 301 950 301 735 c 0,0,1
1372 657 m 1,23,-1
 1372 114 l 1,24,-1
 1779 114 l 2,25,26
 1863 114 1863 114 1922 179 c 0,27,28
 1986 250 1986 250 2019 290 c 0,29,30
 2034 308 2034 308 2044 313.5 c 128,-1,31
 2054 319 2054 319 2062 319 c 0,32,33
 2081 319 2081 319 2092 308 c 128,-1,34
 2103 297 2103 297 2103 280 c 128,-1,35
 2103 263 2103 263 2100 252 c 2,36,-1
 2027 -5 l 2,37,38
 2026 -10 2026 -10 2021 -15 c 128,-1,39
 2016 -20 2016 -20 2008 -20 c 2,40,-1
 1145 -20 l 1,41,42
 1092 -35 1092 -35 1038 -43 c 0,43,44
 938 -57 938 -57 847 -57 c 0,45,46
 533 -57 533 -57 290 144 c 0,47,48
 46 346 46 346 46 701 c 0,49,50
 46 1047 46 1047 282.5 1256 c 128,-1,51
 519 1465 519 1465 847 1465 c 2,52,-1
 856 1465 l 2,53,54
 969 1465 969 1465 1096 1440 c 0,55,56
 1126 1434 1126 1434 1154 1425 c 1,57,-1
 2020 1425 l 2,58,59
 2028 1425 2028 1425 2034 1419 c 128,-1,60
 2040 1413 2040 1413 2040 1405 c 2,61,-1
 2040 1147 l 2,62,63
 2040 1128 2040 1128 2029 1117 c 128,-1,64
 2018 1106 2018 1106 1999 1106 c 0,65,66
 1986 1106 1986 1106 1974 1118.5 c 128,-1,67
 1962 1131 1962 1131 1946 1155 c 0,68,69
 1893 1228 1893 1228 1860 1261 c 0,70,71
 1830 1291 1830 1291 1779 1291 c 2,72,-1
 1372 1291 l 1,73,-1
 1372 788 l 1,74,-1
 1581 788 l 2,75,76
 1616 788 1616 788 1633 805 c 0,77,78
 1641 813 1641 813 1646 827 c 0,79,80
 1671 891 1671 891 1711 891 c 0,81,82
 1729 891 1729 891 1740 880 c 128,-1,83
 1751 869 1751 869 1751 850 c 2,84,-1
 1751 596 l 2,85,86
 1751 577 1751 577 1740 566 c 128,-1,87
 1729 555 1729 555 1710 555 c 0,88,89
 1672 555 1672 555 1644 618 c 0,90,91
 1638 630 1638 630 1630 638 c 0,92,93
 1611 657 1611 657 1575 657 c 2,94,-1
 1372 657 l 1,23,-1
EndSplineSet
Validated: 1
Substitution2: "'sups' Superscript in Latin lookup 7 subtable" uni0276
EndChar

StartChar: oe
Encoding: 339 339 277
Width: 1789
GlyphClass: 2
Flags: W
LayerCount: 2
Fore
SplineSet
537 -45 m 2,0,1
 337 -45 337 -45 189.5 105 c 128,-1,2
 42 255 42 255 42 462 c 2,3,-1
 42 465 l 2,4,5
 43 693 43 693 213 848 c 0,6,7
 235 869 235 869 275 882 c 0,8,9
 286 886 286 886 484 956 c 0,10,11
 542 976 542 976 574 976 c 2,12,-1
 577 976 l 1,13,-1
 578 976 l 1,14,15
 782 968 782 968 922 820 c 0,16,17
 933 808 933 808 943 795 c 1,18,19
 969 831 969 831 1003 862 c 0,20,21
 1128 978 1128 978 1331 980 c 2,22,-1
 1335 980 l 2,23,24
 1541 980 1541 980 1650.5 861 c 128,-1,25
 1760 742 1760 742 1760 551 c 0,26,27
 1760 518 1760 518 1757 492 c 0,28,29
 1756 481 1756 481 1748 473 c 0,30,31
 1733 458 1733 458 1696 458 c 2,32,-1
 1080 458 l 1,33,34
 1089 284 1089 284 1192 180 c 0,35,36
 1256 116 1256 116 1344 99 c 1,37,-1
 1344 98 l 1,38,39
 1377 91 1377 91 1411 91 c 0,40,41
 1501 91 1501 91 1576 132 c 0,42,43
 1641 167 1641 167 1664 174 c 0,44,45
 1672 177 1672 177 1679 177 c 0,46,47
 1699 177 1699 177 1707.5 168.5 c 128,-1,48
 1716 160 1716 160 1716 142 c 0,49,50
 1716 128 1716 128 1701.5 100.5 c 128,-1,51
 1687 73 1687 73 1679 64 c 0,52,53
 1666 50 1666 50 1663 48 c 0,54,55
 1548 -51 1548 -51 1354 -51 c 0,56,57
 1082 -49 1082 -49 945 125 c 0,58,59
 943 128 943 128 940 131 c 1,60,61
 928 118 928 118 916 106 c 0,62,63
 768 -39 768 -39 554 -45 c 1,64,-1
 553 -45 l 1,65,-1
 537 -45 l 2,0,1
544 869 m 2,66,67
 437 869 437 869 355.5 759 c 128,-1,68
 274 649 274 649 274 480.5 c 128,-1,69
 274 312 274 312 358 189 c 0,70,71
 440 69 440 69 554 63 c 1,72,-1
 568 63 l 2,73,74
 674 63 674 63 755 172.5 c 128,-1,75
 836 282 836 282 836 450.5 c 128,-1,76
 836 619 836 619 751 742 c 0,77,78
 669 862 669 862 555 869 c 1,79,-1
 544 869 l 2,66,67
1337 852 m 2,80,-1
 1326 852 l 1,81,82
 1196 848 1196 848 1141 759 c 0,83,84
 1088 674 1088 674 1080 571 c 1,85,-1
 1566 571 l 1,86,87
 1562 676 1562 676 1514 763 c 0,88,89
 1466 852 1466 852 1337 852 c 2,80,-1
EndSplineSet
EndChar

StartChar: longs
Encoding: 383 383 321
Width: 625
GlyphClass: 2
Flags: W
LayerCount: 2
Fore
SplineSet
188 1027 m 2,0,1
 188 1157 188 1157 208 1226 c 128,-1,2
 228 1295 228 1295 252 1323 c 0,3,4
 276 1353 276 1353 305 1364 c 2,5,-1
 553 1459 l 2,6,7
 564 1463 564 1463 592 1465 c 0,8,9
 593 1465 593 1465 594 1465 c 2,10,-1
 598 1465 l 2,11,12
 626 1465 626 1465 654 1446 c 0,13,14
 681 1428 681 1428 690.5 1410.5 c 128,-1,15
 700 1393 700 1393 700 1376 c 0,16,17
 700 1323 700 1323 695 1307 c 0,18,19
 689 1287 689 1287 671 1282 c 0,20,21
 668 1281 668 1281 666 1281 c 2,22,-1
 663 1281 l 2,23,24
 654 1281 654 1281 640.5 1287.5 c 128,-1,25
 627 1294 627 1294 606 1307 c 0,26,27
 577 1327 577 1327 544.5 1327 c 128,-1,28
 512 1327 512 1327 489 1318 c 0,29,30
 464 1307 464 1307 446 1289 c 0,31,32
 413 1256 413 1256 407 1197 c 0,33,34
 403 1160 403 1160 402.5 1116.5 c 128,-1,35
 402 1073 402 1073 402 1027 c 2,36,-1
 402 146 l 2,37,38
 402 111 402 111 418 95 c 0,39,40
 426 87 426 87 439 82 c 0,41,42
 502 60 502 60 502 23 c 0,43,44
 502 3 502 3 490.5 -8.5 c 128,-1,45
 479 -20 479 -20 461 -20 c 2,46,-1
 129 -20 l 2,47,48
 111 -20 111 -20 99.5 -8.5 c 128,-1,49
 88 3 88 3 88 22 c 128,-1,50
 88 41 88 41 103 56 c 128,-1,51
 118 71 118 71 151 82 c 0,52,53
 163 86 163 86 172 95 c 0,54,55
 188 111 188 111 188 146 c 2,56,-1
 188 824 l 1,57,-1
 88 824 l 2,58,59
 70 824 70 824 59 835 c 128,-1,60
 48 846 48 846 48 864 c 2,61,-1
 48 866 l 2,62,63
 48 893 48 893 78 909 c 0,64,65
 157 951 157 951 188 963 c 1,66,-1
 188 1027 l 2,0,1
EndSplineSet
EndChar

StartChar: uni0182
Encoding: 386 386 324
Width: 1197
GlyphClass: 2
Flags: W
LayerCount: 2
Fore
SplineSet
432 90 m 2,0,-1
 602 90 l 2,1,2
 668 90 668 90 735.5 109 c 128,-1,3
 803 128 803 128 850 175 c 0,4,5
 924 247 924 247 924 365 c 0,6,7
 924 480 924 480 847 555 c 0,8,9
 764 634 764 634 622 634 c 2,10,-1
 407 634 l 1,11,-1
 407 148 l 2,12,13
 407 114 407 114 423 97 c 0,14,15
 427 93 427 93 432 90 c 2,0,-1
408 757 m 1,16,-1
 701 757 l 2,17,18
 790 757 790 757 921 720 c 1,19,-1
 922 720 l 1,20,21
 1040 685 1040 685 1106 569 c 0,22,23
 1157 479 1157 479 1157 355 c 0,24,25
 1157 237 1157 237 1088 140 c 0,26,27
 1028 57 1028 57 925.5 18.5 c 128,-1,28
 823 -20 823 -20 737 -20 c 2,29,-1
 467 -20 l 1,30,-1
 384 -20 l 1,31,-1
 128 -20 l 2,32,33
 109 -20 109 -20 98 -9 c 128,-1,34
 87 2 87 2 87 22 c 0,35,36
 87 62 87 62 150 85 c 0,37,38
 162 89 162 89 171 97 c 0,39,40
 187 113 187 113 187 148 c 2,41,-1
 187 1259 l 2,42,43
 187 1294 187 1294 171 1310 c 0,44,45
 163 1318 163 1318 150 1323 c 0,46,47
 87 1345 87 1345 87 1384 c 0,48,49
 87 1403 87 1403 98 1414 c 128,-1,50
 109 1425 109 1425 128 1425 c 2,51,-1
 1044 1425 l 2,52,53
 1052 1425 1052 1425 1057 1420 c 128,-1,54
 1062 1415 1062 1415 1063 1410 c 2,55,-1
 1136 1153 l 2,56,57
 1139 1142 1139 1142 1139 1125 c 128,-1,58
 1139 1108 1139 1108 1128 1097 c 128,-1,59
 1117 1086 1117 1086 1098 1086 c 128,-1,60
 1079 1086 1079 1086 1055 1115 c 0,61,62
 1022 1155 1022 1155 958 1226 c 0,63,64
 899 1291 899 1291 815 1291 c 2,65,-1
 408 1291 l 1,66,-1
 408 757 l 1,16,-1
EndSplineSet
EndChar

StartChar: uni0184
Encoding: 388 388 326
Width: 1192
GlyphClass: 2
Flags: W
LayerCount: 2
Fore
SplineSet
103 -20 m 2,0,1
 85 -20 85 -20 74 -9 c 128,-1,2
 63 2 63 2 63 20 c 0,3,4
 63 59 63 59 126 81 c 0,5,6
 138 85 138 85 147 94 c 0,7,8
 163 110 163 110 163 145 c 2,9,-1
 163 1255 l 2,10,11
 163 1290 163 1290 147 1306 c 0,12,13
 139 1314 139 1314 126 1319 c 0,14,15
 63 1341 63 1341 63 1379 c 0,16,17
 63 1400 63 1400 74.5 1411.5 c 128,-1,18
 86 1423 86 1423 104 1423 c 2,19,-1
 442 1423 l 2,20,21
 460 1423 460 1423 471.5 1411.5 c 128,-1,22
 483 1400 483 1400 483 1380.5 c 128,-1,23
 483 1361 483 1361 468 1345.5 c 128,-1,24
 453 1330 453 1330 420 1319 c 0,25,26
 408 1315 408 1315 399 1306 c 0,27,28
 383 1290 383 1290 383 1255 c 2,29,-1
 383 809 l 1,30,-1
 653 809 l 2,31,32
 753 809 753 809 882 772 c 0,33,34
 1016 733 1016 733 1085 609 c 0,35,36
 1140 513 1140 513 1140 384 c 0,37,38
 1140 220 1140 220 1030 110 c 0,39,40
 972 52 972 52 891 21 c 0,41,42
 781 -20 781 -20 692 -20 c 2,43,-1
 103 -20 l 2,0,1
383 680 m 1,44,-1
 383 95 l 1,45,-1
 559 95 l 2,46,47
 722 95 722 95 811 183 c 0,48,49
 893 265 893 265 893 388 c 2,50,-1
 893 391 l 2,51,52
 893 514 893 514 807 597 c 128,-1,53
 721 680 721 680 569 680 c 2,54,-1
 383 680 l 1,44,-1
EndSplineSet
Validated: 1
EndChar

StartChar: uni0186
Encoding: 390 390 328
Width: 1405
GlyphClass: 2
Flags: W
LayerCount: 2
Fore
SplineSet
558 -57 m 0,0,1
 468 -57 468 -57 366.5 -42.5 c 128,-1,2
 265 -28 265 -28 167 13 c 0,3,4
 159 16 159 16 156 24 c 2,5,6
 156 24 156 24 69 267 c 2,7,8
 64 280 64 280 64 292 c 0,9,10
 64 311 64 311 76.5 323.5 c 128,-1,11
 89 336 89 336 108 336 c 0,12,13
 140 336 140 336 158 296 c 0,14,15
 220 164 220 164 310 121 c 0,16,17
 388 84 388 84 512 84 c 0,18,19
 533 84 533 84 557 85 c 0,20,21
 802 96 802 96 944 278 c 0,22,23
 1088 462 1088 462 1102 686 c 0,24,25
 1102 686 1102 686 1103 698.5 c 128,-1,26
 1104 711 1104 711 1104 735 c 0,27,28
 1104 950 1104 950 971 1128 c 0,29,30
 825 1324 825 1324 565 1336 c 1,31,32
 565 1336 565 1336 544 1336 c 2,33,34
 427 1336 427 1336 323 1285 c 0,35,36
 213 1230 213 1230 158 1111 c 0,37,38
 158 1110 158 1110 158 1110 c 0,39,40
 149 1092 149 1092 138 1081.5 c 128,-1,41
 127 1071 127 1071 114 1071 c 2,42,43
 114 1071 114 1071 111 1071 c 2,44,45
 94 1071 94 1071 84 1081 c 128,-1,46
 74 1091 74 1091 71 1105 c 0,47,48
 71 1106 71 1106 59 1212 c 128,-1,49
 47 1318 47 1318 47 1319 c 0,50,51
 47 1330 47 1330 56 1336 c 0,52,53
 176 1413 176 1413 308.5 1439 c 128,-1,54
 441 1465 441 1465 558 1465 c 0,55,56
 886 1465 886 1465 1122.5 1256 c 128,-1,57
 1359 1047 1359 1047 1359 701 c 0,58,59
 1359 346 1359 346 1115 144 c 0,60,61
 872 -57 872 -57 558 -57 c 0,0,1
69 267 m 1,62,63
 69 267 69 267 69 267 c 1,64,-1
 69 267 l 1,62,63
EndSplineSet
Validated: 1
EndChar

StartChar: uni018B
Encoding: 395 395 333
Width: 1130
GlyphClass: 2
Flags: W
LayerCount: 2
Fore
SplineSet
80 1086 m 0
 61 1086 61 1086 50 1097 c 0
 39 1108 39 1108 39 1125 c 0
 39 1142 39 1142 42 1153 c 2
 115 1410 l 2
 116 1415 116 1415 121 1420 c 0
 126 1425 126 1425 134 1425 c 2
 1050 1425 l 2
 1069 1425 1069 1425 1080 1414 c 0
 1091 1403 1091 1403 1091 1384 c 0
 1091 1345 1091 1345 1028 1323 c 0
 1016 1319 1016 1319 1007 1310 c 0
 991 1294 991 1294 991 1259 c 2
 991 148 l 2
 991 114 991 114 1007 97 c 0
 1015 89 1015 89 1028 85 c 0
 1091 62 1091 62 1091 22 c 0
 1091 2 1091 2 1080 -9 c 0
 1069 -20 1069 -20 1050 -20 c 2
 796 -20 l 1
 711 -20 l 1
 476 -20 l 2
 387 -20 387 -20 256 17 c 1
 255 17 l 1
 137 52 137 52 71 168 c 0
 20 258 20 258 20 382 c 0
 20 500 20 500 89 597 c 0
 150 680 150 680 252 718 c 0
 354 756 354 756 440 757 c 2
 770 757 l 1
 770 1291 l 1
 363 1291 l 2
 279 1291 279 1291 220 1226 c 0
 156 1155 156 1155 123 1115 c 0
 108 1098 108 1098 98 1092 c 0
 88 1086 88 1086 80 1086 c 0
771 647 m 1
 575 647 l 2
 510 647 510 647 442 628 c 0
 374 609 374 609 327 562 c 0
 253 490 253 490 253 372 c 0
 253 257 253 257 330 182 c 0
 413 103 413 103 555 103 c 2
 760 103 l 1
 771 119 771 119 771 148 c 2
 771 647 l 1
EndSplineSet
EndChar

StartChar: uni018D
Encoding: 397 397 335
Width: 1056
GlyphClass: 2
Flags: W
LayerCount: 2
Fore
SplineSet
640 285 m 0
 669 300 669 300 669 320 c 0
 669 332 669 332 660 343 c 0
 658 346 l 0
 656 349 656 349 649 355 c 0
 612 392 612 392 545 406 c 0
 378 443 378 443 276 469 c 0
 211 485 211 485 170 525 c 0
 115 580 115 580 109 678 c 0
 109 679 l 2
 109 689 l 2
 109 768 109 768 167 850 c 0
 179 867 179 867 197 886 c 0
 257 946 257 946 353 975 c 0
 354 975 l 0
 431 997 431 997 513 997 c 0
 539 997 539 997 565 995 c 0
 680 986 680 986 768 951 c 0
 834 925 834 925 884 872 c 0
 933 819 933 819 933 746 c 2
 933 736 l 2
 933 601 933 601 854 546 c 0
 800 508 800 508 752 487 c 1
 862 416 862 416 869 347 c 0
 871 343 871 343 871 337 c 0
 869 239 869 239 752 184 c 1
 192 -114 l 2
 178 -121 178 -121 172 -128 c 1
 175 -128 175 -128 179 -128 c 2
 665 -128 l 2
 687 -128 687 -128 697 -126 c 0
 707 -124 707 -124 710 -120 c 0
 713 -118 713 -118 718 -107 c 0
 723 -96 723 -96 730 -73 c 0
 741 -34 741 -34 757 -18 c 0
 773 -2 773 -2 792 -1 c 0
 811 -1 811 -1 822 -12 c 0
 833 -23 833 -23 833 -41 c 2
 833 -267 l 2
 833 -268 l 0
 832 -293 832 -293 817 -308 c 0
 802 -323 802 -323 775 -323 c 2
 33 -323 l 2
 19 -323 19 -323 9 -313 c 0
 -3 -301 -3 -301 -3 -277 c 2
 -3 -157 l 2
 -3 -60 -3 -60 139 18 c 0
 322 117 322 117 640 285 c 0
505 886 m 0
 452 886 452 886 400 866 c 0
 341 844 341 844 315 790 c 0
 297 753 297 753 297 727 c 2
 297 724 l 2
 297 700 297 700 308 684 c 0
 344 633 344 633 389 620 c 2
 631 549 l 1
 665 559 665 559 732 602 c 0
 790 639 790 639 795 719 c 0
 795 723 795 723 795 732 c 0
 795 741 795 741 793 753 c 0
 785 795 785 795 735 832 c 0
 681 872 681 872 533 885 c 0
 523 886 523 886 505 886 c 0
EndSplineSet
EndChar

StartChar: uni018E
Encoding: 398 398 336
Width: 1251
GlyphClass: 2
Flags: W
LayerCount: 2
Fore
SplineSet
866 657 m 1
 663 657 l 2
 627 657 627 657 608 638 c 0
 600 630 600 630 594 618 c 0
 566 555 566 555 528 555 c 0
 509 555 509 555 498 566 c 0
 487 577 487 577 487 596 c 2
 487 850 l 2
 487 869 487 869 498 880 c 0
 509 891 509 891 527 891 c 0
 567 891 567 891 592 827 c 0
 597 813 597 813 605 805 c 0
 622 788 622 788 657 788 c 2
 866 788 l 1
 866 1291 l 1
 459 1291 l 2
 408 1291 408 1291 378 1261 c 0
 345 1228 345 1228 292 1155 c 0
 276 1130 276 1130 264 1118 c 0
 252 1106 252 1106 239 1106 c 0
 220 1106 220 1106 209 1117 c 0
 198 1128 198 1128 198 1147 c 2
 198 1405 l 2
 198 1413 198 1413 204 1419 c 0
 210 1425 210 1425 218 1425 c 2
 1146 1425 l 2
 1165 1425 1165 1425 1176 1414 c 0
 1187 1403 1187 1403 1187 1383 c 0
 1187 1343 1187 1343 1124 1321 c 0
 1111 1316 1111 1316 1103 1308 c 0
 1087 1292 1087 1292 1087 1257 c 2
 1087 146 l 2
 1087 111 1087 111 1103 95 c 0
 1112 86 1112 86 1124 82 c 0
 1187 60 1187 60 1187 21 c 0
 1186 0 1186 0 1176 -10 c 0
 1166 -20 1166 -20 1149 -20 c 2
 230 -20 l 2
 222 -20 222 -20 217 -15 c 0
 212 -10 212 -10 211 -5 c 2
 138 252 l 2
 135 263 135 263 135 280 c 0
 135 297 135 297 146 308 c 0
 157 319 157 319 176 319 c 0
 184 320 184 320 194 314 c 0
 204 308 204 308 219 290 c 0
 252 250 252 250 316 179 c 0
 375 114 375 114 459 114 c 2
 866 114 l 1
 866 657 l 1
EndSplineSet
Validated: 1
EndChar

StartChar: uni018F
Encoding: 399 399 337
Width: 1316
GlyphClass: 2
Flags: W
LayerCount: 2
Fore
SplineSet
110 695 m 2,0,-1
 1040 695 l 1,1,2
 1031 905 1031 905 931 1031 c 0,3,4
 799 1198 799 1198 604 1237 c 1,5,6
 604 1237 604 1237 604 1238 c 0,7,8
 570 1245 570 1245 532 1245 c 0,9,10
 376 1245 376 1245 182 1117 c 0,11,12
 148 1095 148 1095 125 1095 c 0,13,14
 107 1095 107 1095 96 1106 c 128,-1,15
 85 1117 85 1117 85 1140 c 0,16,17
 85 1153 85 1153 95 1169 c 0,18,19
 111 1193 111 1193 158 1235 c 0,20,21
 345 1408 345 1408 586 1408 c 2,22,-1
 589 1408 l 2,23,24
 967 1407 967 1407 1159 1163 c 0,25,26
 1306 976 1306 976 1306 722 c 0,27,28
 1306 646 1306 646 1293 564 c 0,29,30
 1253 296 1253 296 1080 136 c 0,31,32
 904 -27 904 -27 621 -29 c 0,33,34
 329 -29 329 -29 176 137 c 0,35,36
 24 302 24 302 24 568 c 0,37,38
 25 626 25 626 28 650 c 0,39,40
 30 665 30 665 40 675 c 0,41,42
 60 695 60 695 110 695 c 2,0,-1
645 103 m 0,43,44
 829 103 829 103 934 264 c 0,45,46
 1003 370 1003 370 1038 569 c 1,47,-1
 232 569 l 1,48,49
 236 315 236 315 347 205 c 0,50,51
 448 103 448 103 645 103 c 0,43,44
EndSplineSet
Validated: 1
EndChar

